Lato-Semibold.ufo
<glyph name="exclam" format="2">
  <advance width="550.6"/>
  <unicode hex="0021"/>
  <guideline x="371.304"/>
  <outline>
    <contour>
      <point x="175.054" y="1439.96" type="line"/>
      <point x="175.054" y="867.96" type="line" smooth="yes"/>
      <point x="175.054" y="747.296"/>
      <point x="186.378" y="639.328"/>
      <point x="203.698" y="505.304" type="curve"/>
      <point x="348.902" y="505.304" type="line"/>
      <point x="366.222" y="639.328"/>
      <point x="377.546" y="747.296"/>
      <point x="377.546" y="867.96" type="curve" smooth="yes"/>
      <point x="377.546" y="1439.96" type="line"/>
    </contour>
    <contour>
      <point x="134.374" y="123.924" type="curve" smooth="yes"/>
      <point x="134.374" y="45.300000000000004"/>
      <point x="194.34199999999998" y="-14.668"/>
      <point x="272.966" y="-14.668" type="curve" smooth="yes"/>
      <point x="350.25800000000004" y="-14.668"/>
      <point x="412.226" y="45.300000000000004"/>
      <point x="412.226" y="123.924" type="curve" smooth="yes"/>
      <point x="412.226" y="201.216"/>
      <point x="350.25800000000004" y="263.18399999999997"/>
      <point x="272.966" y="263.18399999999997" type="curve" smooth="yes"/>
      <point x="194.34199999999998" y="263.18399999999997"/>
      <point x="134.374" y="201.216"/>
    </contour>
  </outline>
</glyph>
<glyph name="numbersign" format="2">
  <advance width="1160"/>
  <unicode hex="0023"/>
  <outline>
    <contour>
      <point x="243.756" y="508.632" type="line"/>
      <point x="243.756" y="469.328" type="line"/>
      <point x="153.076" y="0" type="line" name="n02"/>
      <point x="248.324" y="0" type="line" smooth="yes"/>
      <point x="293.62" y="0"/>
      <point x="335.584" y="22.648"/>
      <point x="345.576" y="79.936" type="curve"/>
      <point x="420.268" y="469.328" type="line"/>
      <point x="420.268" y="508.632" type="line"/>
      <point x="502.952" y="937.988" type="line"/>
      <point x="502.952" y="977.956" type="line"/>
      <point x="592.3" y="1439.96" type="line" name="n11"/>
      <point x="495.056" y="1439.96" type="line" smooth="yes"/>
      <point x="449.092" y="1439.96"/>
      <point x="411.124" y="1411.98"/>
      <point x="402.464" y="1365.35" type="curve" smooth="yes"/>
      <point x="326.44" y="977.956" type="line"/>
      <point x="326.44" y="937.988" type="line"/>
    </contour>
    <contour>
      <point x="645.052" y="508.632" type="line"/>
      <point x="645.052" y="469.328" type="line"/>
      <point x="570.36" y="90.592" type="line"/>
      <point x="559.7" y="40.628"/>
      <point x="592.34" y="0"/>
      <point x="632.976" y="0" type="curve" smooth="yes"/>
      <point x="730.884" y="0" type="line"/>
      <point x="821.564" y="469.328" type="line"/>
      <point x="821.564" y="508.632" type="line"/>
      <point x="904.248" y="937.988" type="line"/>
      <point x="904.248" y="977.956" type="line"/>
      <point x="980.272" y="1362.68" type="line"/>
      <point x="988.268" y="1407.32"/>
      <point x="957.628" y="1439.96"/>
      <point x="912.332" y="1439.96" type="curve" smooth="yes"/>
      <point x="817.084" y="1439.96" type="line"/>
      <point x="727.736" y="977.956" type="line"/>
      <point x="727.736" y="937.988" type="line"/>
    </contour>
    <contour>
      <point x="1037.63" y="414.712" type="line" name="n36"/>
      <point x="1048.28" y="483.316" type="line" smooth="yes"/>
      <point x="1057.61" y="547.26"/>
      <point x="1036.96" y="571.24"/>
      <point x="992.992" y="571.24" type="curve" smooth="yes" name="n40"/>
      <point x="59.044" y="571.24" type="line"/>
      <point x="48.388" y="502.636" type="line" smooth="yes"/>
      <point x="39.064" y="438.692"/>
      <point x="59.716" y="414.712"/>
      <point x="103.68" y="414.712" type="curve" smooth="yes"/>
    </contour>
    <contour>
      <point x="91.068" y="870.052" type="line" name="n46"/>
      <point x="1009.03" y="870.052" type="line" smooth="yes"/>
      <point x="1070.31" y="870.052"/>
      <point x="1096.29" y="891.368"/>
      <point x="1104.28" y="936.664" type="curve" smooth="yes"/>
      <point x="1120.27" y="1026.58" type="line"/>
      <point x="202.304" y="1026.58" type="line" smooth="yes" name="n52"/>
      <point x="141.024" y="1026.58"/>
      <point x="115.044" y="1005.26"/>
      <point x="107.052" y="959.968" type="curve" smooth="yes"/>
    </contour>
  </outline>
</glyph>
<glyph name="dollar" format="2">
  <advance width="1160.0"/>
  <unicode hex="0024"/>
  <outline>
    <contour>
      <point x="1036.904" y="1290.652" type="line"/>
      <point x="943.572" y="1382.656"/>
      <point x="812.936" y="1453.96"/>
      <point x="616.996" y="1453.96" type="curve" smooth="yes"/>
      <point x="313.724" y="1453.96"/>
      <point x="143.09199999999998" y="1255.996"/>
      <point x="143.09199999999998" y="1048.692" type="curve" smooth="yes"/>
      <point x="143.09199999999998" y="538.74"/>
      <point x="863.768" y="740.092"/>
      <point x="863.768" y="411.312" type="curve" smooth="yes"/>
      <point x="863.768" y="259.92"/>
      <point x="757.724" y="163.84"/>
      <point x="560.996" y="163.84" type="curve" smooth="yes"/>
      <point x="344.948" y="163.84"/>
      <point x="264.276" y="301.208"/>
      <point x="201.648" y="301.208" type="curve" smooth="yes"/>
      <point x="179.664" y="301.208"/>
      <point x="159.016" y="288.552"/>
      <point x="147.024" y="271.23199999999997" type="curve" smooth="yes"/>
      <point x="81.752" y="172.66" type="line"/>
      <point x="195.06799999999998" y="58.66"/>
      <point x="370.332" y="-16.0"/>
      <point x="560.996" y="-16.0" type="curve" smooth="yes"/>
      <point x="882.28" y="-16.0"/>
      <point x="1066.92" y="188.644"/>
      <point x="1066.92" y="444.616" type="curve" smooth="yes"/>
      <point x="1066.92" y="912.6"/>
      <point x="344.91200000000003" y="741.232"/>
      <point x="344.91200000000003" y="1070.004" type="curve" smooth="yes"/>
      <point x="344.91200000000003" y="1180.728"/>
      <point x="430.952" y="1272.788"/>
      <point x="636.976" y="1272.788" type="curve" smooth="yes"/>
      <point x="795.708" y="1272.788"/>
      <point x="885.016" y="1176.088"/>
      <point x="930.996" y="1176.088" type="curve" smooth="yes"/>
      <point x="953.644" y="1176.088"/>
      <point x="969.6320000000001" y="1187.412"/>
      <point x="984.952" y="1211.392" type="curve"/>
    </contour>
    <contour>
      <point x="458.42" y="-230.04399999999998" type="line"/>
      <point x="537.684" y="-230.04399999999998" type="line" smooth="yes"/>
      <point x="570.992" y="-230.04399999999998"/>
      <point x="594.972" y="-202.732"/>
      <point x="596.304" y="-174.084" type="curve"/>
      <point x="735.564" y="1643.308" type="line"/>
      <point x="656.3" y="1643.308" type="line" smooth="yes"/>
      <point x="622.992" y="1643.308"/>
      <point x="599.012" y="1615.996"/>
      <point x="597.68" y="1587.348" type="curve"/>
    </contour>
  </outline>
</glyph>
<glyph name="percent" format="2">
  <advance width="1622"/>
  <unicode hex="0025"/>
  <outline>
    <contour>
      <point x="734.27" y="1091.97" type="curve" smooth="yes" name="n00"/>
      <point x="734.27" y="1319.32"/>
      <point x="594.282" y="1454.63" name="n02"/>
      <point x="407.65" y="1454.63" type="curve" smooth="yes"/>
      <point x="221.682" y="1454.63"/>
      <point x="82.362" y="1319.32"/>
      <point x="82.362" y="1091.97" type="curve" smooth="yes" name="n06"/>
      <point x="82.362" y="870.62"/>
      <point x="221.682" y="735.312"/>
      <point x="407.65" y="735.312" type="curve" smooth="yes" name="n09"/>
      <point x="580.962" y="735.312"/>
      <point x="734.27" y="870.62"/>
    </contour>
    <contour>
      <point x="568.414" y="1091.97" type="curve" smooth="yes" name="n12"/>
      <point x="568.414" y="931.9"/>
      <point x="497.034" y="875.856"/>
      <point x="407.65" y="875.856" type="curve" smooth="yes" name="n15"/>
      <point x="318.266" y="875.856"/>
      <point x="249.55" y="931.9"/>
      <point x="249.55" y="1091.97" type="curve" smooth="yes" name="n18"/>
      <point x="249.55" y="1256.04"/>
      <point x="318.266" y="1314.08"/>
      <point x="407.65" y="1314.08" type="curve" smooth="yes" name="n21"/>
      <point x="497.034" y="1314.08"/>
      <point x="568.414" y="1256.04"/>
    </contour>
    <contour>
      <point x="166.414" y="0" type="line" name="n24"/>
      <point x="325.602" y="0" type="line" smooth="yes"/>
      <point x="355.578" y="0"/>
      <point x="377.562" y="13.988"/>
      <point x="392.218" y="33.308" type="curve" smooth="yes"/>
      <point x="1453.48" y="1439.96" type="line"/>
      <point x="1298.29" y="1439.96" type="line" smooth="yes" name="n30"/>
      <point x="1260.98" y="1439.96"/>
      <point x="1242.33" y="1423.31"/>
      <point x="1227.67" y="1405.32" type="curve"/>
    </contour>
    <contour>
      <point x="1539.54" y="339.328" type="curve" smooth="yes" name="n34"/>
      <point x="1539.54" y="566.676"/>
      <point x="1399.55" y="701.984"/>
      <point x="1212.92" y="701.984" type="curve" smooth="yes" name="n37"/>
      <point x="1026.95" y="701.984"/>
      <point x="887.63" y="566.676"/>
      <point x="887.63" y="339.328" type="curve" smooth="yes" name="n40"/>
      <point x="887.63" y="117.976"/>
      <point x="1026.95" y="-17.332"/>
      <point x="1212.92" y="-17.332" type="curve" smooth="yes" name="n43"/>
      <point x="1386.23" y="-17.332"/>
      <point x="1539.54" y="117.976"/>
    </contour>
    <contour>
      <point x="1373.68" y="339.328" type="curve" smooth="yes" name="n46"/>
      <point x="1373.68" y="179.256"/>
      <point x="1302.3" y="123.212"/>
      <point x="1212.92" y="123.212" type="curve" smooth="yes" name="n49"/>
      <point x="1123.53" y="123.212"/>
      <point x="1054.82" y="179.256"/>
      <point x="1054.82" y="339.328" type="curve" smooth="yes" name="n52"/>
      <point x="1054.82" y="503.396"/>
      <point x="1123.53" y="561.44"/>
      <point x="1212.92" y="561.44" type="curve" smooth="yes" name="n55"/>
      <point x="1302.3" y="561.44"/>
      <point x="1373.68" y="503.396"/>
    </contour>
  </outline>
</glyph>
<glyph name="ampersand" format="2">
  <advance width="1435.938"/>
  <unicode hex="0026"/>
  <outline>
    <contour>
      <point x="479.024" y="836.612" type="line"/>
      <point x="256.368" y="771.948"/>
      <point x="80.376" y="605.944"/>
      <point x="80.376" y="390.62" type="curve" smooth="yes"/>
      <point x="80.376" y="137.972"/>
      <point x="301.02" y="-16.0"/>
      <point x="518.992" y="-16.0" type="curve" smooth="yes"/>
      <point x="954.296" y="-16.0"/>
      <point x="1261.556" y="356.696"/>
      <point x="1264.228" y="764.524" type="curve"/>
      <point x="1131.02" y="764.524" type="line" smooth="yes"/>
      <point x="1103.704" y="764.524"/>
      <point x="1088.384" y="746.5360000000001"/>
      <point x="1085.052" y="717.888" type="curve"/>
      <point x="1060.38" y="442.584"/>
      <point x="875.02" y="157.18"/>
      <point x="556.288" y="157.18" type="curve" smooth="yes"/>
      <point x="422.264" y="157.18"/>
      <point x="298.848" y="249.196"/>
      <point x="298.848" y="407.93600000000004" type="curve" smooth="yes"/>
      <point x="298.848" y="553.984"/>
      <point x="399.572" y="680.024"/>
      <point x="614.9" y="750.016" type="curve"/>
    </contour>
    <contour>
      <point x="669.652" y="1455.96" type="curve"/>
      <point x="421.704" y="1455.96"/>
      <point x="273.048" y="1293.328"/>
      <point x="273.048" y="1095.348" type="curve" smooth="yes"/>
      <point x="273.048" y="969.332"/>
      <point x="329.728" y="847.356"/>
      <point x="457.072" y="713.356" type="curve" smooth="yes"/>
      <point x="1116.5" y="41.968" type="line"/>
      <point x="1148.48" y="7.992000000000001"/>
      <point x="1170.464" y="0.0"/>
      <point x="1215.764" y="0.0" type="curve" smooth="yes"/>
      <point x="1424.904" y="0.0" type="line"/>
      <point x="602.94" y="845.24" type="line" smooth="yes"/>
      <point x="509.568" y="940.604"/>
      <point x="472.872" y="1011.308"/>
      <point x="472.872" y="1096.68" type="curve" smooth="yes"/>
      <point x="472.872" y="1204.076"/>
      <point x="547.592" y="1290.772"/>
      <point x="669.652" y="1290.772" type="curve" smooth="yes"/>
      <point x="776.4" y="1290.772"/>
      <point x="831.1" y="1217.356"/>
      <point x="853.084" y="1148.02" type="curve"/>
      <point x="864.408" y="1120.036"/>
      <point x="885.728" y="1108.044"/>
      <point x="910.376" y="1113.372" type="curve" smooth="yes"/>
      <point x="1045.58" y="1141.344" type="line"/>
      <point x="1033.592" y="1304.656"/>
      <point x="892.916" y="1455.96"/>
    </contour>
  </outline>
</glyph>
<glyph name="quotesingle" format="2">
  <advance width="416"/>
  <unicode hex="0027"/>
  <outline>
    <contour>
      <point x="114.73" y="1439.96" type="line" name="n00"/>
      <point x="114.73" y="1151.29" type="line"/>
      <point x="134.046" y="995.292" type="line" name="n02"/>
      <point x="143.37" y="944.672"/>
      <point x="165.35" y="915.364" name="n04"/>
      <point x="207.314" y="915.364" type="curve" smooth="yes"/>
      <point x="255.938" y="915.364"/>
      <point x="273.922" y="944.672"/>
      <point x="281.914" y="995.292" type="curve"/>
      <point x="301.23" y="1151.29" type="line" name="n09"/>
      <point x="301.23" y="1439.96" type="line"/>
    </contour>
  </outline>
  <guideline angle="90" x="248" y="0"/>
</glyph>
<glyph name="parenleft" format="2">
  <advance width="541.626"/>
  <unicode hex="0028"/>
  <outline>
    <contour>
      <point x="267.216" y="628.004" type="curve"/>
      <point x="267.216" y="906.0360000000001"/>
      <point x="339.23199999999997" y="1180.704"/>
      <point x="469.944" y="1416.732" type="curve"/>
      <point x="494.592" y="1464.692"/>
      <point x="475.276" y="1488.008"/>
      <point x="451.296" y="1503.328" type="curve"/>
      <point x="356.048" y="1561.276" type="line"/>
      <point x="157.372" y="1255.2640000000001"/>
      <point x="81.38" y="957.308"/>
      <point x="81.38" y="628.004" type="curve"/>
      <point x="81.38" y="298.7"/>
      <point x="157.372" y="0.7439999999999998"/>
      <point x="356.048" y="-305.26800000000003" type="curve"/>
      <point x="451.296" y="-247.32" type="line"/>
      <point x="475.276" y="-232.0"/>
      <point x="494.592" y="-208.684"/>
      <point x="469.944" y="-160.724" type="curve"/>
      <point x="339.23199999999997" y="75.304"/>
      <point x="267.216" y="349.972"/>
    </contour>
  </outline>
</glyph>
<glyph name="parenright" format="2">
  <advance width="542"/>
  <unicode hex="0029"/>
  <outline>
    <contour>
      <point x="274.41" y="628.004" type="curve" smooth="yes" name="n00"/>
      <point x="274.41" y="349.972"/>
      <point x="202.394" y="75.304"/>
      <point x="71.682" y="-160.724" type="curve"/>
      <point x="47.034" y="-208.684"/>
      <point x="66.35" y="-232"/>
      <point x="90.33" y="-247.32" type="curve" smooth="yes"/>
      <point x="185.578" y="-305.268" type="line" name="n07"/>
      <point x="384.254" y="0.744"/>
      <point x="460.246" y="298.7"/>
      <point x="460.246" y="628.004" type="curve" smooth="yes" name="n10"/>
      <point x="460.246" y="957.308"/>
      <point x="384.254" y="1255.26"/>
      <point x="185.578" y="1561.28" type="curve" name="n13"/>
      <point x="90.33" y="1503.33" type="line" smooth="yes"/>
      <point x="66.35" y="1488.01"/>
      <point x="47.034" y="1464.69"/>
      <point x="71.682" y="1416.73" type="curve"/>
      <point x="202.394" y="1180.7"/>
      <point x="274.41" y="906.036"/>
    </contour>
  </outline>
</glyph>
<glyph name="asterisk" format="2">
  <advance width="850"/>
  <unicode hex="002A"/>
  <outline>
    <contour>
      <point x="164.02" y="969.416" type="line"/>
      <point x="328.724" y="1064.77" type="line" smooth="yes"/>
      <point x="362.704" y="1084.76"/>
      <point x="388.016" y="1106.74"/>
      <point x="403.352" y="1140.72" type="curve"/>
      <point x="381.372" y="1180.02" type="line"/>
      <point x="344.052" y="1184.01"/>
      <point x="311.412" y="1173.36"/>
      <point x="277.432" y="1153.37" type="curve" smooth="yes"/>
      <point x="112.728" y="1058.01" type="line"/>
    </contour>
    <contour>
      <point x="476.624" y="848.744" type="line" name="n10"/>
      <point x="476.624" y="1039.45" type="line" smooth="yes" name="n11"/>
      <point x="476.624" y="1078.09"/>
      <point x="467.964" y="1111.4"/>
      <point x="446.648" y="1141.39" type="curve"/>
      <point x="403.352" y="1141.39" type="line"/>
      <point x="380.036" y="1113.4"/>
      <point x="372.708" y="1078.09"/>
      <point x="372.708" y="1038.12" type="curve" smooth="yes" name="n18"/>
      <point x="372.708" y="848.744" type="line"/>
    </contour>
    <contour>
      <point x="737.94" y="1056.68" type="line"/>
      <point x="572.568" y="1153.37" type="line"/>
      <point x="538.588" y="1174.69"/>
      <point x="505.284" y="1184.01"/>
      <point x="468.628" y="1180.02" type="curve"/>
      <point x="446.648" y="1140.72" type="line"/>
      <point x="461.32" y="1106.07"/>
      <point x="487.296" y="1084.76"/>
      <point x="521.276" y="1064.77" type="curve" smooth="yes"/>
      <point x="686.648" y="968.084" type="line"/>
    </contour>
    <contour>
      <point x="372.708" y="1511.3" type="line" name="n30"/>
      <point x="372.708" y="1320.6" type="line" smooth="yes"/>
      <point x="372.708" y="1281.96"/>
      <point x="381.368" y="1247.98"/>
      <point x="403.352" y="1217.99" type="curve"/>
      <point x="446.648" y="1217.99" type="line"/>
      <point x="469.964" y="1246.65"/>
      <point x="476.624" y="1281.96"/>
      <point x="476.624" y="1321.93" type="curve" smooth="yes"/>
      <point x="476.624" y="1511.3" type="line"/>
    </contour>
    <contour>
      <point x="112.06" y="1303.37" type="line"/>
      <point x="277.432" y="1206.68" type="line"/>
      <point x="311.412" y="1185.36"/>
      <point x="344.716" y="1176.04"/>
      <point x="381.372" y="1179.36" type="curve"/>
      <point x="403.352" y="1218.66" type="line"/>
      <point x="388.012" y="1252.64"/>
      <point x="362.704" y="1275.29"/>
      <point x="328.724" y="1295.28" type="curve" smooth="yes"/>
      <point x="163.352" y="1391.96" type="line"/>
    </contour>
    <contour>
      <point x="685.98" y="1390.63" type="line"/>
      <point x="521.276" y="1295.28" type="line" smooth="yes"/>
      <point x="487.296" y="1275.29"/>
      <point x="461.984" y="1252.64"/>
      <point x="446.648" y="1218.66" type="curve"/>
      <point x="468.628" y="1179.36" type="line"/>
      <point x="505.948" y="1174.7"/>
      <point x="538.588" y="1186.69"/>
      <point x="572.568" y="1206.68" type="curve" smooth="yes"/>
      <point x="737.272" y="1302.04" type="line"/>
    </contour>
    <contour>
      <point x="374.708" y="1204.67" type="line"/>
      <point x="368.716" y="1145.39" type="line"/>
      <point x="418.672" y="1109.42" type="line"/>
      <point x="479.284" y="1144.06" type="line"/>
      <point x="479.952" y="1212" type="line"/>
      <point x="430.66" y="1235.97" type="line"/>
    </contour>
  </outline>
</glyph>
<glyph name="plus" format="2">
  <advance width="1160"/>
  <unicode hex="002B"/>
  <outline>
    <contour>
      <point x="96.69" y="590.736" type="line" name="n00"/>
      <point x="1063.98" y="590.736" type="line"/>
      <point x="1063.98" y="751.928" type="line"/>
      <point x="96.69" y="751.928" type="line" name="n03"/>
    </contour>
    <contour>
      <point x="492.078" y="1169.98" type="line" name="n04"/>
      <point x="492.078" y="170.684" type="line" name="n05"/>
      <point x="666.59" y="170.684" type="line"/>
      <point x="666.59" y="1169.98" type="line" name="n07"/>
    </contour>
  </outline>
</glyph>
<glyph name="comma" format="2">
  <advance width="461"/>
  <unicode hex="002C"/>
  <outline>
    <contour>
      <point x="96.392" y="138.58" type="curve" smooth="yes" name="n00"/>
      <point x="96.392" y="59.956"/>
      <point x="149.696" y="1.324"/>
      <point x="226.984" y="1.324" type="curve" smooth="yes" name="n03"/>
      <point x="257.644" y="1.324"/>
      <point x="279.636" y="9.324"/>
      <point x="295.632" y="21.328" type="curve"/>
      <point x="235.688" y="41.308" type="line" name="n07"/>
      <point x="235.688" y="-61.04"/>
      <point x="157.02" y="-144.052"/>
      <point x="124.698" y="-179.042" type="curve" smooth="yes"/>
      <point x="115.372" y="-188.702"/>
      <point x="107.712" y="-200.692"/>
      <point x="107.712" y="-210.684" type="curve" smooth="yes"/>
      <point x="107.712" y="-224.672"/>
      <point x="111.708" y="-233.332"/>
      <point x="123.366" y="-243.658" type="curve" smooth="yes"/>
      <point x="160.332" y="-277.96" type="line" name="n17"/>
      <point x="292.268" y="-171.328"/>
      <point x="366.244" y="-16.716"/>
      <point x="366.244" y="106.596" type="curve" smooth="yes" name="n20"/>
      <point x="366.244" y="192.56"/>
      <point x="320.264" y="263.184"/>
      <point x="228.32" y="263.184" type="curve" smooth="yes" name="n23"/>
      <point x="149.696" y="263.184"/>
      <point x="96.392" y="207.876"/>
    </contour>
  </outline>
</glyph>
<glyph name="hyphen" format="2">
  <advance width="744.66"/>
  <unicode hex="002D"/>
  <unicode hex="00AD"/>
  <unicode hex="2010"/>
  <outline>
    <contour>
      <point x="119.03" y="511.4" type="line"/>
      <point x="625.63" y="511.4" type="line"/>
      <point x="625.63" y="692.572" type="line"/>
      <point x="119.03" y="692.572" type="line"/>
    </contour>
  </outline>
</glyph>
<glyph name="period" format="2">
  <advance width="473"/>
  <unicode hex="002E"/>
  <outline>
    <contour>
      <point x="97.736" y="123.924" type="curve" smooth="yes" name="n00"/>
      <point x="97.736" y="45.3"/>
      <point x="157.704" y="-14.668"/>
      <point x="236.328" y="-14.668" type="curve" smooth="yes" name="n03"/>
      <point x="313.62" y="-14.668"/>
      <point x="375.588" y="45.3"/>
      <point x="375.588" y="123.924" type="curve" smooth="yes" name="n06"/>
      <point x="375.588" y="201.216"/>
      <point x="313.62" y="263.184"/>
      <point x="236.328" y="263.184" type="curve" smooth="yes" name="n09"/>
      <point x="157.704" y="263.184"/>
      <point x="97.736" y="201.216"/>
    </contour>
  </outline>
</glyph>
<glyph name="slash" format="2">
  <advance width="919"/>
  <unicode hex="002F"/>
  <outline>
    <contour>
      <point x="856.232" y="1479.96" type="line" name="n00"/>
      <point x="764.98" y="1479.96" type="line" smooth="yes"/>
      <point x="713.688" y="1479.96"/>
      <point x="673.056" y="1451.98"/>
      <point x="654.404" y="1402.69" type="curve"/>
      <point x="62.356" y="-92.652" type="line" name="n05"/>
      <point x="152.94" y="-92.652" type="line" smooth="yes"/>
      <point x="198.236" y="-92.652"/>
      <point x="248.196" y="-65.344"/>
      <point x="268.18" y="-11.388" type="curve"/>
    </contour>
  </outline>
</glyph>
<glyph name="zero" format="2">
  <advance width="1160.0"/>
  <unicode hex="0030"/>
  <outline>
    <contour>
      <point x="1105.304" y="719.98" type="curve" smooth="yes"/>
      <point x="1105.304" y="1223.3"/>
      <point x="875.308" y="1455.96"/>
      <point x="578.668" y="1455.96" type="curve" smooth="yes"/>
      <point x="282.028" y="1455.96"/>
      <point x="54.696" y="1223.3"/>
      <point x="54.696" y="719.98" type="curve" smooth="yes"/>
      <point x="54.696" y="216.66"/>
      <point x="282.028" y="-15.332"/>
      <point x="578.668" y="-15.332" type="curve" smooth="yes"/>
      <point x="875.308" y="-15.332"/>
      <point x="1105.304" y="216.66"/>
    </contour>
    <contour>
      <point x="883.5" y="719.98" type="curve" smooth="yes"/>
      <point x="883.5" y="293.26"/>
      <point x="737.432" y="164.508"/>
      <point x="578.668" y="164.508" type="curve" smooth="yes"/>
      <point x="419.904" y="164.508"/>
      <point x="275.832" y="293.26"/>
      <point x="275.832" y="719.98" type="curve" smooth="yes"/>
      <point x="275.832" y="1146.7"/>
      <point x="419.904" y="1276.12"/>
      <point x="578.668" y="1276.12" type="curve" smooth="yes"/>
      <point x="737.432" y="1276.12"/>
      <point x="883.5" y="1146.7"/>
    </contour>
  </outline>
</glyph>
<glyph name="one" format="2">
  <advance width="1160.0"/>
  <unicode hex="0031"/>
  <outline>
    <contour>
      <point x="581.052" y="1442.632" type="line"/>
      <point x="559.068" y="1322.056"/>
      <point x="541.748" y="1184.828"/>
      <point x="541.748" y="1066.916" type="curve" smooth="yes"/>
      <point x="541.748" y="0.0" type="line"/>
      <point x="756.224" y="0.0" type="line"/>
      <point x="756.224" y="1442.632" type="line"/>
    </contour>
    <contour>
      <point x="241.708" y="0.0" type="line"/>
      <point x="1026.952" y="0.0" type="line"/>
      <point x="1026.952" y="162.524" type="line"/>
      <point x="241.708" y="162.524" type="line"/>
    </contour>
    <contour>
      <point x="147.09199999999998" y="1069.984" type="line"/>
      <point x="214.364" y="976.736" type="line"/>
      <point x="229.688" y="956.084"/>
      <point x="273.652" y="936.104"/>
      <point x="314.284" y="968.744" type="curve"/>
      <point x="581.724" y="1194.856" type="line"/>
      <point x="581.052" y="1442.632" type="line"/>
    </contour>
  </outline>
</glyph>
<glyph name="two" format="2">
  <advance width="1160.0"/>
  <unicode hex="0032"/>
  <outline>
    <contour>
      <point x="592.66" y="1455.96" type="curve" smooth="yes"/>
      <point x="341.356" y="1455.96"/>
      <point x="150.72" y="1314.628"/>
      <point x="111.39599999999999" y="1044.008" type="curve"/>
      <point x="223.96" y="1024.028" type="line" smooth="yes"/>
      <point x="282.576" y="1014.704"/>
      <point x="311.22" y="1030.692"/>
      <point x="330.536" y="1085.316" type="curve" smooth="yes"/>
      <point x="357.208" y="1194.068"/>
      <point x="449.928" y="1273.456"/>
      <point x="580.672" y="1273.456" type="curve" smooth="yes"/>
      <point x="716.052" y="1273.456"/>
      <point x="813.468" y="1196.096"/>
      <point x="813.468" y="1043.34" type="curve" smooth="yes"/>
      <point x="813.468" y="884.6320000000001"/>
      <point x="722.088" y="763.94"/>
      <point x="571.408" y="611.924" type="curve"/>
      <point x="123.352" y="162.52800000000002" type="line"/>
      <point x="96.044" y="136.55200000000002"/>
      <point x="84.716" y="101.248"/>
      <point x="84.716" y="72.60400000000001" type="curve"/>
      <point x="84.716" y="0.0" type="line"/>
      <point x="1059.284" y="0.0" type="line"/>
      <point x="1059.284" y="129.216" type="line" smooth="yes"/>
      <point x="1059.284" y="172.512"/>
      <point x="1029.976" y="201.82000000000002"/>
      <point x="984.016" y="201.82000000000002" type="curve" smooth="yes"/>
      <point x="561.048" y="201.82000000000002" type="line" smooth="yes"/>
      <point x="463.756" y="201.82000000000002"/>
      <point x="337.172" y="166.52"/>
      <point x="255.224" y="125.224" type="curve"/>
      <point x="258.568" y="41.304" type="line"/>
      <point x="739.92" y="532.656" type="line" smooth="yes"/>
      <point x="897.928" y="692.664"/>
      <point x="1033.272" y="837.332"/>
      <point x="1033.272" y="1050.0" type="curve" smooth="yes"/>
      <point x="1033.272" y="1300.008"/>
      <point x="848.596" y="1455.96"/>
    </contour>
  </outline>
</glyph>
<glyph name="three" format="2">
  <advance width="1160.0"/>
  <unicode hex="0033"/>
  <outline>
    <contour>
      <point x="599.658" y="1455.96" type="curve" smooth="yes"/>
      <point x="348.354" y="1455.96"/>
      <point x="157.718" y="1314.628"/>
      <point x="118.394" y="1044.008" type="curve"/>
      <point x="230.958" y="1024.028" type="line" smooth="yes"/>
      <point x="289.574" y="1014.704"/>
      <point x="317.55" y="1030.692"/>
      <point x="336.866" y="1085.316" type="curve" smooth="yes"/>
      <point x="363.538" y="1194.068"/>
      <point x="456.926" y="1273.456"/>
      <point x="587.67" y="1273.456" type="curve" smooth="yes"/>
      <point x="723.05" y="1273.456"/>
      <point x="817.794" y="1198.1"/>
      <point x="817.794" y="1048.684" type="curve" smooth="yes"/>
      <point x="817.794" y="911.292"/>
      <point x="738.382" y="817.252"/>
      <point x="493.714" y="814.58" type="curve"/>
      <point x="493.714" y="660.052" type="line"/>
      <point x="790.398" y="659.384"/>
      <point x="843.142" y="559.336"/>
      <point x="843.142" y="413.956" type="curve" smooth="yes"/>
      <point x="843.142" y="298.576"/>
      <point x="751.762" y="166.50400000000002"/>
      <point x="568.338" y="166.50400000000002" type="curve" smooth="yes"/>
      <point x="387.49" y="166.50400000000002"/>
      <point x="330.17" y="288.676"/>
      <point x="287.538" y="373.284" type="curve" smooth="yes"/>
      <point x="268.218" y="413.264"/>
      <point x="218.25400000000002" y="422.584"/>
      <point x="168.966" y="401.93600000000004" type="curve" smooth="yes"/>
      <point x="75.722" y="362.64" type="line"/>
      <point x="149.014" y="131.404"/>
      <point x="274.294" y="-16.0"/>
      <point x="571.002" y="-16.0" type="curve" smooth="yes"/>
      <point x="835.658" y="-16.0"/>
      <point x="1057.618" y="144.02"/>
      <point x="1057.618" y="420.616" type="curve" smooth="yes"/>
      <point x="1057.618" y="646.592"/>
      <point x="900.302" y="776.608"/>
      <point x="589.69" y="789.268" type="curve"/>
      <point x="589.69" y="724.66" type="line"/>
      <point x="852.27" y="743.984"/>
      <point x="1026.942" y="831.364"/>
      <point x="1026.942" y="1085.98" type="curve" smooth="yes"/>
      <point x="1026.942" y="1302.012"/>
      <point x="855.594" y="1455.96"/>
    </contour>
  </outline>
</glyph>
<glyph name="four" format="2">
  <advance width="1160.0"/>
  <unicode hex="0034"/>
  <outline>
    <contour>
      <point x="907.886" y="1440.628" type="line"/>
      <point x="706.074" y="1440.628" type="line"/>
      <point x="15.373999999999995" y="520.596" type="line"/>
      <point x="37.354" y="411.364" type="line"/>
      <point x="43.349999999999994" y="384.052"/>
      <point x="67.994" y="364.068"/>
      <point x="97.97800000000001" y="364.068" type="curve" smooth="yes"/>
      <point x="1061.346" y="364.068" type="line" smooth="yes"/>
      <point x="1090.662" y="364.068"/>
      <point x="1106.65" y="384.052"/>
      <point x="1106.65" y="408.036" type="curve" smooth="yes"/>
      <point x="1106.65" y="531.92" type="line"/>
      <point x="68.002" y="531.92" type="line"/>
      <point x="173.906" y="432.68" type="line"/>
      <point x="847.274" y="1356.688" type="line"/>
      <point x="768.01" y="1371.344" type="line"/>
      <point x="733.374" y="1263.432"/>
      <point x="720.718" y="1146.196"/>
      <point x="720.718" y="1059.596" type="curve" smooth="yes"/>
      <point x="720.718" y="0.0" type="line"/>
      <point x="907.886" y="0.0" type="line"/>
    </contour>
  </outline>
</glyph>
<glyph name="five" format="2">
  <advance width="1160"/>
  <unicode hex="0035"/>
  <outline>
    <contour>
      <point x="991.286" y="1439.96" type="line"/>
      <point x="294.05" y="1439.96" type="line" name="n01"/>
      <point x="176.062" y="752.724" type="line"/>
      <point x="309.946" y="714.088" type="line"/>
      <point x="385.976" y="739.09"/>
      <point x="460.994" y="751.756"/>
      <point x="531.004" y="751.756" type="curve" smooth="yes" name="n06"/>
      <point x="723.764" y="751.756"/>
      <point x="822.794" y="648.36"/>
      <point x="822.794" y="481.3" type="curve" smooth="yes" name="n09"/>
      <point x="822.794" y="295.2"/>
      <point x="712.702" y="166.508"/>
      <point x="522.654" y="166.508" type="curve" smooth="yes" name="n12"/>
      <point x="348.634" y="166.508"/>
      <point x="280.594" y="267.168"/>
      <point x="220.634" y="267.168" type="curve" smooth="yes"/>
      <point x="198.65" y="267.168"/>
      <point x="178.666" y="257.176"/>
      <point x="164.678" y="237.192" type="curve" smooth="yes"/>
      <point x="98.738" y="145.276" type="line"/>
      <point x="192.05" y="59.976"/>
      <point x="336.03" y="-16"/>
      <point x="510.666" y="-16" type="curve" smooth="yes" name="n22"/>
      <point x="810.614" y="-16"/>
      <point x="1037.94" y="185.3"/>
      <point x="1037.94" y="491.288" type="curve" smooth="yes" name="n25"/>
      <point x="1037.94" y="738.286"/>
      <point x="877.614" y="928.932"/>
      <point x="576.292" y="928.932" type="curve" smooth="yes" name="n28"/>
      <point x="493.294" y="928.932"/>
      <point x="399.63" y="915.6"/>
      <point x="295.298" y="884.604" type="curve"/>
      <point x="357.902" y="751.388" type="line"/>
      <point x="473.894" y="1419.98" type="line"/>
      <point x="316.698" y="1243.47" type="line" name="n34"/>
      <point x="865.398" y="1243.47" type="line" smooth="yes"/>
      <point x="955.982" y="1243.47"/>
      <point x="991.286" y="1286.76"/>
      <point x="991.286" y="1347.38" type="curve" smooth="yes"/>
    </contour>
  </outline>
</glyph>
<glyph name="six" format="2">
  <advance width="1160"/>
  <unicode hex="0036"/>
  <outline>
    <contour>
      <point x="301.55" y="448.632" type="curve" smooth="yes"/>
      <point x="301.55" y="601.988"/>
      <point x="412.926" y="728.736"/>
      <point x="586.358" y="728.736" type="curve" smooth="yes" name="n03"/>
      <point x="755.086" y="728.736"/>
      <point x="869.798" y="622.024"/>
      <point x="869.798" y="445.292" type="curve" smooth="yes" name="n06"/>
      <point x="869.798" y="283.224"/>
      <point x="751.758" y="161.176"/>
      <point x="578.334" y="161.176" type="curve" smooth="yes" name="n09"/>
      <point x="400.274" y="161.176"/>
      <point x="301.55" y="277.9"/>
    </contour>
    <contour>
      <point x="293.554" y="488.604" type="line" name="n12"/>
      <point x="294.89" y="646.58"/>
      <point x="377.53" y="759.24"/>
      <point x="498.866" y="909.26" type="curve" smooth="yes"/>
      <point x="926.19" y="1439.96" type="line" name="n16"/>
      <point x="735.694" y="1439.96" type="line" smooth="yes"/>
      <point x="685.074" y="1439.96"/>
      <point x="642.446" y="1417.32"/>
      <point x="621.13" y="1388.67" type="curve" smooth="yes"/>
      <point x="267.078" y="913.932" type="line" smooth="yes"/>
      <point x="149.73" y="756.576"/>
      <point x="95.066" y="613.248"/>
      <point x="95.066" y="483.28" type="curve" smooth="yes"/>
      <point x="95.066" y="182.628"/>
      <point x="283.718" y="-16"/>
      <point x="582.33" y="-16" type="curve" smooth="yes" name="n27"/>
      <point x="880.958" y="-16"/>
      <point x="1084.27" y="195.292"/>
      <point x="1084.27" y="461.276" type="curve" smooth="yes" name="n30"/>
      <point x="1084.27" y="742.568"/>
      <point x="883.646" y="891.26"/>
      <point x="658.95" y="891.26" type="curve" smooth="yes" name="n33"/>
      <point x="406.31" y="891.26"/>
      <point x="248.262" y="704.62"/>
      <point x="248.262" y="486.6" type="curve" name="n36"/>
    </contour>
  </outline>
</glyph>
<glyph name="seven" format="2">
  <advance width="1160"/>
  <unicode hex="0037"/>
  <outline>
    <contour>
      <point x="99.708" y="1439.96" type="line" name="n00"/>
      <point x="99.708" y="1294.1" type="line" smooth="yes"/>
      <point x="99.708" y="1267.45"/>
      <point x="123.688" y="1243.47"/>
      <point x="150.336" y="1243.47" type="curve" smooth="yes" name="n04"/>
      <point x="1046.32" y="1243.47" type="line"/>
      <point x="890.476" y="1265.45" type="line"/>
      <point x="853.84" y="1230.15"/>
      <point x="827.196" y="1190.85"/>
      <point x="800.552" y="1140.22" type="curve"/>
      <point x="221.1" y="0" type="line" name="n10"/>
      <point x="375.624" y="0" type="line" smooth="yes"/>
      <point x="436.24" y="0"/>
      <point x="470.88" y="33.304"/>
      <point x="490.864" y="74.604" type="curve" smooth="yes"/>
      <point x="1060.32" y="1234.14" type="line" smooth="yes"/>
      <point x="1071.65" y="1258.12"/>
      <point x="1086.97" y="1290.76"/>
      <point x="1086.97" y="1345.38" type="curve" smooth="yes"/>
      <point x="1086.97" y="1439.96" type="line"/>
    </contour>
  </outline>
</glyph>
<glyph name="eight" format="2">
  <advance width="1160.0"/>
  <unicode hex="0038"/>
  <outline>
    <contour>
      <point x="580.0" y="-16.0" type="curve"/>
      <point x="872.6320000000001" y="-16.0"/>
      <point x="1073.28" y="145.98"/>
      <point x="1073.28" y="399.29200000000003" type="curve" smooth="yes"/>
      <point x="1073.28" y="634.66"/>
      <point x="909.896" y="773.292"/>
      <point x="596.0" y="781.956" type="curve"/>
      <point x="596.0" y="711.344" type="line"/>
      <point x="876.62" y="721.344"/>
      <point x="1023.944" y="859.352"/>
      <point x="1023.944" y="1073.328" type="curve" smooth="yes"/>
      <point x="1023.944" y="1289.304"/>
      <point x="843.98" y="1455.96"/>
      <point x="580.0" y="1455.96" type="curve"/>
      <point x="316.02" y="1455.96"/>
      <point x="136.05599999999998" y="1289.304"/>
      <point x="136.05599999999998" y="1073.328" type="curve" smooth="yes"/>
      <point x="136.05599999999998" y="859.352"/>
      <point x="283.38" y="721.344"/>
      <point x="564.0" y="711.344" type="curve"/>
      <point x="564.0" y="781.956" type="line"/>
      <point x="250.10399999999998" y="773.292"/>
      <point x="86.72" y="634.66"/>
      <point x="86.72" y="399.29200000000003" type="curve" smooth="yes"/>
      <point x="86.72" y="145.98"/>
      <point x="287.368" y="-16.0"/>
    </contour>
    <contour>
      <point x="580.0" y="830.576" type="curve"/>
      <point x="406.596" y="830.576"/>
      <point x="345.204" y="947.284"/>
      <point x="345.204" y="1069.332" type="curve" smooth="yes"/>
      <point x="345.204" y="1189.4"/>
      <point x="421.932" y="1292.104"/>
      <point x="580.0" y="1292.104" type="curve"/>
      <point x="738.068" y="1292.104"/>
      <point x="814.796" y="1189.4"/>
      <point x="814.796" y="1069.332" type="curve" smooth="yes"/>
      <point x="814.796" y="947.284"/>
      <point x="753.404" y="830.576"/>
    </contour>
    <contour>
      <point x="580.0" y="153.184" type="curve"/>
      <point x="405.932" y="153.184"/>
      <point x="307.856" y="257.884"/>
      <point x="307.856" y="403.288" type="curve" smooth="yes"/>
      <point x="307.856" y="579.404"/>
      <point x="424.66" y="660.06"/>
      <point x="580.0" y="660.06" type="curve"/>
      <point x="735.34" y="660.06"/>
      <point x="852.144" y="579.404"/>
      <point x="852.144" y="403.288" type="curve" smooth="yes"/>
      <point x="852.144" y="257.884"/>
      <point x="754.068" y="153.184"/>
    </contour>
  </outline>
</glyph>
<glyph name="nine" format="2">
  <advance width="1160"/>
  <unicode hex="0039"/>
  <outline>
    <contour>
      <point x="841.454" y="1008.66" type="curve" smooth="yes"/>
      <point x="841.454" y="865.968"/>
      <point x="742.738" y="745.888"/>
      <point x="567.986" y="745.888" type="curve" smooth="yes" name="n03"/>
      <point x="404.594" y="745.888"/>
      <point x="307.87" y="841.272"/>
      <point x="307.87" y="1012" type="curve" smooth="yes" name="n06"/>
      <point x="307.87" y="1166.74"/>
      <point x="413.266" y="1278.78"/>
      <point x="575.342" y="1278.78" type="curve" smooth="yes" name="n09"/>
      <point x="730.738" y="1278.78"/>
      <point x="841.454" y="1176.72"/>
    </contour>
    <contour>
      <point x="856.782" y="973.36" type="line" name="n12"/>
      <point x="854.778" y="812.032"/>
      <point x="788.774" y="708.712"/>
      <point x="677.446" y="565.364" type="curve" smooth="yes"/>
      <point x="234.818" y="0" type="line" name="n16"/>
      <point x="431.974" y="0" type="line" smooth="yes"/>
      <point x="481.262" y="0"/>
      <point x="522.558" y="21.312"/>
      <point x="542.542" y="49.956" type="curve" smooth="yes"/>
      <point x="881.926" y="536.716" type="line"/>
      <point x="983.938" y="680.74"/>
      <point x="1046.61" y="812.712"/>
      <point x="1046.61" y="985.336" type="curve" smooth="yes"/>
      <point x="1046.61" y="1263.32"/>
      <point x="863.95" y="1455.96"/>
      <point x="578.006" y="1455.96" type="curve" smooth="yes" name="n27"/>
      <point x="291.382" y="1455.96"/>
      <point x="93.394" y="1250"/>
      <point x="93.394" y="996.016" type="curve" smooth="yes" name="n30"/>
      <point x="93.394" y="726.056"/>
      <point x="286.69" y="582.032"/>
      <point x="494.062" y="582.032" type="curve" smooth="yes" name="n33"/>
      <point x="716.722" y="582.032"/>
      <point x="900.074" y="728.044"/>
      <point x="900.074" y="973.36" type="curve" name="n36"/>
    </contour>
  </outline>
</glyph>
<glyph name="less" format="2">
  <advance width="1160"/>
  <unicode hex="003C"/>
  <outline>
    <contour>
      <point x="156.362" y="717.292" type="line"/>
      <point x="156.362" y="651.348" type="line"/>
      <point x="298.91" y="652.016"/>
      <point x="412.818" y="665.014"/>
      <point x="496.09" y="707.316" type="curve" smooth="yes"/>
      <point x="899.996" y="912.77" type="line" smooth="yes"/>
      <point x="928.648" y="927.096"/>
      <point x="939.642" y="947.414"/>
      <point x="939.642" y="971.732" type="curve" smooth="yes"/>
      <point x="939.642" y="1125.26" type="line" name="n09"/>
    </contour>
    <contour>
      <point x="156.362" y="629.368" type="line"/>
      <point x="939.642" y="221.404" type="line" name="n11"/>
      <point x="939.642" y="374.928" type="line" smooth="yes"/>
      <point x="939.642" y="399.246"/>
      <point x="928.648" y="419.564"/>
      <point x="899.996" y="433.89" type="curve" smooth="yes"/>
      <point x="496.09" y="639.344" type="line" smooth="yes"/>
      <point x="412.818" y="681.98"/>
      <point x="298.91" y="694.644"/>
      <point x="156.362" y="695.312" type="curve"/>
    </contour>
  </outline>
</glyph>
<glyph name="equal" format="2">
  <advance width="1160.0"/>
  <unicode hex="003D"/>
  <outline>
    <contour>
      <point x="143.37" y="420.1" type="line"/>
      <point x="1016.63" y="420.1" type="line"/>
      <point x="1016.63" y="581.292" type="line"/>
      <point x="143.37" y="581.292" type="line"/>
    </contour>
    <contour>
      <point x="143.37" y="764.716" type="line"/>
      <point x="1016.63" y="764.716" type="line"/>
      <point x="1016.63" y="925.908" type="line"/>
      <point x="143.37" y="925.908" type="line"/>
    </contour>
  </outline>
</glyph>
<glyph name="greater" format="2">
  <advance width="1160.0"/>
  <unicode hex="003E"/>
  <outline>
    <contour>
      <point x="1003.638" y="629.3679999999999" type="line"/>
      <point x="1003.638" y="695.312" type="line"/>
      <point x="861.09" y="694.644"/>
      <point x="747.182" y="681.646"/>
      <point x="663.91" y="639.344" type="curve" smooth="yes"/>
      <point x="260.004" y="433.89" type="line" smooth="yes"/>
      <point x="231.352" y="419.564"/>
      <point x="220.358" y="399.246"/>
      <point x="220.358" y="374.928" type="curve" smooth="yes"/>
      <point x="220.358" y="221.404" type="line"/>
    </contour>
    <contour>
      <point x="1003.638" y="717.292" type="line"/>
      <point x="220.358" y="1125.256" type="line"/>
      <point x="220.358" y="971.732" type="line" smooth="yes"/>
      <point x="220.358" y="947.414"/>
      <point x="231.352" y="927.096"/>
      <point x="260.004" y="912.77" type="curve" smooth="yes"/>
      <point x="663.91" y="707.316" type="line"/>
      <point x="747.182" y="664.68"/>
      <point x="861.09" y="652.016"/>
      <point x="1003.638" y="651.348" type="curve"/>
    </contour>
  </outline>
</glyph>
<glyph name="question" format="2">
  <advance width="907.9300000000001"/>
  <unicode hex="003F"/>
  <outline>
    <contour>
      <point x="132.312" y="1220.052" type="line"/>
      <point x="142.304" y="1202.068"/>
      <point x="157.624" y="1193.408"/>
      <point x="177.608" y="1193.408" type="curve" smooth="yes"/>
      <point x="214.248" y="1193.408"/>
      <point x="272.28" y="1281.448"/>
      <point x="428.312" y="1281.448" type="curve" smooth="yes"/>
      <point x="540.352" y="1281.448"/>
      <point x="625.744" y="1215.416"/>
      <point x="625.744" y="1110.688" type="curve" smooth="yes"/>
      <point x="625.744" y="876.628"/>
      <point x="303.73199999999997" y="855.284"/>
      <point x="325.044" y="669.98" type="curve" smooth="yes"/>
      <point x="339.696" y="505.304" type="line"/>
      <point x="486.23199999999997" y="505.304" type="line"/>
      <point x="506.884" y="654.66" type="line"/>
      <point x="526.8679999999999" y="785.34"/>
      <point x="825.568" y="818.012"/>
      <point x="825.568" y="1122.676" type="curve" smooth="yes"/>
      <point x="825.568" y="1325.984"/>
      <point x="668.236" y="1455.96"/>
      <point x="446.96" y="1455.96" type="curve" smooth="yes"/>
      <point x="281.652" y="1455.96"/>
      <point x="163.672" y="1389.292"/>
      <point x="75.696" y="1310.636" type="curve"/>
    </contour>
    <component base="period" xOffset="169.976"/>
  </outline>
</glyph>
<glyph name="at" format="2">
  <advance width="1680"/>
  <unicode hex="0040"/>
  <outline>
    <contour>
      <point x="1187.99" y="184.672" type="curve" smooth="yes"/>
      <point x="1420.61" y="184.672"/>
      <point x="1596.59" y="404.64"/>
      <point x="1596.59" y="691.312" type="curve" smooth="yes" name="n03"/>
      <point x="1596.59" y="1118.65"/>
      <point x="1255.29" y="1371.27"/>
      <point x="881.314" y="1371.27" type="curve" smooth="yes" name="n06"/>
      <point x="441.358" y="1371.27"/>
      <point x="97.37" y="1007.31"/>
      <point x="97.37" y="575.956" type="curve" smooth="yes" name="n09"/>
      <point x="97.37" y="67.3"/>
      <point x="453.354" y="-239.996"/>
      <point x="925.966" y="-239.996" type="curve" smooth="yes" name="n12"/>
      <point x="1159.27" y="-239.996"/>
      <point x="1342.6" y="-178.672"/>
      <point x="1482.61" y="-85.996" type="curve"/>
      <point x="1452.64" y="-7.73" type="line" smooth="yes"/>
      <point x="1442.31" y="20.248"/>
      <point x="1417" y="28.576"/>
      <point x="1386.35" y="10.588" type="curve" smooth="yes"/>
      <point x="1282.97" y="-50.784"/>
      <point x="1129.95" y="-99.448"/>
      <point x="925.966" y="-99.448" type="curve" smooth="yes" name="n22"/>
      <point x="549.278" y="-99.448"/>
      <point x="253.902" y="131.248"/>
      <point x="253.902" y="575.956" type="curve" smooth="yes" name="n25"/>
      <point x="253.902" y="948.032"/>
      <point x="527.962" y="1231.39"/>
      <point x="881.314" y="1231.39" type="curve" smooth="yes" name="n28"/>
      <point x="1204.66" y="1231.39"/>
      <point x="1442.73" y="1048.71"/>
      <point x="1442.73" y="691.312" type="curve" smooth="yes" name="n31"/>
      <point x="1442.73" y="471.912"/>
      <point x="1340.01" y="319.224"/>
      <point x="1219.29" y="319.224" type="curve" smooth="yes"/>
      <point x="1140.6" y="319.224"/>
      <point x="1085.23" y="359.896"/>
      <point x="1132.59" y="544.66" type="curve" smooth="yes"/>
      <point x="1227.25" y="911.296" type="line"/>
      <point x="1163.27" y="939.288"/>
      <point x="1097.27" y="954.616"/>
      <point x="1000.65" y="954.616" type="curve" smooth="yes" name="n41"/>
      <point x="656.038" y="954.616"/>
      <point x="482.698" y="694.628"/>
      <point x="482.698" y="467.296" type="curve" smooth="yes" name="n44"/>
      <point x="482.698" y="306.66"/>
      <point x="562.682" y="186.676"/>
      <point x="725.326" y="186.676" type="curve" smooth="yes"/>
      <point x="869.314" y="186.676"/>
      <point x="987.31" y="266.68"/>
      <point x="1082.61" y="477.992" type="curve"/>
      <point x="988.026" y="426.02" type="line"/>
      <point x="978.674" y="258.036"/>
      <point x="1063.96" y="184.672"/>
    </contour>
    <contour>
      <point x="1055.39" y="866.008" type="line"/>
      <point x="966.73" y="523.352" type="line" smooth="yes"/>
      <point x="926.702" y="369.244"/>
      <point x="843.322" y="326.556"/>
      <point x="767.954" y="326.556" type="curve" smooth="yes" name="n58"/>
      <point x="690.574" y="326.556"/>
      <point x="649.222" y="382.596"/>
      <point x="649.222" y="472.624" type="curve" smooth="yes" name="n61"/>
      <point x="649.222" y="649.992"/>
      <point x="784.59" y="818.732"/>
      <point x="966.018" y="818.732" type="curve" smooth="yes" name="n64"/>
      <point x="1023.36" y="818.732"/>
      <point x="1070.01" y="808.068"/>
      <point x="1115.35" y="787.408" type="curve"/>
    </contour>
  </outline>
  <guideline angle="0" x="0" y="700"/>
  <guideline angle="90" x="840" y="0"/>
</glyph>
<glyph name="B" format="2">
  <advance width="1305.6"/>
  <unicode hex="0042"/>
  <anchor x="648.292" y="-70.0" name="bottom"/>
  <anchor x="596.652" y="1515.314" name="Top"/>
  <anchor x="293.952" y="409.612" name="Bar"/>
  <anchor x="596.652" y="1515.314" name="top"/>
  <outline>
    <contour>
      <point x="698.618" y="0.0" type="line" smooth="yes"/>
      <point x="1027.242" y="0.0"/>
      <point x="1213.89" y="172.624"/>
      <point x="1213.89" y="417.284" type="curve" smooth="yes"/>
      <point x="1213.89" y="644.608"/>
      <point x="1035.894" y="762.62"/>
      <point x="685.306" y="762.62" type="curve"/>
      <point x="634.71" y="704.008" type="line"/>
      <point x="1005.21" y="704.008"/>
      <point x="1169.202" y="866.676"/>
      <point x="1169.202" y="1059.992" type="curve" smooth="yes"/>
      <point x="1169.202" y="1294.648"/>
      <point x="1016.542" y="1439.96"/>
      <point x="649.946" y="1439.96" type="curve" smooth="yes"/>
      <point x="171.394" y="1439.96" type="line"/>
      <point x="171.394" y="0.0" type="line"/>
      <point x="404.51800000000003" y="0.0" type="line"/>
      <point x="404.51800000000003" y="1257.456" type="line"/>
      <point x="649.946" y="1257.456" type="line" smooth="yes"/>
      <point x="846.034" y="1257.456"/>
      <point x="936.746" y="1190.7359999999999"/>
      <point x="936.746" y="1032.02" type="curve" smooth="yes"/>
      <point x="936.746" y="888.016"/>
      <point x="838.066" y="806.58"/>
      <point x="638.634" y="806.58" type="curve"/>
      <point x="381.866" y="806.58" type="line"/>
      <point x="381.866" y="642.724" type="line"/>
      <point x="693.958" y="642.724" type="line" smooth="yes"/>
      <point x="894.018" y="642.724"/>
      <point x="983.43" y="558.68"/>
      <point x="983.43" y="422.612" type="curve" smooth="yes"/>
      <point x="983.43" y="288.516"/>
      <point x="904.682" y="183.836"/>
      <point x="694.622" y="183.836" type="curve" smooth="yes"/>
      <point x="372.538" y="183.836" type="line"/>
      <point x="263.978" y="0.0" type="line"/>
    </contour>
  </outline>
</glyph>
<glyph name="C" format="2">
  <advance width="1329"/>
  <unicode hex="0043"/>
  <anchor x="712.688" y="718.648" name="Slash"/>
  <anchor x="811.336" y="1515.31" name="Top"/>
  <anchor x="743.282" y="-70" name="bottom"/>
  <anchor x="811.336" y="1515.31" name="top"/>
  <outline>
    <contour>
      <point x="1170.76" y="320.202" type="curve" smooth="yes"/>
      <point x="1156.44" y="320.202"/>
      <point x="1143.12" y="312.874"/>
      <point x="1131.46" y="302.548" type="curve" smooth="yes"/>
      <point x="1037.43" y="218.518"/>
      <point x="948.732" y="183.82"/>
      <point x="789.996" y="183.82" type="curve" smooth="yes" name="n06"/>
      <point x="529.232" y="183.82"/>
      <point x="323.836" y="380.552"/>
      <point x="323.836" y="719.98" type="curve" smooth="yes" name="n09"/>
      <point x="323.836" y="1056.07"/>
      <point x="516.578" y="1254.81"/>
      <point x="792.014" y="1254.81" type="curve" smooth="yes" name="n12"/>
      <point x="1028.73" y="1254.81"/>
      <point x="1095.79" y="1135.44"/>
      <point x="1150.09" y="1135.44" type="curve" smooth="yes"/>
      <point x="1175.4" y="1135.44"/>
      <point x="1188.73" y="1147.43"/>
      <point x="1198.72" y="1162.08" type="curve" smooth="yes"/>
      <point x="1275.98" y="1270.65" type="line"/>
      <point x="1160.3" y="1382.31"/>
      <point x="1000.32" y="1455.96"/>
      <point x="793.346" y="1455.96" type="curve" smooth="yes" name="n22"/>
      <point x="374.034" y="1455.96"/>
      <point x="85.384" y="1153.31"/>
      <point x="85.384" y="719.98" type="curve" smooth="yes" name="n25"/>
      <point x="85.384" y="288.636"/>
      <point x="355.388" y="-16"/>
      <point x="775.344" y="-16" type="curve" smooth="yes" name="n28"/>
      <point x="1012.67" y="-16"/>
      <point x="1179.98" y="64"/>
      <point x="1296.65" y="204.64" type="curve"/>
      <point x="1204.4" y="305.214" type="line" smooth="yes"/>
      <point x="1194.41" y="315.872"/>
      <point x="1182.42" y="320.202"/>
    </contour>
  </outline>
</glyph>
<glyph name="D" format="2">
  <advance width="1521"/>
  <unicode hex="0044"/>
  <anchor x="682.014" y="1515.31" name="Top"/>
  <anchor x="686.006" y="-91.978" name="bottom"/>
  <anchor x="682.014" y="1515.31" name="top"/>
  <outline>
    <contour>
      <point x="1435.28" y="719.98" type="curve" smooth="yes" name="n00"/>
      <point x="1435.28" y="1146"/>
      <point x="1145.97" y="1439.96"/>
      <point x="715.35" y="1439.96" type="curve" smooth="yes" name="n03"/>
      <point x="171.394" y="1439.96" type="line" name="n04"/>
      <point x="171.394" y="0" type="line"/>
      <point x="715.35" y="0" type="line" smooth="yes" name="n06"/>
      <point x="1145.97" y="0"/>
      <point x="1435.28" y="292.632"/>
    </contour>
    <contour>
      <point x="1196.16" y="719.98" type="curve" smooth="yes" name="n09"/>
      <point x="1196.16" y="385.88"/>
      <point x="1010.09" y="187.832"/>
      <point x="715.35" y="187.832" type="curve" smooth="yes" name="n12"/>
      <point x="405.85" y="187.832" type="line"/>
      <point x="405.85" y="1252.13" type="line" name="n14"/>
      <point x="715.35" y="1252.13" type="line" smooth="yes" name="n15"/>
      <point x="1010.09" y="1252.13"/>
      <point x="1196.16" y="1052.75"/>
    </contour>
  </outline>
</glyph>
<glyph name="E" format="2">
  <advance width="1152.346"/>
  <unicode hex="0045"/>
  <anchor x="634.014" y="1515.314" name="Top"/>
  <anchor x="654.352" y="-70.0" name="bottom"/>
  <anchor x="-98.626" y="1120.0" name="onRight"/>
  <anchor x="613.654" y="718.648" name="Slash"/>
  <anchor x="634.014" y="1515.314" name="top"/>
  <outline>
    <contour>
      <point x="405.85" y="1439.96" type="line"/>
      <point x="171.394" y="1439.96" type="line"/>
      <point x="171.394" y="0.0" type="line"/>
      <point x="405.85" y="0.0" type="line"/>
    </contour>
    <contour>
      <point x="381.866" y="816.572" type="line"/>
      <point x="381.866" y="634.732" type="line"/>
      <point x="935.994" y="634.732" type="line"/>
      <point x="935.994" y="816.572" type="line"/>
    </contour>
    <contour>
      <point x="381.866" y="1439.96" type="line"/>
      <point x="381.866" y="1251.46" type="line"/>
      <point x="1069.314" y="1251.46" type="line"/>
      <point x="1069.314" y="1439.96" type="line"/>
    </contour>
    <contour>
      <point x="381.866" y="188.5" type="line"/>
      <point x="381.866" y="0.0" type="line"/>
      <point x="1069.314" y="0.0" type="line"/>
      <point x="1069.982" y="188.5" type="line"/>
    </contour>
  </outline>
</glyph>
<glyph name="F" format="2">
  <advance width="1131"/>
  <unicode hex="0046"/>
  <anchor x="629.008" y="1515.31" name="Top"/>
  <anchor x="506.05" y="-70" name="bottom"/>
  <anchor x="629.008" y="1515.31" name="top"/>
  <outline>
    <contour>
      <point x="405.85" y="1439.96" type="line" name="n00"/>
      <point x="171.394" y="1439.96" type="line"/>
      <point x="171.394" y="0" type="line" name="n02"/>
      <point x="405.85" y="0" type="line"/>
    </contour>
    <contour>
      <point x="381.866" y="789.912" type="line" name="n04"/>
      <point x="381.866" y="601.412" type="line" name="n05"/>
      <point x="969.314" y="601.412" type="line"/>
      <point x="969.314" y="789.912" type="line"/>
    </contour>
    <contour>
      <point x="381.866" y="1439.96" type="line" name="n08"/>
      <point x="381.866" y="1251.46" type="line" name="n09"/>
      <point x="1069.31" y="1251.46" type="line"/>
      <point x="1069.31" y="1439.96" type="line"/>
    </contour>
  </outline>
</glyph>
<glyph name="G" format="2">
  <advance width="1456.356"/>
  <unicode hex="0047"/>
  <anchor x="827.012" y="1515.314" name="Top"/>
  <anchor x="827.012" y="1515.314" name="top"/>
  <anchor x="837.66" y="-70.0" name="bottom"/>
  <outline>
    <contour>
      <point x="1350.316" y="139.332" type="curve"/>
      <point x="1350.316" y="708.56" type="line"/>
      <point x="889.096" y="708.56" type="line"/>
      <point x="889.096" y="576.016" type="line" smooth="yes"/>
      <point x="889.096" y="550.704"/>
      <point x="908.4159999999999" y="531.384"/>
      <point x="938.392" y="531.384" type="curve" smooth="yes"/>
      <point x="1139.172" y="531.384" type="line"/>
      <point x="1139.172" y="116.01599999999999" type="line"/>
      <point x="1207.112" y="281.204" type="line"/>
      <point x="1092.412" y="215.17600000000002"/>
      <point x="992.7139999999999" y="171.83200000000002"/>
      <point x="843.662" y="171.83200000000002" type="curve" smooth="yes"/>
      <point x="526.554" y="171.83200000000002"/>
      <point x="322.172" y="375.228"/>
      <point x="322.172" y="719.98" type="curve" smooth="yes"/>
      <point x="322.172" y="1046.088"/>
      <point x="515.572" y="1254.808"/>
      <point x="819.008" y="1254.808" type="curve" smooth="yes"/>
      <point x="1017.8" y="1254.808"/>
      <point x="1105.156" y="1190.72"/>
      <point x="1181.764" y="1145.432" type="curve" smooth="yes"/>
      <point x="1221.064" y="1121.456"/>
      <point x="1256.364" y="1131.448"/>
      <point x="1277.012" y="1164.752" type="curve"/>
      <point x="1343.616" y="1270.652" type="line"/>
      <point x="1222.944" y="1381.984"/>
      <point x="1058.976" y="1455.96"/>
      <point x="827.0" y="1455.96" type="curve" smooth="yes"/>
      <point x="372.364" y="1455.96"/>
      <point x="83.72" y="1155.984"/>
      <point x="83.72" y="719.98" type="curve" smooth="yes"/>
      <point x="83.72" y="288.636"/>
      <point x="384.352" y="-16.0"/>
      <point x="850.322" y="-16.0" type="curve" smooth="yes"/>
      <point x="1040.336" y="-16.0"/>
      <point x="1205.656" y="34.676"/>
    </contour>
  </outline>
</glyph>
<glyph name="I" format="2">
  <advance width="577"/>
  <unicode hex="0049"/>
  <anchor x="291.954" y="1515.31" name="Top"/>
  <anchor x="288.622" y="-70" name="bottom"/>
  <anchor x="-115.286" y="1120" name="onRight"/>
  <anchor x="291.954" y="1515.31" name="top"/>
  <outline>
    <contour>
      <point x="405.85" y="1439.96" type="line" name="n00"/>
      <point x="171.394" y="1439.96" type="line" name="n01"/>
      <point x="171.394" y="0" type="line" name="n02"/>
      <point x="405.85" y="0" type="line"/>
    </contour>
  </outline>
</glyph>
<glyph name="J" format="2">
  <advance width="852"/>
  <unicode hex="004A"/>
  <anchor x="567.318" y="718.648" name="Bar"/>
  <anchor x="578.008" y="1515.31" name="Top"/>
  <anchor x="305.296" y="-70" name="bottom"/>
  <anchor x="578.008" y="1515.31" name="top"/>
  <outline>
    <contour>
      <point x="695.236" y="1439.96" type="line" name="n00"/>
      <point x="462.112" y="1439.96" type="line" name="n01"/>
      <point x="462.112" y="499.952" type="line" smooth="yes"/>
      <point x="462.112" y="271.216"/>
      <point x="372.056" y="178.492"/>
      <point x="207.992" y="178.492" type="curve" smooth="yes" name="n05"/>
      <point x="146.628" y="178.492"/>
      <point x="110.624" y="193.836"/>
      <point x="87.288" y="193.836" type="curve" smooth="yes"/>
      <point x="54.644" y="193.836"/>
      <point x="38.66" y="175.848"/>
      <point x="35.328" y="150.536" type="curve"/>
      <point x="31.332" y="104.58"/>
      <point x="26.668" y="57.292"/>
      <point x="22.672" y="11.336" type="curve"/>
      <point x="95.992" y="-7.332"/>
      <point x="163.316" y="-16"/>
      <point x="231.968" y="-16" type="curve" smooth="yes" name="n17"/>
      <point x="534.568" y="-16"/>
      <point x="695.236" y="183.288"/>
      <point x="695.236" y="505.28" type="curve" smooth="yes"/>
    </contour>
  </outline>
</glyph>
<glyph name="K" format="2">
  <advance width="1349"/>
  <unicode hex="004B"/>
  <anchor x="708.288" y="1515.31" name="Top"/>
  <anchor x="668.266" y="-70" name="bottom"/>
  <anchor x="708.288" y="1515.31" name="top"/>
  <outline>
    <contour>
      <point x="404.518" y="1439.96" type="line" name="n00"/>
      <point x="171.394" y="1439.96" type="line"/>
      <point x="171.394" y="0" type="line" name="n02"/>
      <point x="404.518" y="0" type="line"/>
    </contour>
    <contour>
      <point x="351.23" y="645.392" type="line"/>
      <point x="490.526" y="645.392" type="line" smooth="yes"/>
      <point x="553.194" y="645.392"/>
      <point x="579.178" y="632.06"/>
      <point x="605.182" y="597.4" type="curve"/>
      <point x="1054.75" y="47.3" type="line"/>
      <point x="1075.41" y="17.32"/>
      <point x="1097.39" y="0"/>
      <point x="1154.69" y="0" type="curve" smooth="yes"/>
      <point x="1359.16" y="0" type="line"/>
      <point x="824.974" y="678.004" type="line"/>
      <point x="767.002" y="761.284"/>
      <point x="700.382" y="777.94"/>
      <point x="579.11" y="777.94" type="curve"/>
      <point x="588.41" y="736.64" type="line"/>
      <point x="695.062" y="737.308"/>
      <point x="745.682" y="755.292"/>
      <point x="806.994" y="831.916" type="curve"/>
      <point x="1321.83" y="1439.96" type="line"/>
      <point x="1122.01" y="1439.96" type="line" smooth="yes"/>
      <point x="1073.38" y="1439.96"/>
      <point x="1042.74" y="1426.64"/>
      <point x="1012.75" y="1388" type="curve"/>
      <point x="576.538" y="867.224" type="line"/>
      <point x="551.866" y="835.892"/>
      <point x="521.878" y="823.9"/>
      <point x="471.878" y="823.9" type="curve" smooth="yes"/>
      <point x="353.894" y="823.9" type="line" name="n31"/>
    </contour>
  </outline>
</glyph>
<glyph name="L" format="2">
  <advance width="1033"/>
  <unicode hex="004C"/>
  <anchor x="290.622" y="718.648" name="Bar"/>
  <anchor x="303.94" y="1515.31" name="Top"/>
  <anchor x="563.35" y="-70" name="bottom"/>
  <anchor x="303.94" y="1515.31" name="top"/>
  <outline>
    <contour>
      <point x="404.518" y="1439.96" type="line" name="n00"/>
      <point x="171.394" y="1439.96" type="line"/>
      <point x="171.394" y="0" type="line"/>
      <point x="404.518" y="0" type="line" name="n03"/>
    </contour>
    <contour>
      <point x="381.866" y="195.16" type="line" name="n04"/>
      <point x="381.866" y="0" type="line" name="n05"/>
      <point x="1002.63" y="0" type="line"/>
      <point x="1002.63" y="195.16" type="line"/>
    </contour>
  </outline>
</glyph>
<glyph name="N" format="2">
  <advance width="1534.628"/>
  <unicode hex="004E"/>
  <anchor x="778.332" y="1514.646" name="Top"/>
  <anchor x="778.332" y="1514.646" name="top"/>
  <anchor x="767.314" y="-70.0" name="bottom"/>
  <outline>
    <contour>
      <point x="1197.398" y="339.68" type="line"/>
      <point x="371.882" y="1401.324" type="line"/>
      <point x="346.57" y="1433.964"/>
      <point x="333.246" y="1439.96"/>
      <point x="292.61400000000003" y="1439.96" type="curve" smooth="yes"/>
      <point x="171.394" y="1439.96" type="line"/>
      <point x="171.394" y="0.0" type="line"/>
      <point x="376.54200000000003" y="0.0" type="line"/>
      <point x="376.54200000000003" y="949.056" type="line" smooth="yes"/>
      <point x="376.54200000000003" y="1015.672"/>
      <point x="369.214" y="1109.596"/>
      <point x="353.894" y="1176.212" type="curve"/>
      <point x="338.56600000000003" y="1100.28" type="line"/>
      <point x="1161.752" y="40.966" type="line" smooth="yes"/>
      <point x="1185.398" y="11.658000000000001"/>
      <point x="1207.712" y="0.0"/>
      <point x="1244.014" y="0.0" type="curve" smooth="yes"/>
      <point x="1363.234" y="0.0" type="line"/>
      <point x="1363.234" y="1439.96" type="line"/>
      <point x="1158.086" y="1439.96" type="line"/>
      <point x="1158.086" y="498.232" type="line" smooth="yes"/>
      <point x="1158.086" y="425.624"/>
      <point x="1168.078" y="325.708"/>
      <point x="1183.398" y="253.10000000000002" type="curve"/>
    </contour>
  </outline>
</glyph>
<glyph name="O" format="2">
  <advance width="1609"/>
  <unicode hex="004F"/>
  <anchor x="807.98" y="718.648" name="Slash"/>
  <anchor x="806.312" y="1515.31" name="Top"/>
  <anchor x="805.312" y="-70" name="bottom"/>
  <anchor x="-59.994" y="1120" name="onRight"/>
  <anchor x="806.312" y="1515.31" name="top"/>
  <outline>
    <contour>
      <point x="1524.24" y="719.98" type="curve" smooth="yes" name="n00"/>
      <point x="1524.24" y="1146"/>
      <point x="1234.93" y="1455.96"/>
      <point x="804.312" y="1455.96" type="curve" smooth="yes" name="n03"/>
      <point x="375.028" y="1455.96"/>
      <point x="83.72" y="1146.66"/>
      <point x="83.72" y="719.98" type="curve" smooth="yes" name="n06"/>
      <point x="83.72" y="292.632"/>
      <point x="375.028" y="-15.332"/>
      <point x="804.312" y="-15.332" type="curve" smooth="yes" name="n09"/>
      <point x="1234.93" y="-15.332"/>
      <point x="1524.24" y="292.632"/>
    </contour>
    <contour>
      <point x="1285.12" y="719.98" type="curve" smooth="yes" name="n12"/>
      <point x="1285.12" y="385.88"/>
      <point x="1099.05" y="185.82"/>
      <point x="804.312" y="185.82" type="curve" smooth="yes" name="n15"/>
      <point x="510.244" y="185.82"/>
      <point x="322.172" y="385.88"/>
      <point x="322.172" y="719.98" type="curve" smooth="yes" name="n18"/>
      <point x="322.172" y="1052.75"/>
      <point x="510.244" y="1254.81"/>
      <point x="804.312" y="1254.81" type="curve" smooth="yes" name="n21"/>
      <point x="1099.05" y="1254.81"/>
      <point x="1285.12" y="1052.75"/>
    </contour>
  </outline>
</glyph>
<glyph name="P" format="2">
  <advance width="1220.564"/>
  <unicode hex="0050"/>
  <anchor x="598.95" y="1515.314" name="Top"/>
  <anchor x="290.622" y="975.346" name="Bar"/>
  <anchor x="798.96" y="652.992" name="tick"/>
  <anchor x="598.95" y="1515.314" name="top"/>
  <anchor x="287.956" y="-70.0" name="bottom"/>
  <outline>
    <contour>
      <point x="306.606" y="521.412" type="line"/>
      <point x="619.262" y="521.412" type="line" smooth="yes"/>
      <point x="980.514" y="521.412"/>
      <point x="1167.854" y="713.388"/>
      <point x="1167.854" y="986.68" type="curve" smooth="yes"/>
      <point x="1167.854" y="1256.68"/>
      <point x="994.5260000000001" y="1439.96"/>
      <point x="619.262" y="1439.96" type="curve" smooth="yes"/>
      <point x="171.394" y="1439.96" type="line"/>
      <point x="171.394" y="0.0" type="line"/>
      <point x="404.51800000000003" y="0.0" type="line"/>
      <point x="404.51800000000003" y="1257.456" type="line"/>
      <point x="619.262" y="1257.456" type="line" smooth="yes"/>
      <point x="832.014" y="1257.456"/>
      <point x="934.73" y="1154.76"/>
      <point x="934.73" y="986.68" type="curve" smooth="yes"/>
      <point x="934.73" y="817.304"/>
      <point x="827.994" y="705.248"/>
      <point x="619.262" y="705.248" type="curve" smooth="yes"/>
      <point x="325.922" y="705.248" type="line"/>
    </contour>
  </outline>
</glyph>
<glyph name="Q" format="2">
  <advance width="1609"/>
  <unicode hex="0051"/>
  <anchor x="808.646" y="718.648" name="Slash"/>
  <anchor x="806.978" y="1515.31" name="Top"/>
  <anchor x="805.978" y="-70" name="bottom"/>
  <anchor x="-59.328" y="1120" name="onRight"/>
  <anchor x="806.978" y="1515.31" name="top"/>
  <outline>
    <component base="O" xOffset="0.666"/>
    <contour>
      <point x="1186.92" y="155.916" type="line" name="n00"/>
      <point x="929.814" y="134.6" type="line"/>
      <point x="1266.51" y="-235.416" type="line" smooth="yes"/>
      <point x="1303.81" y="-275.38"/>
      <point x="1347.1" y="-288.704" name="n04"/>
      <point x="1403.72" y="-288.704" type="curve" smooth="yes"/>
      <point x="1596.22" y="-288.704" type="line"/>
    </contour>
  </outline>
</glyph>
<glyph name="R" format="2">
  <advance width="1270.244"/>
  <unicode hex="0052"/>
  <anchor x="606.61" y="1515.314" name="Top"/>
  <anchor x="606.61" y="1515.314" name="top"/>
  <anchor x="683.976" y="-70.0" name="bottom"/>
  <outline>
    <contour>
      <point x="534.606" y="580.096" type="line" smooth="yes"/>
      <point x="587.942" y="580.096"/>
      <point x="609.938" y="566.768"/>
      <point x="631.938" y="533.44" type="curve"/>
      <point x="968.126" y="47.964" type="line" smooth="yes"/>
      <point x="987.45" y="15.984000000000002"/>
      <point x="1017.426" y="0.0"/>
      <point x="1058.062" y="0.0" type="curve" smooth="yes"/>
      <point x="1267.202" y="0.0" type="line"/>
      <point x="878.378" y="550.1" type="line"/>
      <point x="819.0740000000001" y="640.044"/>
      <point x="725.806" y="664.024"/>
      <point x="616.502" y="664.024" type="curve"/>
      <point x="556.622" y="598.744" type="line"/>
      <point x="609.262" y="598.744" type="line" smooth="yes"/>
      <point x="938.546" y="598.744"/>
      <point x="1137.206" y="779.372"/>
      <point x="1137.206" y="1032.684" type="curve" smooth="yes"/>
      <point x="1137.206" y="1278.012"/>
      <point x="973.874" y="1439.96"/>
      <point x="595.294" y="1439.96" type="curve" smooth="yes"/>
      <point x="171.394" y="1439.96" type="line"/>
      <point x="171.394" y="0.0" type="line"/>
      <point x="404.51800000000003" y="0.0" type="line"/>
      <point x="404.51800000000003" y="1257.456" type="line"/>
      <point x="595.294" y="1257.456" type="line" smooth="yes"/>
      <point x="804.03" y="1257.456"/>
      <point x="909.41" y="1172.772"/>
      <point x="909.41" y="1015.3679999999999" type="curve" smooth="yes"/>
      <point x="909.41" y="859.304"/>
      <point x="803.342" y="749.28"/>
      <point x="589.282" y="749.28" type="curve" smooth="yes"/>
      <point x="325.254" y="749.28" type="line"/>
      <point x="295.95" y="580.096" type="line"/>
    </contour>
  </outline>
</glyph>
<glyph name="S" format="2">
  <advance width="1091.3"/>
  <unicode hex="0053"/>
  <anchor x="590.986" y="1515.314" name="Top"/>
  <anchor x="520.978" y="-70.0" name="bottom"/>
  <anchor x="590.986" y="1515.314" name="top"/>
  <outline>
    <contour>
      <point x="981.236" y="1305.972" type="line"/>
      <point x="881.244" y="1401.972"/>
      <point x="738.62" y="1455.96"/>
      <point x="574.648" y="1455.96" type="curve" smooth="yes"/>
      <point x="280.7" y="1455.96"/>
      <point x="115.39599999999999" y="1257.996"/>
      <point x="115.39599999999999" y="1050.692" type="curve" smooth="yes"/>
      <point x="115.39599999999999" y="531.4159999999999"/>
      <point x="790.784" y="736.096"/>
      <point x="790.784" y="411.312" type="curve" smooth="yes"/>
      <point x="790.784" y="266.58"/>
      <point x="692.732" y="177.16"/>
      <point x="525.308" y="177.16" type="curve" smooth="yes"/>
      <point x="315.92" y="177.16"/>
      <point x="237.912" y="314.528"/>
      <point x="176.61599999999999" y="314.528" type="curve" smooth="yes"/>
      <point x="154.632" y="314.528"/>
      <point x="135.316" y="301.872"/>
      <point x="123.324" y="284.552" type="curve" smooth="yes"/>
      <point x="55.388" y="172.66" type="line"/>
      <point x="164.708" y="58.66"/>
      <point x="334.644" y="-16.0"/>
      <point x="518.648" y="-16.0" type="curve" smooth="yes"/>
      <point x="830.608" y="-16.0"/>
      <point x="1009.92" y="188.644"/>
      <point x="1009.92" y="444.616" type="curve" smooth="yes"/>
      <point x="1009.92" y="921.924"/>
      <point x="333.20000000000005" y="767.208"/>
      <point x="333.20000000000005" y="1062.68" type="curve" smooth="yes"/>
      <point x="333.20000000000005" y="1177.4"/>
      <point x="416.576" y="1264.132"/>
      <point x="577.312" y="1264.132" type="curve" smooth="yes"/>
      <point x="750.696" y="1264.132"/>
      <point x="821.356" y="1159.44"/>
      <point x="871.332" y="1159.44" type="curve" smooth="yes"/>
      <point x="895.312" y="1159.44"/>
      <point x="909.968" y="1170.764"/>
      <point x="923.956" y="1194.744" type="curve"/>
    </contour>
  </outline>
</glyph>
<glyph name="T" format="2">
  <advance width="1191.28"/>
  <unicode hex="0054"/>
  <anchor x="598.972" y="1515.314" name="Top"/>
  <anchor x="598.972" y="-70.0" name="bottom"/>
  <anchor x="624.278" y="718.648" name="Slash"/>
  <anchor x="598.972" y="1515.314" name="top"/>
  <outline>
    <contour>
      <point x="712.87" y="1383.34" type="line"/>
      <point x="479.746" y="1383.34" type="line"/>
      <point x="479.746" y="0.0" type="line"/>
      <point x="712.87" y="0.0" type="line"/>
    </contour>
    <contour>
      <point x="29.666" y="1439.96" type="line"/>
      <point x="29.666" y="1246.132" type="line"/>
      <point x="1161.614" y="1246.132" type="line"/>
      <point x="1161.614" y="1439.96" type="line"/>
    </contour>
  </outline>
</glyph>
<glyph name="U" format="2">
  <advance width="1479"/>
  <unicode hex="0055"/>
  <anchor x="739.314" y="1515.31" name="Top"/>
  <anchor x="739.314" y="-70" name="bottom"/>
  <anchor x="739.314" y="1515.31" name="top"/>
  <outline>
    <contour>
      <point x="739.314" y="187.816" type="curve" smooth="yes" name="n00"/>
      <point x="517.234" y="187.816"/>
      <point x="386.518" y="343.892"/>
      <point x="386.518" y="572.616" type="curve" smooth="yes"/>
      <point x="386.518" y="1439.96" type="line" name="n04"/>
      <point x="153.394" y="1439.96" type="line" name="n05"/>
      <point x="153.394" y="571.948" type="line" smooth="yes"/>
      <point x="153.394" y="233.324"/>
      <point x="376.698" y="-16.668"/>
      <point x="739.314" y="-16.668" type="curve" smooth="yes" name="n09"/>
      <point x="1101.93" y="-16.668"/>
      <point x="1325.23" y="233.324"/>
      <point x="1325.23" y="571.948" type="curve" smooth="yes"/>
      <point x="1325.23" y="1439.96" type="line" name="n13"/>
      <point x="1092.11" y="1439.96" type="line" name="n14"/>
      <point x="1092.11" y="571.948" type="line" smooth="yes"/>
      <point x="1092.11" y="343.224"/>
      <point x="961.394" y="187.816"/>
    </contour>
  </outline>
</glyph>
<glyph name="V" format="2">
  <advance width="1373"/>
  <unicode hex="0056"/>
  <anchor x="688.616" y="1515.31" name="Top"/>
  <anchor x="686.284" y="-70" name="bottom"/>
  <anchor x="688.616" y="1515.31" name="top"/>
  <outline>
    <contour>
      <point x="1375.52" y="1439.96" type="line" name="n00"/>
      <point x="1187.69" y="1439.96" type="line" smooth="yes"/>
      <point x="1148.39" y="1439.96"/>
      <point x="1119.75" y="1413.32"/>
      <point x="1109.76" y="1386" type="curve"/>
      <point x="740.246" y="444.296" type="line"/>
      <point x="694.282" y="324.392"/>
      <point x="660.974" y="139.892"/>
      <point x="654.974" y="0" type="curve" name="n08"/>
      <point x="791.522" y="0" type="line"/>
    </contour>
    <contour>
      <point x="581.046" y="0" type="line"/>
      <point x="722.922" y="0" type="line"/>
      <point x="726.246" y="139.892"/>
      <point x="679.618" y="324.392"/>
      <point x="633.654" y="444.296" type="curve"/>
      <point x="262.81" y="1386" type="line" smooth="yes"/>
      <point x="250.154" y="1417.31"/>
      <point x="224.842" y="1439.96"/>
      <point x="184.21" y="1439.96" type="curve" smooth="yes"/>
      <point x="-2.954" y="1439.96" type="line"/>
    </contour>
  </outline>
</glyph>
<glyph name="W" format="2">
  <advance width="2087"/>
  <unicode hex="0057"/>
  <anchor x="1042.62" y="1515.31" name="Top"/>
  <anchor x="1043.62" y="-70" name="bottom"/>
  <anchor x="1042.62" y="1515.31" name="top"/>
  <outline>
    <contour>
      <point x="1017.32" y="1439.96" type="line" smooth="yes" name="n00"/>
      <point x="978.016" y="1439.96"/>
      <point x="948.04" y="1413.32"/>
      <point x="939.38" y="1386" type="curve" smooth="yes"/>
      <point x="630.234" y="460.622" type="line"/>
      <point x="588.934" y="339.386"/>
      <point x="565.284" y="139.892"/>
      <point x="559.284" y="0" type="curve" name="n07"/>
      <point x="681.844" y="0" type="line"/>
      <point x="1022.64" y="1036.31" type="line"/>
      <point x="1052.61" y="1124.57"/>
      <point x="1078.92" y="1283.42"/>
      <point x="1080.92" y="1372.02" type="curve"/>
      <point x="1008.99" y="1372.02" type="line"/>
      <point x="1010.99" y="1283.42"/>
      <point x="1037.3" y="1124.9"/>
      <point x="1067.28" y="1036.31" type="curve"/>
      <point x="1405.4" y="0" type="line"/>
      <point x="1546.61" y="0" type="line"/>
      <point x="1539.28" y="139.892"/>
      <point x="1514.3" y="339.386"/>
      <point x="1471.67" y="460.622" type="curve"/>
      <point x="1163.85" y="1386" type="line"/>
      <point x="1151.2" y="1417.31"/>
      <point x="1125.88" y="1439.96"/>
      <point x="1085.25" y="1439.96" type="curve" smooth="yes"/>
    </contour>
    <contour>
      <point x="471.368" y="0" type="line"/>
      <point x="635.22" y="0" type="line"/>
      <point x="627.888" y="139.892"/>
      <point x="597.578" y="336.722"/>
      <point x="566.934" y="460.622" type="curve"/>
      <point x="297.128" y="1386" type="line"/>
      <point x="288.468" y="1418.64"/>
      <point x="259.16" y="1439.96"/>
      <point x="218.528" y="1439.96" type="curve" smooth="yes"/>
      <point x="23.372" y="1439.96" type="line"/>
    </contour>
    <contour>
      <point x="2063.88" y="1439.96" type="line"/>
      <point x="1881.38" y="1439.96" type="line" smooth="yes"/>
      <point x="1842.08" y="1439.96"/>
      <point x="1810.77" y="1414.65"/>
      <point x="1803.44" y="1386" type="curve"/>
      <point x="1533.63" y="460.622" type="line"/>
      <point x="1502.99" y="338.054"/>
      <point x="1475.34" y="139.892"/>
      <point x="1469.34" y="0" type="curve"/>
      <point x="1615.88" y="0" type="line"/>
    </contour>
  </outline>
  <guideline angle="0" x="0" y="83"/>
</glyph>
<glyph name="X" format="2">
  <advance width="1320.214"/>
  <unicode hex="0058"/>
  <anchor x="659.606" y="1515.314" name="Top"/>
  <anchor x="659.606" y="1515.314" name="top"/>
  <anchor x="659.94" y="-70.0" name="bottom"/>
  <outline>
    <contour>
      <point x="515.406" y="713.332" type="line"/>
      <point x="762.518" y="713.332" type="line"/>
      <point x="319.802" y="1409.976" type="line"/>
      <point x="307.81" y="1429.96"/>
      <point x="295.818" y="1439.96"/>
      <point x="263.174" y="1439.96" type="curve" smooth="yes"/>
      <point x="30.717999999999996" y="1439.96" type="line"/>
    </contour>
    <contour>
      <point x="1293.158" y="1439.96" type="line"/>
      <point x="1070.026" y="1439.96" type="line" smooth="yes"/>
      <point x="1047.374" y="1439.96"/>
      <point x="1032.05" y="1427.964"/>
      <point x="1018.726" y="1405.98" type="curve"/>
      <point x="693.25" y="907.836" type="line"/>
      <point x="655.946" y="845.22"/>
      <point x="651.946" y="789.268"/>
      <point x="650.614" y="713.332" type="curve"/>
      <point x="797.8140000000001" y="713.332" type="line"/>
    </contour>
    <contour>
      <point x="805.142" y="778.612" type="line"/>
      <point x="555.366" y="778.612" type="line"/>
      <point x="1012.09" y="41.972" type="line"/>
      <point x="1024.0819999999999" y="20.656"/>
      <point x="1042.734" y="0.0"/>
      <point x="1075.378" y="0.0" type="curve" smooth="yes"/>
      <point x="1307.834" y="0.0" type="line"/>
    </contour>
    <contour>
      <point x="10.713999999999999" y="0.0" type="line"/>
      <point x="228.518" y="0.0" type="line" smooth="yes"/>
      <point x="257.83000000000004" y="0.0"/>
      <point x="275.15" y="21.32"/>
      <point x="289.14200000000005" y="41.972" type="curve"/>
      <point x="635.29" y="576.116" type="line"/>
      <point x="665.27" y="625.412"/>
      <point x="673.262" y="702.008"/>
      <point x="675.262" y="778.612" type="curve"/>
      <point x="522.734" y="778.612" type="line"/>
    </contour>
  </outline>
</glyph>
<glyph name="Y" format="2">
  <advance width="1273"/>
  <unicode hex="0059"/>
  <anchor x="638.598" y="1515.31" name="Top"/>
  <anchor x="636.6" y="-70" name="bottom"/>
  <anchor x="-195.304" y="1120" name="onRight"/>
  <anchor x="638.598" y="1515.31" name="top"/>
  <outline>
    <contour>
      <point x="1279.16" y="1439.96" type="line" name="n00"/>
      <point x="1072.68" y="1439.96" type="line" smooth="yes"/>
      <point x="1033.38" y="1439.96"/>
      <point x="1008.07" y="1412.65"/>
      <point x="994.742" y="1386.67" type="curve"/>
      <point x="701.564" y="869.792" type="line"/>
      <point x="643.274" y="755.216"/>
      <point x="611.29" y="670.612"/>
      <point x="605.29" y="546.712" type="curve"/>
      <point x="741.838" y="546.712" type="line"/>
    </contour>
    <contour>
      <point x="531.362" y="546.712" type="line"/>
      <point x="673.238" y="546.712" type="line"/>
      <point x="668.57" y="671.944"/>
      <point x="632.924" y="753.884"/>
      <point x="572.968" y="869.792" type="curve"/>
      <point x="278.458" y="1386.67" type="line"/>
      <point x="262.47" y="1417.98"/>
      <point x="239.822" y="1439.96"/>
      <point x="199.19" y="1439.96" type="curve" smooth="yes"/>
      <point x="-5.958" y="1439.96" type="line"/>
    </contour>
    <contour>
      <point x="753.162" y="609.332" type="line" name="n20"/>
      <point x="520.038" y="609.332" type="line" name="n21"/>
      <point x="520.038" y="0" type="line" name="n22"/>
      <point x="753.162" y="0" type="line"/>
    </contour>
  </outline>
  <guideline angle="0" x="0" y="662"/>
</glyph>
<glyph name="Z" format="2">
  <advance width="1207.98"/>
  <unicode hex="005A"/>
  <anchor x="622.982" y="1515.314" name="Top"/>
  <anchor x="627.984" y="-70.0" name="bottom"/>
  <anchor x="622.982" y="1515.314" name="top"/>
  <outline>
    <contour>
      <point x="1124.966" y="1278.764" type="line" smooth="yes"/>
      <point x="1140.29" y="1301.416"/>
      <point x="1148.95" y="1327.396"/>
      <point x="1148.95" y="1353.376" type="curve" smooth="yes"/>
      <point x="1148.95" y="1439.96" type="line"/>
      <point x="977.77" y="1439.96" type="line"/>
      <point x="68.354" y="157.864" type="line"/>
      <point x="55.03" y="138.544"/>
      <point x="46.37" y="115.896"/>
      <point x="46.37" y="91.912" type="curve" smooth="yes"/>
      <point x="46.37" y="0.0" type="line"/>
      <point x="217.55" y="0.0" type="line"/>
    </contour>
    <contour>
      <point x="89.01" y="1439.96" type="line"/>
      <point x="89.01" y="1251.46" type="line"/>
      <point x="1025.058" y="1251.46" type="line"/>
      <point x="1148.95" y="1439.96" type="line"/>
    </contour>
    <contour>
      <point x="168.93" y="188.5" type="line"/>
      <point x="46.37" y="0.0" type="line"/>
      <point x="1133.63" y="0.0" type="line"/>
      <point x="1133.63" y="188.5" type="line"/>
    </contour>
  </outline>
</glyph>
<glyph name="bracketleft" format="2">
  <advance width="620"/>
  <unicode hex="005B"/>
  <outline>
    <contour>
      <point x="563.264" y="1540.63" type="line"/>
      <point x="173.38" y="1540.63" type="line" name="n01"/>
      <point x="173.38" y="1400.08" type="line" name="n02"/>
      <point x="505.308" y="1400.08" type="line" smooth="yes"/>
      <point x="539.284" y="1400.08"/>
      <point x="563.264" y="1425.4"/>
      <point x="563.264" y="1456.04" type="curve" smooth="yes"/>
    </contour>
    <contour>
      <point x="563.264" y="-299.276" type="line"/>
      <point x="563.264" y="-214.688" type="line" smooth="yes"/>
      <point x="563.264" y="-184.044"/>
      <point x="539.284" y="-158.732"/>
      <point x="505.308" y="-158.732" type="curve" smooth="yes"/>
      <point x="173.38" y="-158.732" type="line" name="n12"/>
      <point x="173.38" y="-299.276" type="line" name="n13"/>
    </contour>
    <contour>
      <point x="352.556" y="1540.63" type="line" name="n14"/>
      <point x="173.38" y="1540.63" type="line"/>
      <point x="173.38" y="-299.276" type="line"/>
      <point x="352.556" y="-299.276" type="line"/>
    </contour>
  </outline>
</glyph>
<glyph name="backslash" format="2">
  <advance width="918.588"/>
  <unicode hex="005C"/>
  <outline>
    <contour>
      <point x="650.408" y="-11.387999999999998" type="line" smooth="yes"/>
      <point x="670.392" y="-65.344"/>
      <point x="720.352" y="-92.652"/>
      <point x="765.648" y="-92.652" type="curve" smooth="yes"/>
      <point x="856.232" y="-92.652" type="line"/>
      <point x="264.18399999999997" y="1402.692" type="line"/>
      <point x="245.532" y="1451.984"/>
      <point x="204.9" y="1479.96"/>
      <point x="153.608" y="1479.96" type="curve" smooth="yes"/>
      <point x="62.355999999999995" y="1479.96" type="line"/>
    </contour>
  </outline>
</glyph>
<glyph name="bracketright" format="2">
  <advance width="619.958"/>
  <unicode hex="005D"/>
  <outline>
    <contour>
      <point x="56.694" y="1456.04" type="line"/>
      <point x="56.694" y="1425.396"/>
      <point x="80.674" y="1400.084"/>
      <point x="114.65" y="1400.084" type="curve" smooth="yes"/>
      <point x="446.578" y="1400.084" type="line"/>
      <point x="446.578" y="1540.628" type="line"/>
      <point x="56.694" y="1540.628" type="line"/>
    </contour>
    <contour>
      <point x="446.578" y="-299.276" type="line"/>
      <point x="446.578" y="-158.732" type="line"/>
      <point x="114.65" y="-158.732" type="line" smooth="yes"/>
      <point x="80.674" y="-158.732"/>
      <point x="56.694" y="-184.04399999999998"/>
      <point x="56.694" y="-214.688" type="curve" smooth="yes"/>
      <point x="56.694" y="-299.276" type="line"/>
    </contour>
    <contour>
      <point x="267.402" y="-299.276" type="line"/>
      <point x="446.578" y="-299.276" type="line"/>
      <point x="446.578" y="1540.628" type="line"/>
      <point x="267.402" y="1540.628" type="line"/>
    </contour>
  </outline>
</glyph>
<glyph name="asciicircum" format="2">
  <advance width="1160"/>
  <unicode hex="005E"/>
  <outline>
    <contour>
      <point x="114.76" y="688.044" type="line" name="n00"/>
      <point x="279.276" y="688.044" type="line" smooth="yes"/>
      <point x="309.256" y="688.044"/>
      <point x="328.91" y="704.702"/>
      <point x="337.904" y="726.02" type="curve"/>
      <point x="538.024" y="1137.53" type="line"/>
      <point x="583.99" y="1242.11"/>
      <point x="603.98" y="1317.39"/>
      <point x="605.98" y="1439.96" type="curve" name="n08"/>
      <point x="507.4" y="1439.96" type="line"/>
    </contour>
    <contour>
      <point x="645.94" y="1439.96" type="line"/>
      <point x="552.688" y="1439.96" type="line"/>
      <point x="553.356" y="1317.39"/>
      <point x="572.68" y="1242.78"/>
      <point x="623.308" y="1137.53" type="curve"/>
      <point x="832.752" y="726.02" type="line" smooth="yes"/>
      <point x="843.412" y="704.034"/>
      <point x="862.068" y="688.044"/>
      <point x="888.716" y="688.044" type="curve" smooth="yes"/>
      <point x="1045.24" y="688.044" type="line"/>
    </contour>
  </outline>
</glyph>
<glyph name="underscore" format="2">
  <advance width="926"/>
  <unicode hex="005F"/>
  <outline>
    <contour>
      <point x="68.98" y="-148.092" type="line" name="n00"/>
      <point x="68.98" y="-289.972" type="line" name="n01"/>
      <point x="856.98" y="-289.972" type="line"/>
      <point x="856.98" y="-148.092" type="line"/>
    </contour>
  </outline>
</glyph>
<glyph name="grave" format="2">
  <advance width="800"/>
  <unicode hex="0060"/>
  <anchor x="400" y="1120" name="_top"/>
  <outline>
    <contour>
      <point x="104.144" y="1455.96" type="line" name="n00"/>
      <point x="344.772" y="1196.64" type="line" smooth="yes"/>
      <point x="366.088" y="1173.32"/>
      <point x="384.076" y="1164.66" name="n03"/>
      <point x="416.716" y="1164.66" type="curve" smooth="yes"/>
      <point x="538.608" y="1164.66" type="line"/>
      <point x="393.256" y="1407.32" type="line" smooth="yes"/>
      <point x="374.596" y="1439.97"/>
      <point x="354.608" y="1455.96"/>
      <point x="305.968" y="1455.96" type="curve" smooth="yes"/>
    </contour>
  </outline>
</glyph>
<glyph name="a" format="2">
  <advance width="1005"/>
  <unicode hex="0061"/>
  <anchor x="499.656" y="-70" name="bottom"/>
  <anchor x="885.22" y="154.532" name="hook"/>
  <anchor x="495.302" y="1120" name="top"/>
  <outline>
    <contour>
      <point x="885.22" y="648" type="line" smooth="yes"/>
      <point x="885.22" y="878.652"/>
      <point x="752.596" y="1038.62"/>
      <point x="517.964" y="1038.62" type="curve" smooth="yes" name="n03"/>
      <point x="356.656" y="1038.62"/>
      <point x="220.696" y="984.624"/>
      <point x="106.048" y="877.296" type="curve"/>
      <point x="144.68" y="808.028" type="line"/>
      <point x="158.004" y="786.712"/>
      <point x="178.652" y="768.728"/>
      <point x="207.96" y="768.728" type="curve" smooth="yes"/>
      <point x="279.244" y="768.728"/>
      <point x="324.616" y="866.776"/>
      <point x="491.324" y="866.776" type="curve" smooth="yes" name="n13"/>
      <point x="611.38" y="866.776"/>
      <point x="676.072" y="794.06"/>
      <point x="676.072" y="648" type="curve" smooth="yes"/>
      <point x="676.072" y="623.678" type="line"/>
      <point x="885.22" y="623.678" type="line"/>
    </contour>
    <contour>
      <point x="885.22" y="0" type="line" name="n19"/>
      <point x="885.22" y="639.004" type="line"/>
      <point x="676.072" y="639.004" type="line"/>
      <point x="676.072" y="201.98" type="line"/>
      <point x="715.372" y="47.968" type="line"/>
      <point x="728.692" y="9.996"/>
      <point x="748.012" y="0"/>
      <point x="789.312" y="0" type="curve" smooth="yes"/>
    </contour>
    <contour>
      <point x="729.364" y="164.024" type="curve"/>
      <point x="729.364" y="164.024"/>
      <point x="702.048" y="284.584"/>
      <point x="702.048" y="284.584" type="curve"/>
      <point x="616.7" y="187.908"/>
      <point x="539.332" y="133.204"/>
      <point x="413.94" y="133.204" type="curve" smooth="yes" name="n33"/>
      <point x="326.58" y="133.204"/>
      <point x="261.864" y="172.568"/>
      <point x="261.864" y="268.628" type="curve" smooth="yes" name="n36"/>
      <point x="261.864" y="371.36"/>
      <point x="376.62" y="439.384"/>
      <point x="707.38" y="447.388" type="curve" name="n39"/>
      <point x="680.74" y="579.276" type="line" name="n40"/>
      <point x="213.428" y="569.276"/>
      <point x="56.712" y="415.992"/>
      <point x="56.712" y="257.972" type="curve" smooth="yes" name="n43"/>
      <point x="56.712" y="74.644"/>
      <point x="182.72" y="-16"/>
      <point x="348.672" y="-16" type="curve" smooth="yes" name="n46"/>
      <point x="516.02" y="-16"/>
      <point x="608.036" y="49.348"/>
    </contour>
  </outline>
</glyph>
<glyph name="b" format="2">
  <advance width="1128"/>
  <unicode hex="0062"/>
  <anchor x="290.572" y="1515.31" name="Top"/>
  <anchor x="237.958" y="1238" name="bar"/>
  <anchor x="570.96" y="-70" name="bottom"/>
  <anchor x="691.298" y="154.532" name="hook"/>
  <anchor x="646.242" y="1120" name="top"/>
  <outline>
    <contour>
      <point x="271.254" y="0" type="line" smooth="yes" name="n00"/>
      <point x="301.234" y="0"/>
      <point x="317.886" y="11.996"/>
      <point x="324.546" y="43.304" type="curve"/>
      <point x="339.202" y="159.686" type="line" name="n04"/>
      <point x="345.862" y="174.346" type="line"/>
      <point x="345.862" y="1479.96" type="line" name="n06"/>
      <point x="131.386" y="1479.96" type="line"/>
      <point x="131.386" y="0" type="line"/>
    </contour>
    <contour>
      <point x="317.214" y="145.368" type="line" name="n09"/>
      <point x="388.55" y="47.336"/>
      <point x="472.578" y="-14.664"/>
      <point x="614.254" y="-14.664" type="curve" smooth="yes" name="n12"/>
      <point x="881.266" y="-14.664"/>
      <point x="1051.25" y="205.994"/>
      <point x="1051.25" y="535.982" type="curve" smooth="yes" name="n15"/>
      <point x="1051.25" y="844.646"/>
      <point x="902.922" y="1035.96"/>
      <point x="665.252" y="1035.96" type="curve" smooth="yes" name="n18"/>
      <point x="503.904" y="1035.96"/>
      <point x="385.898" y="947.956"/>
      <point x="295.234" y="821.272" type="curve"/>
      <point x="320.546" y="695.372" type="line"/>
      <point x="395.894" y="804.08"/>
      <point x="474.606" y="866.776"/>
      <point x="592.658" y="866.776" type="curve" smooth="yes" name="n25"/>
      <point x="745.064" y="866.776"/>
      <point x="830.11" y="763.386"/>
      <point x="830.11" y="527.988" type="curve" smooth="yes" name="n28"/>
      <point x="830.11" y="270.614"/>
      <point x="731.08" y="150.524"/>
      <point x="560.64" y="150.524" type="curve" smooth="yes" name="n31"/>
      <point x="472.92" y="150.524"/>
      <point x="397.222" y="181.88"/>
      <point x="334.53" y="270.608" type="curve"/>
    </contour>
  </outline>
</glyph>
<glyph name="d" format="2">
  <advance width="1128.292"/>
  <unicode hex="0064"/>
  <anchor x="499.7" y="1120.0" name="top"/>
  <anchor x="996.906" y="154.532" name="hook"/>
  <anchor x="889.668" y="1238.0" name="bar"/>
  <anchor x="841.716" y="1515.314" name="Top"/>
  <anchor x="605.342" y="-70.0" name="bottom"/>
  <outline>
    <contour>
      <point x="996.906" y="0.0" type="line"/>
      <point x="996.906" y="1479.96" type="line"/>
      <point x="782.43" y="1479.96" type="line"/>
      <point x="782.43" y="187.702" type="line"/>
      <point x="789.09" y="175.71" type="line"/>
      <point x="811.738" y="41.308" type="line"/>
      <point x="819.73" y="13.324"/>
      <point x="838.382" y="0.0"/>
      <point x="867.03" y="0.0" type="curve" smooth="yes"/>
    </contour>
    <contour>
      <point x="827.062" y="877.26" type="line"/>
      <point x="751.73" y="976.624"/>
      <point x="663.706" y="1038.624"/>
      <point x="516.37" y="1038.624" type="curve" smooth="yes"/>
      <point x="245.69" y="1038.624"/>
      <point x="77.04599999999999" y="809.296"/>
      <point x="77.04599999999999" y="506.648" type="curve" smooth="yes"/>
      <point x="77.04599999999999" y="170.644"/>
      <point x="229.698" y="-14.664"/>
      <point x="458.39" y="-14.664" type="curve" smooth="yes"/>
      <point x="625.71" y="-14.664"/>
      <point x="742.394" y="76.004"/>
      <point x="833.058" y="202.688" type="curve"/>
      <point x="807.746" y="328.588" type="line"/>
      <point x="732.398" y="219.88"/>
      <point x="653.01" y="157.184"/>
      <point x="530.318" y="157.184" type="curve" smooth="yes"/>
      <point x="384.89" y="157.184"/>
      <point x="298.182" y="255.90800000000002"/>
      <point x="298.182" y="506.648" type="curve" smooth="yes"/>
      <point x="298.182" y="748.68"/>
      <point x="398.214" y="873.436"/>
      <point x="565.654" y="873.436" type="curve" smooth="yes"/>
      <point x="656.374" y="873.436"/>
      <point x="731.0699999999999" y="842.08"/>
      <point x="793.762" y="753.352" type="curve"/>
    </contour>
  </outline>
</glyph>
<glyph name="e" format="2">
  <advance width="1062"/>
  <unicode hex="0065"/>
  <anchor x="567.652" y="-70" name="bottom"/>
  <anchor x="979.248" y="154.532" name="hook"/>
  <anchor x="562.652" y="1120" name="top"/>
  <outline>
    <contour>
      <point x="557.992" y="1035.96" type="curve" smooth="yes" name="n00"/>
      <point x="257.356" y="1035.96"/>
      <point x="74.048" y="812.652"/>
      <point x="74.048" y="531.312" type="curve" smooth="yes" name="n03"/>
      <point x="74.048" y="176.672"/>
      <point x="286" y="-14.664"/>
      <point x="568.652" y="-14.664" type="curve" smooth="yes" name="n06"/>
      <point x="713.992" y="-14.664"/>
      <point x="879.304" y="29.364"/>
      <point x="979.248" y="147.968" type="curve"/>
      <point x="917.972" y="226.56" type="line"/>
      <point x="909.312" y="239.216"/>
      <point x="895.324" y="246.544"/>
      <point x="878.004" y="246.544" type="curve" smooth="yes"/>
      <point x="825.38" y="246.544"/>
      <point x="756.016" y="153.188"/>
      <point x="587.3" y="153.188" type="curve" smooth="yes" name="n16"/>
      <point x="402.572" y="153.188"/>
      <point x="285.86" y="273.912"/>
      <point x="285.86" y="531.312" type="curve" smooth="yes" name="n19"/>
      <point x="285.86" y="747.372"/>
      <point x="378.58" y="880.096"/>
      <point x="561.988" y="880.096" type="curve" smooth="yes" name="n22"/>
      <point x="716.696" y="880.096"/>
      <point x="800.1" y="769.4"/>
      <point x="800.1" y="624.624" type="curve" name="n25"/>
      <point x="243.232" y="624.624" type="line" name="n26"/>
      <point x="245.228" y="493.404" type="line" name="n27"/>
      <point x="941.968" y="493.404" type="line" smooth="yes"/>
      <point x="981.268" y="493.404"/>
      <point x="992.596" y="510.724"/>
      <point x="992.596" y="576.664" type="curve" smooth="yes" name="n31"/>
      <point x="992.596" y="868.644"/>
      <point x="809.28" y="1035.96"/>
    </contour>
  </outline>
</glyph>
<glyph name="f" format="2">
  <advance width="709"/>
  <unicode hex="0066"/>
  <anchor x="443.64" y="1515.31" name="Top"/>
  <anchor x="307.608" y="492.706" name="bar"/>
  <anchor x="307.608" y="-70" name="bottom"/>
  <anchor x="414.846" y="154.532" name="hook"/>
  <anchor x="510.302" y="1503.97" name="top"/>
  <outline>
    <contour>
      <point x="414.846" y="0" type="line" name="n00"/>
      <point x="414.846" y="936.656" type="line"/>
      <point x="408.186" y="960.64" type="line"/>
      <point x="408.186" y="1085.34" type="line" smooth="yes" name="n03"/>
      <point x="408.186" y="1247.4"/>
      <point x="483.216" y="1299.43"/>
      <point x="602.568" y="1299.43" type="curve" smooth="yes" name="n06"/>
      <point x="651.932" y="1299.43"/>
      <point x="687.922" y="1300.73"/>
      <point x="690.59" y="1336.05" type="curve"/>
      <point x="695.254" y="1443.95" type="line"/>
      <point x="655.266" y="1456.62"/>
      <point x="612.596" y="1463.28"/>
      <point x="566.604" y="1463.28" type="curve" smooth="yes" name="n13"/>
      <point x="341.34" y="1463.28"/>
      <point x="200.37" y="1325.32"/>
      <point x="200.37" y="1092" type="curve" smooth="yes" name="n16"/>
      <point x="200.37" y="0" type="line"/>
    </contour>
    <contour>
      <point x="686.59" y="851.4" type="line" name="n18"/>
      <point x="686.59" y="1005.93" type="line" name="n19"/>
      <point x="44.35" y="1005.93" type="line"/>
      <point x="44.35" y="918.012" type="line" smooth="yes"/>
      <point x="44.35" y="886.04"/>
      <point x="66.998" y="870.052"/>
      <point x="100.306" y="863.392" type="curve"/>
      <point x="239.67" y="844.74" type="line"/>
      <point x="270.986" y="851.4" type="line"/>
    </contour>
  </outline>
</glyph>
<glyph name="g" format="2">
  <advance width="1049"/>
  <unicode hex="0067"/>
  <anchor x="534.582" y="-421" name="bottom"/>
  <anchor x="518.99" y="1120" name="top"/>
  <outline>
    <contour>
      <point x="495.324" y="1037.29" type="curve" smooth="yes" name="n00"/>
      <point x="266.016" y="1037.29"/>
      <point x="99.388" y="909.292"/>
      <point x="99.388" y="707.976" type="curve" smooth="yes" name="n03"/>
      <point x="99.388" y="507.324"/>
      <point x="266.016" y="378.66"/>
      <point x="495.324" y="378.66" type="curve" smooth="yes" name="n06"/>
      <point x="719.968" y="378.66"/>
      <point x="885.932" y="507.324"/>
      <point x="885.932" y="707.976" type="curve" smooth="yes" name="n09"/>
      <point x="885.932" y="909.292"/>
      <point x="719.968" y="1037.29"/>
    </contour>
    <contour>
      <point x="495.324" y="518.54" type="curve" smooth="yes" name="n12"/>
      <point x="363.932" y="518.54"/>
      <point x="295.216" y="595.248"/>
      <point x="295.216" y="702.648" type="curve" smooth="yes" name="n15"/>
      <point x="295.216" y="814.044"/>
      <point x="363.932" y="885.424"/>
      <point x="495.324" y="885.424" type="curve" smooth="yes" name="n18"/>
      <point x="626.716" y="885.424"/>
      <point x="695.432" y="814.044"/>
      <point x="695.432" y="702.648" type="curve" smooth="yes" name="n21"/>
      <point x="695.432" y="593.916"/>
      <point x="628.052" y="518.54"/>
    </contour>
    <contour>
      <point x="288.012" y="444.644" type="line"/>
      <point x="183.376" y="403.312"/>
      <point x="131.38" y="321.324"/>
      <point x="131.38" y="256.668" type="curve" smooth="yes"/>
      <point x="131.38" y="-61.968"/>
      <point x="794.108" y="169.404"/>
      <point x="794.108" y="-50.028" type="curve" smooth="yes" name="n30"/>
      <point x="794.108" y="-142.1"/>
      <point x="698.676" y="-208.148"/>
      <point x="509.988" y="-208.148" type="curve" smooth="yes" name="n33"/>
      <point x="320.608" y="-208.148"/>
      <point x="241.872" y="-146.768"/>
      <point x="241.872" y="-65.38" type="curve" smooth="yes" name="n36"/>
      <point x="241.872" y="16.652"/>
      <point x="322.552" y="72.672"/>
      <point x="420.584" y="104.684" type="curve"/>
      <point x="274.04" y="126.004" type="line"/>
      <point x="140.704" y="90.664"/>
      <point x="55.368" y="17.984"/>
      <point x="55.368" y="-93.352" type="curve" smooth="yes" name="n43"/>
      <point x="55.368" y="-234.688"/>
      <point x="202.032" y="-362.68"/>
      <point x="505.992" y="-362.68" type="curve" smooth="yes" name="n46"/>
      <point x="811.944" y="-362.68"/>
      <point x="991.932" y="-191.376"/>
      <point x="991.932" y="-14.064" type="curve" smooth="yes"/>
      <point x="991.932" y="369.228"/>
      <point x="315.884" y="139.188"/>
      <point x="315.884" y="316.608" type="curve" smooth="yes" name="n52"/>
      <point x="315.884" y="350.628"/>
      <point x="347.904" y="385.992"/>
      <point x="411.912" y="411.336" type="curve"/>
    </contour>
    <contour>
      <point x="754.62" y="820.756" type="line"/>
      <point x="961.96" y="854.06" type="line" name="n57"/>
      <point x="995.268" y="860.72"/>
      <point x="1009.93" y="876.044"/>
      <point x="1009.93" y="902.692" type="curve" smooth="yes" name="n60"/>
      <point x="1009.93" y="982.616" type="line" name="n61"/>
      <point x="657.36" y="982.616" type="line"/>
    </contour>
  </outline>
  <guideline angle="90" x="534" y="0"/>
</glyph>
<glyph name="h" format="2">
  <advance width="1122.298"/>
  <unicode hex="0068"/>
  <anchor x="587.32" y="718.648" name="Slash"/>
  <anchor x="289.24" y="1515.314" name="Top"/>
  <anchor x="289.24" y="1515.314" name="top"/>
  <anchor x="566.316" y="-70.0" name="bottom"/>
  <outline>
    <contour>
      <point x="345.86199999999997" y="0.0" type="line"/>
      <point x="345.86199999999997" y="1479.96" type="line"/>
      <point x="131.386" y="1479.96" type="line"/>
      <point x="131.386" y="0.0" type="line"/>
    </contour>
    <contour>
      <point x="1001.246" y="0.0" type="line"/>
      <point x="1001.246" y="649.312" type="line"/>
      <point x="786.77" y="649.312" type="line"/>
      <point x="786.77" y="0.0" type="line"/>
    </contour>
    <contour>
      <point x="1001.246" y="649.312" type="line"/>
      <point x="1001.246" y="878.648"/>
      <point x="881.926" y="1035.96"/>
      <point x="658.598" y="1035.96" type="curve" smooth="yes"/>
      <point x="489.274" y="1035.96"/>
      <point x="377.91" y="945.956"/>
      <point x="279.25" y="823.268" type="curve"/>
      <point x="304.562" y="695.372" type="line"/>
      <point x="383.914" y="798.752"/>
      <point x="481.286" y="866.776"/>
      <point x="594.662" y="866.776" type="curve" smooth="yes"/>
      <point x="722.738" y="866.776"/>
      <point x="786.77" y="786.06"/>
      <point x="786.77" y="649.312" type="curve"/>
    </contour>
  </outline>
</glyph>
<glyph name="i" format="2">
  <advance width="494.588"/>
  <unicode hex="0069"/>
  <guideline x="261.304"/>
  <anchor x="354.53200000000004" y="154.532" name="hook"/>
  <anchor x="247.294" y="1515.314" name="Top"/>
  <anchor x="247.294" y="1515.314" name="top"/>
  <anchor x="247.294" y="-70.0" name="bottom"/>
  <outline>
    <contour>
      <point x="140.05599999999998" y="1019.96" type="line"/>
      <point x="140.05599999999998" y="0.0" type="line"/>
      <point x="354.53200000000004" y="0.0" type="line"/>
      <point x="354.53200000000004" y="1019.96" type="line"/>
    </contour>
    <contour>
      <point x="390.54" y="1328.016" type="curve" smooth="yes"/>
      <point x="390.54" y="1407.3"/>
      <point x="323.91200000000003" y="1471.9279999999999"/>
      <point x="245.296" y="1471.9279999999999" type="curve" smooth="yes"/>
      <point x="168.676" y="1471.9279999999999"/>
      <point x="104.048" y="1407.3"/>
      <point x="104.048" y="1328.016" type="curve" smooth="yes"/>
      <point x="104.048" y="1250.732"/>
      <point x="168.676" y="1186.104"/>
      <point x="245.296" y="1186.104" type="curve" smooth="yes"/>
      <point x="323.91200000000003" y="1186.104"/>
      <point x="390.54" y="1250.732"/>
    </contour>
  </outline>
</glyph>
<glyph name="k" format="2">
  <advance width="1043.52"/>
  <unicode hex="006B"/>
  <anchor x="928.912" y="154.532" name="hook"/>
  <anchor x="313.882" y="1515.314" name="Top"/>
  <anchor x="313.882" y="1515.314" name="top"/>
  <anchor x="548.612" y="-70.0" name="bottom"/>
  <outline>
    <contour>
      <point x="131.386" y="1479.96" type="line"/>
      <point x="131.386" y="0.0" type="line"/>
      <point x="345.86199999999997" y="0.0" type="line"/>
      <point x="345.86199999999997" y="1479.96" type="line"/>
    </contour>
    <contour>
      <point x="281.25" y="621.248" type="line"/>
      <point x="322.54200000000003" y="476.70799999999997" type="line"/>
      <point x="399.182" y="476.70799999999997" type="line" smooth="yes"/>
      <point x="439.182" y="476.70799999999997"/>
      <point x="453.846" y="470.70799999999997"/>
      <point x="473.85" y="440.716" type="curve"/>
      <point x="768.7139999999999" y="39.972" type="line" smooth="yes"/>
      <point x="786.706" y="9.992"/>
      <point x="812.022" y="0.0"/>
      <point x="845.998" y="0.0" type="curve" smooth="yes"/>
      <point x="1038.49" y="0.0" type="line"/>
      <point x="671.0060000000001" y="498.672" type="line"/>
      <point x="630.3620000000001" y="562.624"/>
      <point x="585.0540000000001" y="603.264"/>
      <point x="475.126" y="603.264" type="curve"/>
      <point x="475.122" y="537.32" type="line"/>
      <point x="565.062" y="537.32"/>
      <point x="625.682" y="569.96"/>
      <point x="672.9860000000001" y="631.248" type="curve" smooth="yes"/>
      <point x="1017.138" y="1019.96" type="line"/>
      <point x="821.982" y="1019.96" type="line" smooth="yes"/>
      <point x="784.67" y="1019.96"/>
      <point x="762.682" y="1005.968"/>
      <point x="743.358" y="979.984" type="curve"/>
      <point x="457.178" y="652.568" type="line" smooth="yes"/>
      <point x="437.178" y="627.908"/>
      <point x="421.178" y="621.248"/>
      <point x="391.86199999999997" y="621.248" type="curve" smooth="yes"/>
    </contour>
  </outline>
</glyph>
<glyph name="l" format="2">
  <advance width="485"/>
  <unicode hex="006C"/>
  <anchor x="244.962" y="1515.31" name="Top"/>
  <anchor x="249.626" y="737.296" name="bar"/>
  <anchor x="244.964" y="-70" name="bottom"/>
  <anchor x="349.87" y="154.532" name="hook"/>
  <anchor x="244.962" y="1515.31" name="top"/>
  <outline>
    <contour>
      <point x="135.394" y="1479.96" type="line" name="n00"/>
      <point x="135.394" y="0" type="line" name="n01"/>
      <point x="349.87" y="0" type="line"/>
      <point x="349.87" y="1479.96" type="line" name="n03"/>
    </contour>
  </outline>
</glyph>
<glyph name="m" format="2">
  <advance width="1661"/>
  <unicode hex="006D"/>
  <anchor x="838.618" y="-70" name="bottom"/>
  <anchor x="1539.87" y="154.532" name="hook"/>
  <anchor x="858.276" y="1120" name="top"/>
  <outline>
    <contour>
      <point x="345.862" y="0" type="line" name="n00"/>
      <point x="345.862" y="830.588" type="line"/>
      <point x="339.202" y="842.58" type="line"/>
      <point x="316.554" y="978.652" type="line" name="n03"/>
      <point x="308.562" y="1006.64"/>
      <point x="289.91" y="1019.96" name="n05"/>
      <point x="261.262" y="1019.96" type="curve" smooth="yes"/>
      <point x="131.386" y="1019.96" type="line" name="n07"/>
      <point x="131.386" y="0" type="line"/>
    </contour>
    <contour>
      <point x="942.526" y="0" type="line"/>
      <point x="942.526" y="649.312" type="line" name="n10"/>
      <point x="728.05" y="649.312" type="line"/>
      <point x="728.05" y="0" type="line"/>
    </contour>
    <contour>
      <point x="893.902" y="649.312" type="line"/>
      <point x="893.902" y="871.988"/>
      <point x="804.566" y="1035.96"/>
      <point x="612.578" y="1035.96" type="curve" smooth="yes"/>
      <point x="461.262" y="1035.96"/>
      <point x="365.906" y="941.96"/>
      <point x="279.25" y="824.6" type="curve"/>
      <point x="304.562" y="695.372" type="line"/>
      <point x="368.578" y="798.752"/>
      <point x="452.606" y="866.776"/>
      <point x="550.638" y="866.776" type="curve" smooth="yes"/>
      <point x="666.022" y="866.776"/>
      <point x="728.05" y="798.048"/>
      <point x="728.05" y="649.312" type="curve"/>
    </contour>
    <contour>
      <point x="1539.87" y="0" type="line"/>
      <point x="1539.87" y="649.312" type="line" name="n28"/>
      <point x="1325.39" y="649.312" type="line" name="n29"/>
      <point x="1325.39" y="0" type="line"/>
    </contour>
    <contour>
      <point x="1539.87" y="649.312" type="line"/>
      <point x="1539.87" y="895.304"/>
      <point x="1413.87" y="1035.96"/>
      <point x="1193.91" y="1035.96" type="curve" smooth="yes" name="n34"/>
      <point x="1014.59" y="1035.96"/>
      <point x="832.618" y="927.284"/>
      <point x="832.618" y="649.312" type="curve" name="n37"/>
      <point x="942.526" y="649.312" type="line"/>
      <point x="942.526" y="792.068"/>
      <point x="1032.58" y="866.776"/>
      <point x="1140.63" y="866.776" type="curve" smooth="yes" name="n41"/>
      <point x="1260.69" y="866.776"/>
      <point x="1325.39" y="792.06"/>
      <point x="1325.39" y="649.312" type="curve"/>
    </contour>
  </outline>
</glyph>
<glyph name="n" format="2">
  <advance width="1122"/>
  <unicode hex="006E"/>
  <anchor x="566.316" y="-70" name="bottom"/>
  <anchor x="1001.25" y="154.532" name="hook"/>
  <anchor x="569.306" y="1120" name="top"/>
  <outline>
    <contour>
      <point x="345.862" y="0" type="line" name="n00"/>
      <point x="345.862" y="830.588" type="line"/>
      <point x="339.202" y="842.58" type="line"/>
      <point x="316.554" y="978.652" type="line" name="n03"/>
      <point x="308.562" y="1006.64"/>
      <point x="289.91" y="1019.96" name="n05"/>
      <point x="261.262" y="1019.96" type="curve" smooth="yes"/>
      <point x="131.386" y="1019.96" type="line" name="n07"/>
      <point x="131.386" y="0" type="line"/>
    </contour>
    <contour>
      <point x="1001.25" y="0" type="line"/>
      <point x="1001.25" y="649.312" type="line" name="n10"/>
      <point x="786.77" y="649.312" type="line" name="n11"/>
      <point x="786.77" y="0" type="line"/>
    </contour>
    <contour>
      <point x="1001.25" y="649.312" type="line" smooth="yes"/>
      <point x="1001.25" y="878.648"/>
      <point x="881.926" y="1035.96"/>
      <point x="658.598" y="1035.96" type="curve" smooth="yes" name="n16"/>
      <point x="489.274" y="1035.96"/>
      <point x="377.91" y="945.956"/>
      <point x="279.25" y="823.268" type="curve"/>
      <point x="304.562" y="695.372" type="line"/>
      <point x="383.914" y="798.752"/>
      <point x="481.286" y="866.776"/>
      <point x="594.662" y="866.776" type="curve" smooth="yes" name="n23"/>
      <point x="722.738" y="866.776"/>
      <point x="786.77" y="786.06"/>
      <point x="786.77" y="649.312" type="curve" smooth="yes"/>
      <point x="786.77" y="612.652" type="line"/>
      <point x="1001.25" y="612.652" type="line"/>
    </contour>
  </outline>
  <guideline angle="90" x="-1350" y="0"/>
</glyph>
<glyph name="o" format="2">
  <advance width="1141.626"/>
  <unicode hex="006F"/>
  <guideline x="571.292"/>
  <anchor x="572.646" y="1120.0" name="top"/>
  <anchor x="572.646" y="-70.0" name="bottom"/>
  <outline>
    <contour>
      <point x="571.978" y="1035.96" type="curve" smooth="yes"/>
      <point x="269.338" y="1035.96"/>
      <point x="74.714" y="832.628"/>
      <point x="74.714" y="511.312" type="curve" smooth="yes"/>
      <point x="74.714" y="188.664"/>
      <point x="269.338" y="-14.664"/>
      <point x="571.978" y="-14.664" type="curve" smooth="yes"/>
      <point x="873.2860000000001" y="-14.664"/>
      <point x="1066.578" y="188.664"/>
      <point x="1066.578" y="511.312" type="curve" smooth="yes"/>
      <point x="1066.578" y="832.628"/>
      <point x="873.2860000000001" y="1035.96"/>
    </contour>
    <contour>
      <point x="571.978" y="151.856" type="curve" smooth="yes"/>
      <point x="385.23" y="151.856"/>
      <point x="295.85" y="280.588"/>
      <point x="295.85" y="509.98" type="curve" smooth="yes"/>
      <point x="295.85" y="739.372"/>
      <point x="385.23" y="869.44"/>
      <point x="571.978" y="869.44" type="curve" smooth="yes"/>
      <point x="756.062" y="869.44"/>
      <point x="845.442" y="739.372"/>
      <point x="845.442" y="509.98" type="curve" smooth="yes"/>
      <point x="845.442" y="280.588"/>
      <point x="756.062" y="151.856"/>
    </contour>
  </outline>
</glyph>
<glyph name="p" format="2">
  <advance width="1129"/>
  <unicode hex="0070"/>
  <anchor x="240.622" y="-144.346" name="bar"/>
  <anchor x="687.594" y="-70" name="bottom"/>
  <anchor x="781.204" y="154.532" name="hook"/>
  <anchor x="732.332" y="107.27" name="tick"/>
  <anchor x="527.616" y="1120" name="top"/>
  <outline>
    <contour>
      <point x="345.862" y="-338.688" type="line" name="n00"/>
      <point x="345.862" y="833.594" type="line"/>
      <point x="339.202" y="845.586" type="line"/>
      <point x="316.554" y="978.652" type="line" name="n03"/>
      <point x="308.562" y="1006.64"/>
      <point x="289.91" y="1019.96" name="n05"/>
      <point x="261.262" y="1019.96" type="curve" smooth="yes"/>
      <point x="131.386" y="1019.96" type="line"/>
      <point x="131.386" y="-338.688" type="line"/>
    </contour>
    <contour>
      <point x="1051.25" y="517.312" type="curve" smooth="yes" name="n09"/>
      <point x="1051.25" y="853.316"/>
      <point x="898.594" y="1038.62"/>
      <point x="669.902" y="1038.62" type="curve" smooth="yes" name="n12"/>
      <point x="502.582" y="1038.62"/>
      <point x="385.898" y="947.956"/>
      <point x="295.234" y="821.272" type="curve"/>
      <point x="320.546" y="695.372" type="line"/>
      <point x="395.894" y="804.08"/>
      <point x="475.282" y="866.776"/>
      <point x="597.974" y="866.776" type="curve" smooth="yes" name="n19"/>
      <point x="743.402" y="866.776"/>
      <point x="830.11" y="768.052"/>
      <point x="830.11" y="517.312" type="curve" smooth="yes" name="n22"/>
      <point x="830.11" y="275.28"/>
      <point x="730.078" y="150.524"/>
      <point x="562.638" y="150.524" type="curve" smooth="yes" name="n25"/>
      <point x="471.918" y="150.524"/>
      <point x="397.222" y="181.88"/>
      <point x="334.53" y="270.608" type="curve" name="n28"/>
      <point x="301.23" y="146.7" type="line"/>
      <point x="376.562" y="47.336"/>
      <point x="464.586" y="-14.664"/>
      <point x="611.922" y="-14.664" type="curve" smooth="yes" name="n32"/>
      <point x="882.602" y="-14.664"/>
      <point x="1051.25" y="214.664"/>
    </contour>
  </outline>
</glyph>
<glyph name="q" format="2">
  <advance width="1128"/>
  <unicode hex="0071"/>
  <anchor x="605.342" y="-421" name="bottom"/>
  <anchor x="614.346" y="1120" name="top"/>
  <outline>
    <contour>
      <point x="867.03" y="1019.96" type="line" smooth="yes" name="n00"/>
      <point x="838.382" y="1019.96"/>
      <point x="819.73" y="1006.64"/>
      <point x="811.738" y="978.652" type="curve"/>
      <point x="789.09" y="859.948" type="line"/>
      <point x="782.43" y="847.956" type="line" name="n05"/>
      <point x="782.43" y="-338.688" type="line" name="n06"/>
      <point x="996.906" y="-338.688" type="line"/>
      <point x="996.906" y="1019.96" type="line"/>
    </contour>
    <contour>
      <point x="827.062" y="877.26" type="line" name="n09"/>
      <point x="751.73" y="976.624"/>
      <point x="663.706" y="1038.62"/>
      <point x="516.37" y="1038.62" type="curve" smooth="yes" name="n12"/>
      <point x="245.69" y="1038.62"/>
      <point x="77.046" y="809.296"/>
      <point x="77.046" y="506.648" type="curve" smooth="yes" name="n15"/>
      <point x="77.046" y="170.644"/>
      <point x="229.698" y="-14.664"/>
      <point x="458.39" y="-14.664" type="curve" smooth="yes" name="n18"/>
      <point x="625.71" y="-14.664"/>
      <point x="742.394" y="76.004"/>
      <point x="833.058" y="202.688" type="curve"/>
      <point x="807.746" y="328.588" type="line"/>
      <point x="732.398" y="219.88"/>
      <point x="653.01" y="157.184"/>
      <point x="530.318" y="157.184" type="curve" smooth="yes" name="n25"/>
      <point x="384.89" y="157.184"/>
      <point x="298.182" y="255.908"/>
      <point x="298.182" y="506.648" type="curve" smooth="yes" name="n28"/>
      <point x="298.182" y="748.68"/>
      <point x="398.214" y="873.436"/>
      <point x="565.654" y="873.436" type="curve" smooth="yes" name="n31"/>
      <point x="656.374" y="873.436"/>
      <point x="733.408" y="840.076"/>
      <point x="793.762" y="753.352" type="curve"/>
    </contour>
  </outline>
</glyph>
<glyph name="r" format="2">
  <advance width="737.95"/>
  <unicode hex="0072"/>
  <anchor x="421.33" y="1120.0" name="top"/>
  <anchor x="241.954" y="-70.0" name="bottom"/>
  <anchor x="345.86199999999997" y="154.532" name="hook"/>
  <anchor x="243.286" y="492.706" name="bar"/>
  <outline>
    <contour>
      <point x="726.594" y="1008.6320000000001" type="line"/>
      <point x="697.258" y="1028.962"/>
      <point x="657.254" y="1038.624"/>
      <point x="612.594" y="1038.624" type="curve" smooth="yes"/>
      <point x="439.906" y="1038.624"/>
      <point x="337.242" y="889.976"/>
      <point x="270.59000000000003" y="667.972" type="curve"/>
      <point x="316.55" y="549.4" type="line"/>
      <point x="370.228" y="724.796"/>
      <point x="430.26" y="828.812"/>
      <point x="574.6320000000001" y="828.812" type="curve" smooth="yes"/>
      <point x="615.652" y="828.812"/>
      <point x="657.302" y="818.14"/>
      <point x="676.63" y="818.14" type="curve" smooth="yes"/>
      <point x="695.95" y="818.14"/>
      <point x="707.274" y="826.136"/>
      <point x="711.938" y="847.452" type="curve" smooth="yes"/>
    </contour>
    <contour>
      <point x="345.86199999999997" y="0.0" type="line"/>
      <point x="345.86199999999997" y="760.568" type="line"/>
      <point x="339.202" y="772.56" type="line"/>
      <point x="320.55" y="964.0" type="line"/>
      <point x="313.89" y="1005.304"/>
      <point x="300.56600000000003" y="1019.96"/>
      <point x="255.934" y="1019.96" type="curve" smooth="yes"/>
      <point x="131.386" y="1019.96" type="line"/>
      <point x="131.386" y="0.0" type="line"/>
    </contour>
  </outline>
</glyph>
<glyph name="t" format="2">
  <advance width="731"/>
  <unicode hex="0074"/>
  <anchor x="409.61" y="718.648" name="Slash"/>
  <anchor x="303.948" y="492.706" name="bar"/>
  <anchor x="452.638" y="-70" name="bottom"/>
  <anchor x="330.92" y="1437.96" name="top"/>
  <outline>
    <contour>
      <point x="194.378" y="950.644" type="line"/>
      <point x="194.378" y="256.596" type="line" smooth="yes" name="n01"/>
      <point x="194.378" y="84.624"/>
      <point x="289.686" y="-16"/>
      <point x="458.298" y="-16" type="curve" smooth="yes" name="n04"/>
      <point x="554.278" y="-16"/>
      <point x="649.594" y="17.34"/>
      <point x="716.234" y="75.336" type="curve"/>
      <point x="652.294" y="179.236" type="line" smooth="yes"/>
      <point x="643.634" y="193.224"/>
      <point x="636.306" y="199.22"/>
      <point x="622.982" y="199.22" type="curve" smooth="yes"/>
      <point x="600.322" y="199.22"/>
      <point x="575.626" y="158.512"/>
      <point x="507.582" y="158.512" type="curve" smooth="yes" name="n14"/>
      <point x="448.886" y="158.512"/>
      <point x="408.854" y="197.856"/>
      <point x="408.854" y="271.248" type="curve" smooth="yes" name="n17"/>
      <point x="408.854" y="1340.67" type="line" name="n18"/>
      <point x="298.958" y="1340.67" type="line" smooth="yes"/>
      <point x="272.978" y="1340.67"/>
      <point x="255.658" y="1326.01"/>
      <point x="250.33" y="1302.7" type="curve"/>
    </contour>
    <contour>
      <point x="264.994" y="1005.93" type="line"/>
      <point x="233.678" y="1012.59" type="line"/>
      <point x="38.358" y="983.284" type="line"/>
      <point x="38.358" y="897.364" type="line" smooth="yes"/>
      <point x="38.358" y="867.388"/>
      <point x="57.678" y="851.4"/>
      <point x="81.662" y="851.4" type="curve" smooth="yes"/>
      <point x="691.572" y="851.4" type="line" name="n30"/>
      <point x="691.572" y="1005.93" type="line" name="n31"/>
    </contour>
  </outline>
</glyph>
<glyph name="u" format="2">
  <advance width="1122"/>
  <unicode hex="0075"/>
  <anchor x="603.008" y="-70" name="bottom"/>
  <anchor x="990.912" y="154.532" name="hook"/>
  <anchor x="561.65" y="1120" name="top"/>
  <outline>
    <contour>
      <point x="776.436" y="1019.96" type="line" name="n00"/>
      <point x="776.436" y="189.372" type="line"/>
      <point x="783.096" y="177.38" type="line"/>
      <point x="805.744" y="41.308" type="line" name="n03"/>
      <point x="813.736" y="13.324"/>
      <point x="832.388" y="0" name="n05"/>
      <point x="861.036" y="0" type="curve" smooth="yes"/>
      <point x="990.912" y="0" type="line" name="n07"/>
      <point x="990.912" y="1019.96" type="line"/>
    </contour>
    <contour>
      <point x="121.052" y="1019.96" type="line" name="n09"/>
      <point x="121.052" y="370.648" type="line"/>
      <point x="335.528" y="370.648" type="line"/>
      <point x="335.528" y="1019.96" type="line" name="n12"/>
    </contour>
    <contour>
      <point x="121.052" y="370.648" type="line"/>
      <point x="121.052" y="141.312"/>
      <point x="240.372" y="-16"/>
      <point x="463.7" y="-16" type="curve" smooth="yes" name="n16"/>
      <point x="633.024" y="-16"/>
      <point x="744.388" y="74.004"/>
      <point x="843.048" y="196.692" type="curve"/>
      <point x="817.736" y="324.588" type="line"/>
      <point x="738.384" y="221.208"/>
      <point x="641.012" y="153.184"/>
      <point x="527.636" y="153.184" type="curve" smooth="yes" name="n23"/>
      <point x="399.56" y="153.184"/>
      <point x="335.528" y="233.9"/>
      <point x="335.528" y="370.648" type="curve"/>
    </contour>
  </outline>
</glyph>
<glyph name="v" format="2">
  <advance width="1045"/>
  <unicode hex="0076"/>
  <anchor x="522.3" y="-70" name="bottom"/>
  <anchor x="679.826" y="154.532" name="hook"/>
  <anchor x="522.3" y="1120" name="top"/>
  <outline>
    <contour>
      <point x="425.388" y="0" type="line" name="n00"/>
      <point x="557.936" y="0" type="line"/>
      <point x="541.284" y="133.224"/>
      <point x="524.628" y="252.46"/>
      <point x="481.328" y="382.352" type="curve"/>
      <point x="255.164" y="977.988" type="line"/>
      <point x="247.836" y="1001.3"/>
      <point x="224.52" y="1019.96" name="n07"/>
      <point x="191.876" y="1019.96" type="curve" smooth="yes"/>
      <point x="15.372" y="1019.96" type="line"/>
    </contour>
    <contour>
      <point x="1029.23" y="1019.96" type="line"/>
      <point x="860.716" y="1019.96" type="line" smooth="yes"/>
      <point x="831.404" y="1019.96"/>
      <point x="808.088" y="1001.97"/>
      <point x="800.092" y="977.988" type="curve"/>
      <point x="569.932" y="382.352" type="line"/>
      <point x="525.3" y="251.128"/>
      <point x="507.312" y="133.224"/>
      <point x="491.992" y="0" type="curve"/>
      <point x="619.212" y="0" type="line"/>
    </contour>
  </outline>
</glyph>
<glyph name="w" format="2">
  <advance width="1588.5720000000001"/>
  <unicode hex="0077"/>
  <anchor x="796.288" y="1120.0" name="top"/>
  <anchor x="794.2860000000001" y="-70.0" name="bottom"/>
  <outline>
    <contour>
      <point x="351.716" y="0.0" type="line"/>
      <point x="514.896" y="0.0" type="line" smooth="yes"/>
      <point x="538.876" y="0.0"/>
      <point x="554.864" y="13.324"/>
      <point x="562.192" y="39.304" type="curve" smooth="yes"/>
      <point x="768.304" y="674.248" type="line" smooth="yes"/>
      <point x="795.616" y="763.508"/>
      <point x="807.608" y="852.1"/>
      <point x="816.268" y="941.36" type="curve"/>
      <point x="772.972" y="941.36" type="line"/>
      <point x="781.6320000000001" y="852.1"/>
      <point x="793.624" y="764.84"/>
      <point x="820.936" y="675.5799999999999" type="curve"/>
      <point x="1024.38" y="39.304" type="line" smooth="yes"/>
      <point x="1031.708" y="11.992"/>
      <point x="1046.364" y="0.0"/>
      <point x="1065.684" y="0.0" type="curve" smooth="yes"/>
      <point x="1236.856" y="0.0" type="line"/>
      <point x="1563.532" y="1019.96" type="line"/>
      <point x="1401.68" y="1019.96" type="line" smooth="yes"/>
      <point x="1372.368" y="1019.96"/>
      <point x="1349.052" y="1001.972"/>
      <point x="1341.056" y="977.988" type="curve"/>
      <point x="1167.596" y="382.35200000000003" type="line"/>
      <point x="1132.956" y="248.464"/>
      <point x="1118.296" y="134.56"/>
      <point x="1109.636" y="1.3359999999999999" type="curve"/>
      <point x="1168.252" y="0.6679999999999999" type="line"/>
      <point x="1160.924" y="133.892"/>
      <point x="1129.616" y="251.12800000000001"/>
      <point x="1092.312" y="382.35200000000003" type="curve" smooth="yes"/>
      <point x="906.188" y="981.328" type="line" smooth="yes"/>
      <point x="898.86" y="1004.644"/>
      <point x="876.88" y="1021.9639999999999"/>
      <point x="845.572" y="1021.9639999999999" type="curve" smooth="yes"/>
      <point x="751.66" y="1021.9639999999999" type="line" smooth="yes"/>
      <point x="723.016" y="1021.9639999999999"/>
      <point x="701.0360000000001" y="1004.644"/>
      <point x="693.708" y="981.328" type="curve" smooth="yes"/>
      <point x="502.92" y="382.35200000000003" type="line" smooth="yes"/>
      <point x="462.952" y="249.79600000000002"/>
      <point x="431.644" y="134.56"/>
      <point x="416.324" y="1.3359999999999999" type="curve"/>
      <point x="483.596" y="1.3359999999999999" type="line"/>
      <point x="473.604" y="134.56"/>
      <point x="459.612" y="249.79600000000002"/>
      <point x="427.636" y="382.35200000000003" type="curve"/>
      <point x="258.172" y="977.988" type="line" smooth="yes"/>
      <point x="250.84400000000002" y="1001.304"/>
      <point x="227.52800000000002" y="1019.96"/>
      <point x="194.88400000000001" y="1019.96" type="curve" smooth="yes"/>
      <point x="25.04" y="1019.96" type="line"/>
    </contour>
  </outline>
</glyph>
<glyph name="y" format="2">
  <advance width="1044"/>
  <unicode hex="0079"/>
  <anchor x="369.03" y="-421" name="bottom"/>
  <anchor x="547.638" y="1120" name="top"/>
  <outline>
    <contour>
      <point x="458.358" y="2.672" type="line"/>
      <point x="574.922" y="2.672" type="line"/>
      <point x="566.262" y="137.228"/>
      <point x="553.602" y="271.116"/>
      <point x="506.306" y="397.012" type="curve"/>
      <point x="262.826" y="977.988" type="line" smooth="yes"/>
      <point x="254.166" y="999.972"/>
      <point x="235.51" y="1019.96" name="n07"/>
      <point x="200.202" y="1019.96" type="curve" smooth="yes"/>
      <point x="13.042" y="1019.96" type="line"/>
    </contour>
    <contour>
      <point x="1035.56" y="1019.96" type="line"/>
      <point x="864.382" y="1019.96" type="line" smooth="yes"/>
      <point x="837.734" y="1019.96"/>
      <point x="813.086" y="1001.97"/>
      <point x="803.758" y="977.988" type="curve" smooth="yes"/>
      <point x="570.934" y="398.344" type="line"/>
      <point x="542.954" y="325.064"/>
      <point x="518.97" y="247.12"/>
      <point x="508.978" y="171.176" type="curve"/>
      <point x="460.354" y="135.22" type="line"/>
      <point x="241.07" y="-338.688" type="line" name="n20"/>
      <point x="400.258" y="-338.688" type="line" smooth="yes"/>
      <point x="442.894" y="-338.688"/>
      <point x="460.218" y="-321.36"/>
      <point x="473.542" y="-290.048" type="curve" smooth="yes"/>
    </contour>
  </outline>
</glyph>
<glyph name="z" format="2">
  <advance width="912"/>
  <unicode hex="007A"/>
  <anchor x="454.986" y="-70" name="bottom"/>
  <anchor x="776.314" y="154.532" name="hook"/>
  <anchor x="478.644" y="1120" name="top"/>
  <outline>
    <contour>
      <point x="849.948" y="1019.96" type="line"/>
      <point x="84.688" y="1019.96" type="line" name="n01"/>
      <point x="84.688" y="853.44" type="line" name="n02"/>
      <point x="659.452" y="853.44" type="line"/>
      <point x="618.152" y="872.76" type="line"/>
      <point x="83.328" y="165.188" type="line" smooth="yes"/>
      <point x="64.676" y="140.54"/>
      <point x="54.684" y="109.236"/>
      <point x="54.684" y="89.916" type="curve" smooth="yes"/>
      <point x="54.684" y="0" type="line"/>
      <point x="833.268" y="0" type="line" name="n10"/>
      <point x="833.268" y="166.52" type="line" name="n11"/>
      <point x="255.836" y="166.52" type="line"/>
      <point x="286.48" y="142.536" type="line"/>
      <point x="821.304" y="848.776" type="line"/>
      <point x="838.624" y="868.096"/>
      <point x="849.948" y="899.4"/>
      <point x="849.948" y="930.04" type="curve" smooth="yes"/>
    </contour>
  </outline>
</glyph>
<glyph name="braceleft" format="2">
  <advance width="607"/>
  <unicode hex="007B"/>
  <outline>
    <contour>
      <point x="190.076" y="824.64" type="curve" smooth="yes" name="n00"/>
      <point x="190.076" y="741.964"/>
      <point x="148.044" y="683.956"/>
      <point x="62.032" y="683.956" type="curve"/>
      <point x="62.032" y="557.396" type="line"/>
      <point x="153.964" y="612.016" type="line"/>
      <point x="281.904" y="612.016"/>
      <point x="371.916" y="706.644"/>
      <point x="371.916" y="827.304" type="curve" smooth="yes" name="n08"/>
      <point x="371.916" y="955.992"/>
      <point x="330.556" y="1077.35"/>
      <point x="330.556" y="1225.35" type="curve" smooth="yes" name="n11"/>
      <point x="330.556" y="1332.72"/>
      <point x="387.26" y="1400.08"/>
      <point x="484.62" y="1400.08" type="curve" smooth="yes" name="n14"/>
      <point x="499.316" y="1400.08" type="line" smooth="yes"/>
      <point x="516.64" y="1400.08"/>
      <point x="545.948" y="1413.41"/>
      <point x="545.948" y="1444.72" type="curve" smooth="yes"/>
      <point x="545.948" y="1540.63" type="line"/>
      <point x="492.612" y="1540.63" type="line" smooth="yes" name="n20"/>
      <point x="257.372" y="1540.63"/>
      <point x="143.388" y="1406.65"/>
      <point x="143.388" y="1212.03" type="curve" smooth="yes" name="n23"/>
      <point x="143.388" y="1078.01"/>
      <point x="190.076" y="954"/>
    </contour>
    <contour>
      <point x="190.076" y="416.712" type="curve" smooth="yes"/>
      <point x="190.076" y="287.352"/>
      <point x="143.388" y="163.344"/>
      <point x="143.388" y="29.32" type="curve" smooth="yes"/>
      <point x="143.388" y="-165.296"/>
      <point x="257.372" y="-299.276"/>
      <point x="492.612" y="-299.276" type="curve" smooth="yes" name="n32"/>
      <point x="545.948" y="-299.276" type="line"/>
      <point x="545.948" y="-203.364" type="line" smooth="yes"/>
      <point x="545.948" y="-172.056"/>
      <point x="516.64" y="-158.732"/>
      <point x="499.316" y="-158.732" type="curve" smooth="yes"/>
      <point x="484.62" y="-158.732" type="line" smooth="yes" name="n38"/>
      <point x="387.26" y="-158.732"/>
      <point x="330.556" y="-91.372"/>
      <point x="330.556" y="16" type="curve" smooth="yes"/>
      <point x="330.556" y="164.004"/>
      <point x="371.916" y="285.36"/>
      <point x="371.916" y="414.048" type="curve" smooth="yes"/>
      <point x="371.916" y="534.708"/>
      <point x="281.904" y="629.336"/>
      <point x="153.964" y="629.336" type="curve"/>
      <point x="62.032" y="683.956" type="line"/>
      <point x="62.032" y="557.396" type="line"/>
      <point x="148.044" y="557.396"/>
      <point x="190.076" y="499.388"/>
    </contour>
  </outline>
  <guideline angle="0" x="0" y="630"/>
</glyph>
<glyph name="bar" format="2">
  <advance width="512"/>
  <unicode hex="007C"/>
  <outline>
    <contour>
      <point x="172.712" y="-346.348" type="line" name="n00"/>
      <point x="339.232" y="-346.348" type="line" name="n01"/>
      <point x="339.232" y="1540.63" type="line" name="n02"/>
      <point x="172.712" y="1540.63" type="line"/>
    </contour>
  </outline>
</glyph>
<glyph name="braceright" format="2">
  <advance width="607.306"/>
  <unicode hex="007D"/>
  <guideline y="630.0"/>
  <outline>
    <contour>
      <point x="417.23" y="824.64" type="curve" smooth="yes"/>
      <point x="417.23" y="954.0"/>
      <point x="463.918" y="1078.008"/>
      <point x="463.918" y="1212.032" type="curve" smooth="yes"/>
      <point x="463.918" y="1406.648"/>
      <point x="349.93399999999997" y="1540.628"/>
      <point x="114.694" y="1540.628" type="curve" smooth="yes"/>
      <point x="61.358" y="1540.628" type="line"/>
      <point x="61.358" y="1444.716" type="line" smooth="yes"/>
      <point x="61.358" y="1413.408"/>
      <point x="90.666" y="1400.084"/>
      <point x="107.99" y="1400.084" type="curve" smooth="yes"/>
      <point x="122.686" y="1400.084" type="line" smooth="yes"/>
      <point x="220.046" y="1400.084"/>
      <point x="276.75" y="1332.724"/>
      <point x="276.75" y="1225.352" type="curve" smooth="yes"/>
      <point x="276.75" y="1077.348"/>
      <point x="235.39" y="955.992"/>
      <point x="235.39" y="827.304" type="curve" smooth="yes"/>
      <point x="235.39" y="706.644"/>
      <point x="325.402" y="612.016"/>
      <point x="453.342" y="612.016" type="curve"/>
      <point x="545.274" y="557.396" type="line"/>
      <point x="545.274" y="683.956" type="line"/>
      <point x="459.262" y="683.956"/>
      <point x="417.23" y="741.9639999999999"/>
    </contour>
    <contour>
      <point x="417.23" y="416.712" type="curve" smooth="yes"/>
      <point x="417.23" y="499.388"/>
      <point x="459.262" y="557.396"/>
      <point x="545.274" y="557.396" type="curve"/>
      <point x="545.274" y="683.956" type="line"/>
      <point x="453.342" y="629.336" type="line"/>
      <point x="325.402" y="629.336"/>
      <point x="235.39" y="534.708"/>
      <point x="235.39" y="414.048" type="curve" smooth="yes"/>
      <point x="235.39" y="285.36"/>
      <point x="276.75" y="164.004"/>
      <point x="276.75" y="16.0" type="curve" smooth="yes"/>
      <point x="276.75" y="-91.372"/>
      <point x="220.046" y="-158.732"/>
      <point x="122.686" y="-158.732" type="curve" smooth="yes"/>
      <point x="107.99" y="-158.732" type="line" smooth="yes"/>
      <point x="90.666" y="-158.732"/>
      <point x="61.358" y="-172.05599999999998"/>
      <point x="61.358" y="-203.364" type="curve" smooth="yes"/>
      <point x="61.358" y="-299.276" type="line"/>
      <point x="114.694" y="-299.276" type="line" smooth="yes"/>
      <point x="349.93399999999997" y="-299.276"/>
      <point x="463.918" y="-165.296"/>
      <point x="463.918" y="29.32" type="curve" smooth="yes"/>
      <point x="463.918" y="163.344"/>
      <point x="417.23" y="287.352"/>
    </contour>
  </outline>
</glyph>
<glyph name="asciitilde" format="2">
  <advance width="1160.0"/>
  <unicode hex="007E"/>
  <outline>
    <contour>
      <point x="755.044" y="631.896" type="curve"/>
      <point x="664.34" y="631.896"/>
      <point x="537.6320000000001" y="727.944"/>
      <point x="397.636" y="727.944" type="curve"/>
      <point x="215.688" y="727.944"/>
      <point x="109.72" y="598.636"/>
      <point x="109.72" y="405.38" type="curve"/>
      <point x="282.9" y="405.38" type="line"/>
      <point x="283.568" y="494.736"/>
      <point x="330.924" y="550.768"/>
      <point x="410.956" y="550.768" type="curve" smooth="yes"/>
      <point x="501.66" y="550.768"/>
      <point x="628.3679999999999" y="454.72"/>
      <point x="768.364" y="454.72" type="curve"/>
      <point x="950.312" y="454.72"/>
      <point x="1056.28" y="584.028"/>
      <point x="1056.28" y="777.284" type="curve"/>
      <point x="883.1" y="777.284" type="line"/>
      <point x="882.432" y="687.928"/>
      <point x="835.076" y="631.896"/>
    </contour>
  </outline>
</glyph>
<glyph name="exclamdown" format="2">
  <advance width="523"/>
  <unicode hex="00A1"/>
  <outline>
    <contour>
      <point x="363.862" y="-338.688" type="line" name="n00"/>
      <point x="363.862" y="198" type="line" smooth="yes"/>
      <point x="363.862" y="318.664"/>
      <point x="352.538" y="426.632"/>
      <point x="335.218" y="560.656" type="curve" name="n04"/>
      <point x="190.014" y="560.656" type="line"/>
      <point x="172.694" y="426.632"/>
      <point x="161.37" y="318.664"/>
      <point x="161.37" y="198" type="curve" smooth="yes" name="n08"/>
      <point x="161.37" y="-338.688" type="line"/>
    </contour>
    <contour>
      <point x="120.69" y="897.368" type="curve" smooth="yes" name="n10"/>
      <point x="120.69" y="820.076"/>
      <point x="180.658" y="758.108"/>
      <point x="259.282" y="758.108" type="curve" smooth="yes" name="n13"/>
      <point x="336.574" y="758.108"/>
      <point x="398.542" y="820.076"/>
      <point x="398.542" y="897.368" type="curve" smooth="yes" name="n16"/>
      <point x="398.542" y="975.992"/>
      <point x="336.574" y="1035.96"/>
      <point x="259.282" y="1035.96" type="curve" smooth="yes" name="n19"/>
      <point x="180.658" y="1035.96"/>
      <point x="120.69" y="975.992"/>
    </contour>
  </outline>
  <guideline angle="90" x="342" y="0"/>
</glyph>
<glyph name="cent" format="2">
  <advance width="1160.0"/>
  <unicode hex="00A2"/>
  <outline>
    <contour>
      <point x="1026.268" y="897.996" type="line"/>
      <point x="932.956" y="984.636"/>
      <point x="813.64" y="1034.628"/>
      <point x="655.668" y="1034.628" type="curve" smooth="yes"/>
      <point x="317.044" y="1034.628"/>
      <point x="128.392" y="811.316"/>
      <point x="128.392" y="509.98" type="curve" smooth="yes"/>
      <point x="128.392" y="177.996"/>
      <point x="344.352" y="-14.664"/>
      <point x="621.684" y="-14.664" type="curve" smooth="yes"/>
      <point x="783.024" y="-14.664"/>
      <point x="939.664" y="30.028"/>
      <point x="1038.94" y="146.636" type="curve"/>
      <point x="980.328" y="222.56400000000002" type="line" smooth="yes"/>
      <point x="971.668" y="233.888"/>
      <point x="957.68" y="241.216"/>
      <point x="940.36" y="241.216" type="curve" smooth="yes"/>
      <point x="887.064" y="241.216"/>
      <point x="841.028" y="147.86"/>
      <point x="652.32" y="147.86" type="curve" smooth="yes"/>
      <point x="458.256" y="147.86"/>
      <point x="340.204" y="276.572"/>
      <point x="340.204" y="509.98" type="curve" smooth="yes"/>
      <point x="340.204" y="736.052"/>
      <point x="447.596" y="872.104"/>
      <point x="662.328" y="872.104" type="curve" smooth="yes"/>
      <point x="824.364" y="872.104"/>
      <point x="883.048" y="797.42"/>
      <point x="927.02" y="797.42" type="curve" smooth="yes"/>
      <point x="949.668" y="797.42"/>
      <point x="959.66" y="806.08"/>
      <point x="970.984" y="822.732" type="curve" smooth="yes"/>
    </contour>
    <contour>
      <point x="531.084" y="-228.04" type="line"/>
      <point x="610.348" y="-228.04" type="line" smooth="yes"/>
      <point x="643.656" y="-228.04"/>
      <point x="666.304" y="-200.728"/>
      <point x="668.968" y="-172.07999999999998" type="curve"/>
      <point x="780.24" y="1256.652" type="line"/>
      <point x="700.976" y="1256.652" type="line" smooth="yes"/>
      <point x="667.668" y="1256.652"/>
      <point x="645.02" y="1229.34"/>
      <point x="642.356" y="1200.692" type="curve"/>
    </contour>
  </outline>
</glyph>
<glyph name="sterling" format="2">
  <advance width="1160.0"/>
  <unicode hex="00A3"/>
  <outline>
    <contour>
      <point x="1116.638" y="184.50400000000002" type="line"/>
      <point x="487.718" y="184.50400000000002" type="line" smooth="yes"/>
      <point x="381.126" y="184.50400000000002"/>
      <point x="280.534" y="153.868"/>
      <point x="179.26600000000002" y="114.56800000000001" type="curve"/>
      <point x="62.702" y="136.55200000000002" type="line"/>
      <point x="62.702" y="0.0" type="line"/>
      <point x="1024.05" y="0.0" type="line" smooth="yes"/>
      <point x="1080.002" y="0.0"/>
      <point x="1116.638" y="49.956"/>
      <point x="1116.638" y="93.25200000000001" type="curve" smooth="yes"/>
    </contour>
    <contour>
      <point x="247.866" y="87.256" type="line"/>
      <point x="368.526" y="163.89600000000002"/>
      <point x="454.514" y="250.56"/>
      <point x="454.514" y="389.9" type="curve" smooth="yes"/>
      <point x="454.514" y="997.992" type="line" smooth="yes"/>
      <point x="454.514" y="1167.392"/>
      <point x="531.23" y="1272.788"/>
      <point x="683.318" y="1272.788" type="curve" smooth="yes"/>
      <point x="786.742" y="1272.788"/>
      <point x="834.098" y="1225.404"/>
      <point x="884.766" y="1160.04" type="curve"/>
      <point x="916.074" y="1124.732"/>
      <point x="953.374" y="1124.064"/>
      <point x="993.342" y="1144.712" type="curve"/>
      <point x="1079.266" y="1199.992" type="line"/>
      <point x="1011.282" y="1342.636"/>
      <point x="893.306" y="1455.292"/>
      <point x="683.318" y="1455.292" type="curve" smooth="yes"/>
      <point x="382.03" y="1455.292"/>
      <point x="234.71" y="1247.988"/>
      <point x="234.71" y="996.66" type="curve" smooth="yes"/>
      <point x="234.71" y="332.624" type="line" smooth="yes"/>
      <point x="234.71" y="217.252"/>
      <point x="152.706" y="161.236"/>
      <point x="62.702" y="136.55200000000002" type="curve"/>
    </contour>
    <contour>
      <point x="42.03" y="606.708" type="line"/>
      <point x="817.318" y="606.708" type="line" smooth="yes"/>
      <point x="852.622" y="606.708"/>
      <point x="878.602" y="634.684"/>
      <point x="878.602" y="663.328" type="curve" smooth="yes"/>
      <point x="878.602" y="749.252" type="line"/>
      <point x="114.638" y="749.252" type="line" smooth="yes"/>
      <point x="67.346" y="749.252"/>
      <point x="42.03" y="715.948"/>
      <point x="42.03" y="675.98" type="curve" smooth="yes"/>
    </contour>
  </outline>
</glyph>
<glyph name="currency" format="2">
  <advance width="1160.0"/>
  <unicode hex="00A4"/>
  <outline>
    <contour>
      <point x="216.7" y="672.664" type="curve" smooth="yes"/>
      <point x="216.7" y="470.68399999999997"/>
      <point x="378.02" y="309.364"/>
      <point x="580.0" y="309.364" type="curve" smooth="yes"/>
      <point x="781.316" y="309.364"/>
      <point x="943.968" y="470.68399999999997"/>
      <point x="943.968" y="672.664" type="curve" smooth="yes"/>
      <point x="943.968" y="875.312"/>
      <point x="781.316" y="1036.632"/>
      <point x="580.0" y="1036.632" type="curve" smooth="yes"/>
      <point x="378.02" y="1036.632"/>
      <point x="216.7" y="875.312"/>
    </contour>
    <contour>
      <point x="375.228" y="672.664" type="curve"/>
      <point x="375.228" y="787.388"/>
      <point x="467.276" y="879.436"/>
      <point x="580.0" y="879.436" type="curve" smooth="yes"/>
      <point x="694.724" y="879.436"/>
      <point x="786.7719999999999" y="787.388"/>
      <point x="786.7719999999999" y="672.664" type="curve" smooth="yes"/>
      <point x="786.7719999999999" y="561.272"/>
      <point x="694.724" y="467.892"/>
      <point x="580.0" y="467.892" type="curve" smooth="yes"/>
      <point x="467.276" y="467.892"/>
      <point x="375.228" y="561.272"/>
    </contour>
    <contour>
      <point x="326.02" y="815.408" type="line"/>
      <point x="434.592" y="922.648" type="line"/>
      <point x="229.3" y="1127.94" type="line"/>
      <point x="120.728" y="1020.7" type="line"/>
    </contour>
    <contour>
      <point x="722.744" y="926.644" type="line"/>
      <point x="829.984" y="818.072" type="line"/>
      <point x="1035.276" y="1023.364" type="line"/>
      <point x="928.0360000000001" y="1131.936" type="line"/>
    </contour>
    <contour>
      <point x="438.588" y="418.68399999999997" type="line"/>
      <point x="330.016" y="527.256" type="line"/>
      <point x="124.72399999999999" y="321.964" type="line"/>
      <point x="231.964" y="213.392" type="line"/>
    </contour>
    <contour>
      <point x="833.98" y="531.252" type="line"/>
      <point x="725.408" y="422.68" type="line"/>
      <point x="930.7" y="217.388" type="line"/>
      <point x="1039.272" y="325.96" type="line"/>
    </contour>
  </outline>
</glyph>
<glyph name="yen" format="2">
  <advance width="1160.0"/>
  <unicode hex="00A5"/>
  <outline>
    <contour>
      <point x="1129.238" y="1439.96" type="line"/>
      <point x="949.398" y="1439.96" type="line" smooth="yes"/>
      <point x="910.098" y="1439.96"/>
      <point x="883.454" y="1413.984"/>
      <point x="871.462" y="1386.672" type="curve"/>
      <point x="626.634" y="863.1120000000001" type="line"/>
      <point x="580.006" y="747.212"/>
      <point x="568.01" y="670.612"/>
      <point x="562.01" y="546.712" type="curve"/>
      <point x="685.238" y="546.712" type="line"/>
    </contour>
    <contour>
      <point x="474.762" y="546.712" type="line"/>
      <point x="603.318" y="546.712" type="line"/>
      <point x="598.65" y="671.944"/>
      <point x="582.658" y="745.88"/>
      <point x="534.698" y="863.1120000000001" type="curve"/>
      <point x="288.538" y="1386.672" type="line"/>
      <point x="275.214" y="1419.312"/>
      <point x="249.902" y="1439.96"/>
      <point x="209.27" y="1439.96" type="curve" smooth="yes"/>
      <point x="30.762" y="1439.96" type="line"/>
    </contour>
    <contour>
      <point x="687.238" y="609.332" type="line"/>
      <point x="472.762" y="609.332" type="line"/>
      <point x="472.762" y="0.0" type="line"/>
      <point x="687.238" y="0.0" type="line"/>
    </contour>
    <contour>
      <point x="143.37" y="286.82" type="line"/>
      <point x="1016.63" y="286.82" type="line"/>
      <point x="1016.63" y="408.052" type="line"/>
      <point x="143.37" y="408.052" type="line"/>
    </contour>
    <contour>
      <point x="143.37" y="508.08" type="line"/>
      <point x="1016.63" y="508.08" type="line"/>
      <point x="1016.63" y="629.312" type="line"/>
      <point x="143.37" y="629.312" type="line"/>
    </contour>
  </outline>
</glyph>
<glyph name="brokenbar" format="2">
  <advance width="518"/>
  <unicode hex="00A6"/>
  <outline>
    <contour>
      <point x="175.712" y="738.668" type="line" name="n00"/>
      <point x="342.232" y="738.668" type="line" name="n01"/>
      <point x="342.232" y="1540.63" type="line" name="n02"/>
      <point x="175.712" y="1540.63" type="line"/>
    </contour>
    <contour>
      <point x="175.712" y="-338.688" type="line" name="n04"/>
      <point x="342.232" y="-338.688" type="line"/>
      <point x="342.232" y="463.272" type="line"/>
      <point x="175.712" y="463.272" type="line"/>
    </contour>
  </outline>
</glyph>
<glyph name="section" format="2">
  <advance width="999"/>
  <unicode hex="00A7"/>
  <outline>
    <contour>
      <point x="444.248" y="969.34" type="line"/>
      <point x="204.984" y="950.636"/>
      <point x="94.368" y="839.324"/>
      <point x="94.368" y="690.704" type="curve" smooth="yes" name="n03"/>
      <point x="94.368" y="344.74"/>
      <point x="666.424" y="403.384"/>
      <point x="666.424" y="175.976" type="curve" smooth="yes" name="n06"/>
      <point x="666.424" y="87.916"/>
      <point x="596.388" y="29.188"/>
      <point x="474.984" y="29.188" type="curve" smooth="yes" name="n09"/>
      <point x="312.288" y="29.188"/>
      <point x="270.264" y="115.212" name="n11"/>
      <point x="214.964" y="115.212" type="curve" smooth="yes"/>
      <point x="187.652" y="115.212"/>
      <point x="171" y="103.888"/>
      <point x="159.008" y="83.904" type="curve" smooth="yes"/>
      <point x="109.052" y="1.98" type="line"/>
      <point x="189.052" y="-70.02"/>
      <point x="316.336" y="-122.68"/>
      <point x="456.336" y="-122.68" type="curve" smooth="yes" name="n19"/>
      <point x="712.948" y="-122.68"/>
      <point x="853.592" y="19.308"/>
      <point x="853.592" y="211.276" type="curve" smooth="yes" name="n22"/>
      <point x="853.592" y="541.264"/>
      <point x="284.2" y="512.6"/>
      <point x="284.2" y="725.336" type="curve" smooth="yes" name="n25"/>
      <point x="284.2" y="794.032"/>
      <point x="327.548" y="842.06"/>
      <point x="440.928" y="882.08" type="curve"/>
    </contour>
    <contour>
      <point x="860.912" y="1331.99" type="line"/>
      <point x="784.244" y="1406.65"/>
      <point x="669.612" y="1454.63"/>
      <point x="532.972" y="1454.63" type="curve" smooth="yes" name="n32"/>
      <point x="291.036" y="1454.63"/>
      <point x="159.044" y="1312.65"/>
      <point x="159.044" y="1150.68" type="curve" smooth="yes" name="n35"/>
      <point x="159.044" y="793.4"/>
      <point x="719.744" y="845.404"/>
      <point x="719.744" y="615.312" type="curve" smooth="yes" name="n38"/>
      <point x="719.744" y="544.616"/>
      <point x="676.404" y="487.928"/>
      <point x="567.06" y="461.236" type="curve"/>
      <point x="557.752" y="371.312" type="line"/>
      <point x="802.948" y="387.344"/>
      <point x="906.912" y="508.636"/>
      <point x="906.912" y="663.932" type="curve" smooth="yes" name="n45"/>
      <point x="906.912" y="986.612"/>
      <point x="348.876" y="976.576"/>
      <point x="348.876" y="1160.01" type="curve" smooth="yes" name="n48"/>
      <point x="348.876" y="1234.72"/>
      <point x="417.588" y="1296.1"/>
      <point x="536.968" y="1296.1" type="curve" smooth="yes" name="n51"/>
      <point x="669.012" y="1296.1"/>
      <point x="724.348" y="1228.08"/>
      <point x="769.656" y="1228.08" type="curve" smooth="yes"/>
      <point x="789.64" y="1228.08"/>
      <point x="801.632" y="1235.41"/>
      <point x="812.956" y="1254.06" type="curve" smooth="yes"/>
    </contour>
  </outline>
</glyph>
<glyph name="dieresis" format="2">
  <advance width="800"/>
  <unicode hex="00A8"/>
  <anchor x="400" y="1120" name="_top"/>
  <anchor x="400" y="1437.96" name="top"/>
  <outline>
    <contour>
      <point x="329.296" y="1290.66" type="curve" smooth="yes"/>
      <point x="329.296" y="1360.62"/>
      <point x="270.66" y="1418.58"/>
      <point x="201.368" y="1418.58" type="curve" smooth="yes" name="n03"/>
      <point x="135.404" y="1418.58"/>
      <point x="77.436" y="1360.62"/>
      <point x="77.436" y="1290.66" type="curve" smooth="yes"/>
      <point x="77.436" y="1222.7"/>
      <point x="135.404" y="1167.39"/>
      <point x="201.368" y="1167.39" type="curve" smooth="yes" name="n09"/>
      <point x="270.66" y="1167.39"/>
      <point x="329.296" y="1222.7"/>
    </contour>
    <contour>
      <point x="722.564" y="1290.66" type="curve" smooth="yes"/>
      <point x="722.564" y="1360.62"/>
      <point x="665.26" y="1418.58"/>
      <point x="595.968" y="1418.58" type="curve" smooth="yes"/>
      <point x="527.34" y="1418.58"/>
      <point x="470.704" y="1360.62"/>
      <point x="470.704" y="1290.66" type="curve" smooth="yes"/>
      <point x="470.704" y="1222.7"/>
      <point x="527.34" y="1167.39"/>
      <point x="595.968" y="1167.39" type="curve" smooth="yes"/>
      <point x="665.26" y="1167.39"/>
      <point x="722.564" y="1222.7"/>
    </contour>
  </outline>
</glyph>
<glyph name="copyright" format="2">
  <advance width="1655"/>
  <unicode hex="00A9"/>
  <outline>
    <contour>
      <point x="1067.77" y="494.556" type="curve"/>
      <point x="1005.75" y="471.176"/>
      <point x="975.702" y="422.52"/>
      <point x="841.018" y="422.52" type="curve" smooth="yes" name="n03"/>
      <point x="691.598" y="422.52"/>
      <point x="582.866" y="529.904"/>
      <point x="582.866" y="722.644" type="curve" smooth="yes" name="n06"/>
      <point x="582.866" y="907.388"/>
      <point x="687.602" y="1023.44"/>
      <point x="860.346" y="1023.44" type="curve" smooth="yes" name="n09"/>
      <point x="1006.4" y="1023.44"/>
      <point x="1035.77" y="955.412"/>
      <point x="1077.08" y="955.412" type="curve" smooth="yes"/>
      <point x="1095.73" y="955.412"/>
      <point x="1107.73" y="967.4"/>
      <point x="1115.05" y="976.728" type="curve"/>
      <point x="1171" y="1054.66" type="line"/>
      <point x="1096.99" y="1130.65"/>
      <point x="996.346" y="1183.3"/>
      <point x="849.69" y="1183.3" type="curve" smooth="yes" name="n19"/>
      <point x="589.018" y="1183.3"/>
      <point x="392.366" y="992.64"/>
      <point x="392.366" y="722.644" type="curve" smooth="yes" name="n22"/>
      <point x="392.366" y="457.968"/>
      <point x="566.374" y="261.328"/>
      <point x="830.362" y="261.328" type="curve" smooth="yes" name="n25"/>
      <point x="983.698" y="261.328"/>
      <point x="1095.68" y="312.66"/>
      <point x="1170.35" y="403.972" type="curve"/>
      <point x="1098.41" y="480.572" type="line" smooth="yes"/>
      <point x="1091.09" y="488.564"/>
      <point x="1079.76" y="495.224"/>
    </contour>
    <contour>
      <point x="93.042" y="719.98" type="curve" smooth="yes" name="n32"/>
      <point x="93.042" y="315.324"/>
      <point x="422.366" y="-14"/>
      <point x="827.022" y="-14" type="curve" smooth="yes" name="n35"/>
      <point x="1233.01" y="-14"/>
      <point x="1562.33" y="315.324"/>
      <point x="1562.33" y="719.98" type="curve" smooth="yes" name="n38"/>
      <point x="1562.33" y="1125.97"/>
      <point x="1233.01" y="1455.29"/>
      <point x="827.022" y="1455.29" type="curve" smooth="yes" name="n41"/>
      <point x="422.366" y="1455.29"/>
      <point x="93.042" y="1125.97"/>
    </contour>
    <contour>
      <point x="211.614" y="719.98" type="curve" smooth="yes" name="n44"/>
      <point x="211.614" y="1072.68"/>
      <point x="482.318" y="1353.37"/>
      <point x="827.022" y="1353.37" type="curve" smooth="yes" name="n47"/>
      <point x="1173.06" y="1353.37"/>
      <point x="1447.09" y="1072.68"/>
      <point x="1447.09" y="719.98" type="curve" smooth="yes" name="n50"/>
      <point x="1447.09" y="368.616"/>
      <point x="1173.06" y="91.252"/>
      <point x="827.022" y="91.252" type="curve" smooth="yes" name="n53"/>
      <point x="482.318" y="91.252"/>
      <point x="211.614" y="368.616"/>
    </contour>
  </outline>
</glyph>
<glyph name="ordfeminine" format="2">
  <advance width="735"/>
  <unicode hex="00AA"/>
  <anchor x="367.334" y="-70" name="bottom"/>
  <outline>
    <contour>
      <point x="613.616" y="1223.32" type="curve"/>
      <point x="613.616" y="1359.98"/>
      <point x="525.644" y="1458.62"/>
      <point x="378.332" y="1458.62" type="curve" smooth="yes" name="n03"/>
      <point x="277.684" y="1458.62"/>
      <point x="192.376" y="1428.62"/>
      <point x="121.056" y="1361.96" type="curve"/>
      <point x="147.7" y="1312" type="line"/>
      <point x="157.692" y="1298.02"/>
      <point x="171.68" y="1282.7"/>
      <point x="192.996" y="1282.7" type="curve" smooth="yes"/>
      <point x="242.296" y="1282.7"/>
      <point x="264.32" y="1333.39"/>
      <point x="359.684" y="1333.39" type="curve" smooth="yes" name="n13"/>
      <point x="427.064" y="1333.39"/>
      <point x="462.412" y="1300.69"/>
      <point x="462.412" y="1223.32" type="curve"/>
      <point x="462.412" y="1223.32"/>
      <point x="613.616" y="1223.32"/>
    </contour>
    <contour>
      <point x="613.616" y="840.664" type="line"/>
      <point x="613.616" y="1223.32" type="line"/>
      <point x="462.412" y="1223.32" type="line"/>
      <point x="462.412" y="963.312" type="line"/>
      <point x="489.056" y="873.308" type="line" name="n23"/>
      <point x="501.712" y="846.66"/>
      <point x="513.036" y="840.664"/>
      <point x="541.68" y="840.664" type="curve" smooth="yes"/>
    </contour>
    <contour>
      <point x="499.716" y="936.008" type="curve"/>
      <point x="499.716" y="936.008"/>
      <point x="481.728" y="1023.27"/>
      <point x="481.728" y="1023.27" type="curve" name="n30"/>
      <point x="430.384" y="968.6"/>
      <point x="387.692" y="939.908"/>
      <point x="320.316" y="939.908" type="curve" smooth="yes" name="n33"/>
      <point x="270.964" y="939.908"/>
      <point x="238.26" y="957.26"/>
      <point x="238.26" y="1005.3" type="curve" smooth="yes" name="n36"/>
      <point x="238.26" y="1056.01"/>
      <point x="296.324" y="1094.02"/>
      <point x="484.392" y="1096.7" type="curve" name="n39"/>
      <point x="464.412" y="1192.62" type="line" name="n40"/>
      <point x="177.088" y="1187.29"/>
      <point x="89.72" y="1087.98"/>
      <point x="89.72" y="997.972" type="curve" smooth="yes" name="n43"/>
      <point x="89.72" y="889.312"/>
      <point x="166.392" y="831.996"/>
      <point x="271.696" y="831.996" type="curve" smooth="yes" name="n46"/>
      <point x="371.704" y="831.996"/>
      <point x="425.052" y="868.004"/>
    </contour>
  </outline>
</glyph>
<glyph name="logicalnot" format="2">
  <advance width="1160"/>
  <unicode hex="00AC"/>
  <outline>
    <contour>
      <point x="139.71" y="590.736" type="line" name="n00"/>
      <point x="1013.64" y="590.736" type="line"/>
      <point x="1013.64" y="751.928" type="line"/>
      <point x="139.71" y="751.928" type="line" name="n03"/>
    </contour>
    <contour>
      <point x="831.798" y="305.388" type="line" name="n04"/>
      <point x="1013.64" y="305.388" type="line" name="n05"/>
      <point x="1013.64" y="751.928" type="line"/>
      <point x="831.798" y="751.928" type="line"/>
    </contour>
  </outline>
</glyph>
<glyph name="registered" format="2">
  <advance width="1655.376"/>
  <unicode hex="00AE"/>
  <outline>
    <contour>
      <point x="767.002" y="613.404" type="line" smooth="yes"/>
      <point x="801.006" y="613.404"/>
      <point x="814.338" y="603.404"/>
      <point x="827.002" y="584.744" type="curve" smooth="yes"/>
      <point x="998.494" y="303.964" type="line"/>
      <point x="1009.822" y="283.976"/>
      <point x="1028.474" y="274.652"/>
      <point x="1054.454" y="274.652" type="curve" smooth="yes"/>
      <point x="1232.962" y="274.652" type="line"/>
      <point x="1029.498" y="594.064" type="line" smooth="yes"/>
      <point x="996.842" y="654.696"/>
      <point x="960.194" y="686.672"/>
      <point x="866.246" y="686.672" type="curve"/>
      <point x="794.998" y="646.704" type="line"/>
      <point x="828.314" y="646.704" type="line" smooth="yes"/>
      <point x="1058.926" y="646.704"/>
      <point x="1168.938" y="759.348"/>
      <point x="1168.938" y="916.004" type="curve" smooth="yes"/>
      <point x="1168.938" y="1080.656"/>
      <point x="1058.278" y="1169.304"/>
      <point x="819.002" y="1169.304" type="curve" smooth="yes"/>
      <point x="513.762" y="1169.304" type="line"/>
      <point x="513.762" y="274.652" type="line"/>
      <point x="700.266" y="274.652" type="line"/>
      <point x="700.266" y="1026.76" type="line"/>
      <point x="819.002" y="1026.76" type="line" smooth="yes"/>
      <point x="949.046" y="1026.76"/>
      <point x="985.098" y="982.744"/>
      <point x="985.098" y="892.028" type="curve" smooth="yes"/>
      <point x="985.098" y="799.316"/>
      <point x="944.37" y="747.956"/>
      <point x="801.674" y="747.956" type="curve" smooth="yes"/>
      <point x="648.302" y="747.956" type="line"/>
      <point x="642.974" y="613.404" type="line"/>
    </contour>
    <contour>
      <point x="93.042" y="719.98" type="curve" smooth="yes"/>
      <point x="93.042" y="315.324"/>
      <point x="422.366" y="-14.0"/>
      <point x="827.022" y="-14.0" type="curve" smooth="yes"/>
      <point x="1233.01" y="-14.0"/>
      <point x="1562.334" y="315.324"/>
      <point x="1562.334" y="719.98" type="curve" smooth="yes"/>
      <point x="1562.334" y="1125.968"/>
      <point x="1233.01" y="1455.292"/>
      <point x="827.022" y="1455.292" type="curve" smooth="yes"/>
      <point x="422.366" y="1455.292"/>
      <point x="93.042" y="1125.968"/>
    </contour>
    <contour>
      <point x="211.614" y="719.98" type="curve" smooth="yes"/>
      <point x="211.614" y="1072.676"/>
      <point x="482.318" y="1353.372"/>
      <point x="827.022" y="1353.372" type="curve" smooth="yes"/>
      <point x="1173.058" y="1353.372"/>
      <point x="1447.094" y="1072.676"/>
      <point x="1447.094" y="719.98" type="curve" smooth="yes"/>
      <point x="1447.094" y="368.616"/>
      <point x="1173.058" y="91.25200000000001"/>
      <point x="827.022" y="91.25200000000001" type="curve" smooth="yes"/>
      <point x="482.318" y="91.25200000000001"/>
      <point x="211.614" y="368.616"/>
    </contour>
  </outline>
</glyph>
<glyph name="macron" format="2">
  <advance width="800.0"/>
  <unicode hex="00AF"/>
  <unicode hex="02C9"/>
  <anchor x="400.0" y="1120.0" name="_top"/>
  <outline>
    <contour>
      <point x="106.69999999999999" y="1222.048" type="line"/>
      <point x="693.3" y="1222.048" type="line"/>
      <point x="693.3" y="1360.596" type="line"/>
      <point x="106.69999999999999" y="1360.596" type="line"/>
    </contour>
  </outline>
</glyph>
<glyph name="degree" format="2">
  <advance width="829.996"/>
  <unicode hex="00B0"/>
  <outline>
    <contour>
      <point x="78.388" y="1125.348" type="curve" smooth="yes"/>
      <point x="78.388" y="944.708"/>
      <point x="225.03199999999998" y="794.068"/>
      <point x="414.332" y="794.068" type="curve" smooth="yes"/>
      <point x="603.6320000000001" y="794.068"/>
      <point x="751.608" y="944.708"/>
      <point x="751.608" y="1125.348" type="curve" smooth="yes"/>
      <point x="751.608" y="1309.984"/>
      <point x="603.6320000000001" y="1457.292"/>
      <point x="414.332" y="1457.292" type="curve" smooth="yes"/>
      <point x="225.03199999999998" y="1457.292"/>
      <point x="78.388" y="1309.984"/>
    </contour>
    <contour>
      <point x="228.928" y="1124.016" type="curve" smooth="yes"/>
      <point x="228.928" y="1230.052"/>
      <point x="308.296" y="1313.416"/>
      <point x="414.332" y="1313.416" type="curve" smooth="yes"/>
      <point x="520.3679999999999" y="1313.416"/>
      <point x="599.736" y="1230.052"/>
      <point x="599.736" y="1124.016" type="curve" smooth="yes"/>
      <point x="599.736" y="1019.312"/>
      <point x="520.3679999999999" y="937.28"/>
      <point x="414.332" y="937.28" type="curve" smooth="yes"/>
      <point x="308.296" y="937.28"/>
      <point x="228.928" y="1019.312"/>
    </contour>
  </outline>
</glyph>
<glyph name="plusminus" format="2">
  <advance width="1160"/>
  <unicode hex="00B1"/>
  <outline>
    <contour>
      <point x="96.356" y="697.296" type="line" name="n00"/>
      <point x="1063.64" y="697.296" type="line"/>
      <point x="1063.64" y="858.488" type="line"/>
      <point x="96.356" y="858.488" type="line" name="n03"/>
    </contour>
    <contour>
      <point x="491.744" y="1223.22" type="line" name="n04"/>
      <point x="491.744" y="343.884" type="line"/>
      <point x="666.256" y="343.884" type="line"/>
      <point x="666.256" y="1223.22" type="line" name="n07"/>
    </contour>
    <contour>
      <point x="96.356" y="80" type="line" name="n08"/>
      <point x="1063.64" y="80" type="line"/>
      <point x="1063.64" y="241.192" type="line"/>
      <point x="96.356" y="241.192" type="line" name="n11"/>
    </contour>
  </outline>
</glyph>
<glyph name="acute" format="2">
  <advance width="800"/>
  <unicode hex="00B4"/>
  <anchor x="400" y="1120" name="_top"/>
  <outline>
    <contour>
      <point x="511.364" y="1455.96" type="line" smooth="yes" name="n00"/>
      <point x="462.724" y="1455.96"/>
      <point x="442.736" y="1439.97"/>
      <point x="424.076" y="1407.32" type="curve" smooth="yes"/>
      <point x="278.724" y="1164.66" type="line" name="n04"/>
      <point x="407.276" y="1164.66" type="line" smooth="yes"/>
      <point x="439.916" y="1164.66"/>
      <point x="457.904" y="1173.32"/>
      <point x="479.22" y="1196.64" type="curve" smooth="yes"/>
      <point x="719.848" y="1455.96" type="line"/>
    </contour>
  </outline>
</glyph>
<glyph name="micro" format="2">
  <advance width="1309.94"/>
  <unicode hex="00B5"/>
  <anchor x="607.64" y="1120.0" name="top"/>
  <anchor x="688.984" y="-421.0" name="bottom"/>
  <outline>
    <contour>
      <point x="172.04399999999998" y="1019.96" type="line"/>
      <point x="172.04399999999998" y="-248.1" type="line" smooth="yes"/>
      <point x="172.04399999999998" y="-306.048"/>
      <point x="206.68" y="-338.688"/>
      <point x="266.628" y="-338.688" type="curve" smooth="yes"/>
      <point x="373.20000000000005" y="-338.688" type="line"/>
      <point x="373.20000000000005" y="-80.57600000000001" type="line" smooth="yes"/>
      <point x="373.20000000000005" y="-1.2520000000000095"/>
      <point x="364.54" y="108.74"/>
      <point x="333.236" y="174.744" type="curve"/>
      <point x="386.52" y="212.728" type="line"/>
      <point x="386.52" y="1019.96" type="line"/>
    </contour>
    <contour>
      <point x="261.296" y="410.608" type="line"/>
      <point x="261.296" y="159.96"/>
      <point x="354.634" y="10.64"/>
      <point x="565.308" y="10.64" type="curve" smooth="yes"/>
      <point x="714.652" y="10.64"/>
      <point x="826.016" y="111.63"/>
      <point x="906.694" y="277.608" type="curve"/>
      <point x="842.754" y="397.512" type="line"/>
      <point x="791.374" y="266.15999999999997"/>
      <point x="703.326" y="186.484"/>
      <point x="578.628" y="186.484" type="curve" smooth="yes"/>
      <point x="450.552" y="186.484"/>
      <point x="386.52" y="273.86"/>
      <point x="386.52" y="410.608" type="curve"/>
    </contour>
    <contour>
      <point x="828.094" y="301.584" type="line"/>
      <point x="848.742" y="290.25" type="line"/>
      <point x="850.074" y="83.304"/>
      <point x="966.722" y="-9.998000000000001"/>
      <point x="1102.364" y="-9.998000000000001" type="curve" smooth="yes"/>
      <point x="1189.308" y="-9.998000000000001"/>
      <point x="1240.936" y="26.304000000000002"/>
      <point x="1240.936" y="63.272000000000006" type="curve" smooth="yes"/>
      <point x="1240.936" y="149.196" type="line"/>
      <point x="1174.974" y="149.196" type="line" smooth="yes"/>
      <point x="1094.602" y="149.196"/>
      <point x="1042.57" y="193.544"/>
      <point x="1042.57" y="289.584" type="curve" smooth="yes"/>
      <point x="1042.57" y="1019.96" type="line"/>
      <point x="828.094" y="1019.96" type="line"/>
    </contour>
  </outline>
</glyph>
<glyph name="paragraph" format="2">
  <advance width="1439.132"/>
  <unicode hex="00B6"/>
  <outline>
    <contour>
      <point x="708.5" y="1439.96" type="line"/>
      <point x="520.664" y="1439.96" type="line"/>
      <point x="520.664" y="-205.308" type="line"/>
      <point x="708.5" y="-205.308" type="line"/>
    </contour>
    <contour>
      <point x="520.664" y="1439.96" type="line"/>
      <point x="244.0" y="1439.96"/>
      <point x="67.348" y="1278.664"/>
      <point x="67.348" y="1042.7" type="curve" smooth="yes"/>
      <point x="67.348" y="823.388"/>
      <point x="244.0" y="644.088"/>
      <point x="520.664" y="644.088" type="curve"/>
      <point x="564.636" y="1258.12" type="line"/>
      <point x="1367.8" y="1258.12" type="line"/>
      <point x="1367.8" y="1439.96" type="line"/>
    </contour>
    <contour>
      <point x="1151.12" y="1439.96" type="line"/>
      <point x="963.284" y="1439.96" type="line"/>
      <point x="963.284" y="-205.308" type="line"/>
      <point x="1151.12" y="-205.308" type="line"/>
    </contour>
  </outline>
</glyph>
<glyph name="cedilla" format="2">
  <advance width="800"/>
  <unicode hex="00B8"/>
  <anchor x="400" y="-70" name="_bottom"/>
  <outline>
    <contour>
      <point x="281.338" y="-242.72" type="curve" smooth="yes"/>
      <point x="266.682" y="-242.72"/>
      <point x="259.354" y="-250.048"/>
      <point x="255.354" y="-263.372" type="curve" smooth="yes"/>
      <point x="235.37" y="-329.976" type="line"/>
      <point x="278.69" y="-346.656"/>
      <point x="328.034" y="-356.668"/>
      <point x="382.034" y="-356.668" type="curve" smooth="yes" name="n07"/>
      <point x="518.654" y="-356.668"/>
      <point x="612.626" y="-302.012"/>
      <point x="612.626" y="-214.024" type="curve" smooth="yes" name="n10"/>
      <point x="612.626" y="-133.352"/>
      <point x="550.606" y="-80.712"/>
      <point x="382.654" y="-57.384" type="curve"/>
      <point x="431.282" y="-99.348" type="line"/>
      <point x="467.948" y="30.636" type="line" name="n15"/>
      <point x="347.384" y="30.636" type="line"/>
      <point x="290.734" y="-139.32" type="line"/>
      <point x="391.406" y="-152.652"/>
      <point x="444.106" y="-165.992"/>
      <point x="444.106" y="-210.696" type="curve" smooth="yes" name="n20"/>
      <point x="444.106" y="-239.396"/>
      <point x="418.75" y="-261.412"/>
      <point x="369.386" y="-261.412" type="curve" smooth="yes" name="n23"/>
      <point x="320.01" y="-261.412"/>
      <point x="298.666" y="-242.72"/>
    </contour>
  </outline>
</glyph>
<glyph name="ordmasculine" format="2">
  <advance width="802.676"/>
  <unicode hex="00BA"/>
  <anchor x="401.338" y="-70.0" name="bottom"/>
  <outline>
    <contour>
      <point x="403.004" y="1457.288" type="curve" smooth="yes"/>
      <point x="211.024" y="1457.288"/>
      <point x="83.056" y="1337.292"/>
      <point x="83.056" y="1144.64" type="curve" smooth="yes"/>
      <point x="83.056" y="949.324"/>
      <point x="211.024" y="828.664"/>
      <point x="403.004" y="828.664" type="curve" smooth="yes"/>
      <point x="592.984" y="828.664"/>
      <point x="719.62" y="949.324"/>
      <point x="719.62" y="1144.64" type="curve" smooth="yes"/>
      <point x="719.62" y="1337.292"/>
      <point x="592.984" y="1457.288"/>
    </contour>
    <contour>
      <point x="403.004" y="955.22" type="curve" smooth="yes"/>
      <point x="298.944" y="955.22"/>
      <point x="250.90800000000002" y="1018.6"/>
      <point x="250.90800000000002" y="1143.308" type="curve" smooth="yes"/>
      <point x="250.90800000000002" y="1268.016"/>
      <point x="298.944" y="1330.732"/>
      <point x="403.004" y="1330.732" type="curve" smooth="yes"/>
      <point x="502.4" y="1330.732"/>
      <point x="551.768" y="1268.016"/>
      <point x="551.768" y="1143.308" type="curve" smooth="yes"/>
      <point x="551.768" y="1018.6"/>
      <point x="502.4" y="955.22"/>
    </contour>
  </outline>
</glyph>
<glyph name="questiondown" format="2">
  <advance width="896"/>
  <unicode hex="00BF"/>
  <outline>
    <component base="period" xScale="1" yScale="1" xOffset="259.292" yOffset="772.776"/>
    <contour>
      <point x="772.276" y="-116.776" type="line"/>
      <point x="762.284" y="-98.792"/>
      <point x="746.964" y="-90.132"/>
      <point x="726.98" y="-90.132" type="curve" smooth="yes"/>
      <point x="690.34" y="-90.132"/>
      <point x="632.308" y="-178.172"/>
      <point x="476.276" y="-178.172" type="curve" smooth="yes" name="n06"/>
      <point x="364.236" y="-178.172"/>
      <point x="278.844" y="-112.14"/>
      <point x="278.844" y="-7.412" type="curve" smooth="yes" name="n09"/>
      <point x="278.844" y="219.988"/>
      <point x="599.524" y="198.688"/>
      <point x="579.544" y="395.98" type="curve" name="n12"/>
      <point x="564.892" y="560.656" type="line" name="n13"/>
      <point x="418.356" y="560.656" type="line"/>
      <point x="397.704" y="411.3" type="line" name="n15"/>
      <point x="377.72" y="280.62"/>
      <point x="79.02" y="278.604"/>
      <point x="79.02" y="-26.06" type="curve" smooth="yes" name="n18"/>
      <point x="79.02" y="-229.368"/>
      <point x="236.352" y="-352.684"/>
      <point x="457.628" y="-352.684" type="curve" smooth="yes" name="n21"/>
      <point x="622.936" y="-352.684"/>
      <point x="740.916" y="-286.016"/>
      <point x="828.892" y="-207.36" type="curve"/>
    </contour>
  </outline>
</glyph>
<glyph name="AE" format="2">
  <advance width="1863.32"/>
  <unicode hex="00C6"/>
  <anchor x="1245.362" y="1515.314" name="Top"/>
  <anchor x="1245.362" y="1515.314" name="top"/>
  <anchor x="886.604" y="-70.0" name="bottom"/>
  <outline>
    <contour>
      <point x="-13.628" y="0.0" type="line"/>
      <point x="163.548" y="0.0" type="line" smooth="yes"/>
      <point x="205.512" y="0.0"/>
      <point x="236.818" y="21.314"/>
      <point x="251.806" y="53.288000000000004" type="curve"/>
      <point x="776.372" y="1102.224" type="line" smooth="yes"/>
      <point x="816.348" y="1188.8319999999999"/>
      <point x="856.316" y="1300.7359999999999"/>
      <point x="880.9639999999999" y="1439.96" type="curve"/>
      <point x="731.764" y="1439.96" type="line"/>
    </contour>
    <contour>
      <point x="309.676" y="372.772" type="line"/>
      <point x="1108.856" y="372.772" type="line"/>
      <point x="1108.856" y="539.292" type="line"/>
      <point x="309.676" y="539.292" type="line"/>
    </contour>
    <contour>
      <point x="1037.488" y="1439.96" type="line"/>
      <point x="817.02" y="1439.96" type="line"/>
      <point x="995.024" y="0.0" type="line"/>
      <point x="1215.492" y="0.0" type="line"/>
    </contour>
    <contour>
      <point x="1092.84" y="816.572" type="line"/>
      <point x="1092.84" y="634.732" type="line"/>
      <point x="1646.968" y="634.732" type="line"/>
      <point x="1646.968" y="816.572" type="line"/>
    </contour>
    <contour>
      <point x="990.86" y="1439.96" type="line"/>
      <point x="990.86" y="1251.46" type="line"/>
      <point x="1780.288" y="1251.46" type="line"/>
      <point x="1780.288" y="1439.96" type="line"/>
    </contour>
    <contour>
      <point x="1126.24" y="188.5" type="line"/>
      <point x="1126.24" y="0.0" type="line"/>
      <point x="1780.288" y="0.0" type="line"/>
      <point x="1780.956" y="188.5" type="line"/>
    </contour>
  </outline>
</glyph>
<glyph name="Eth" format="2">
  <advance width="1538.658"/>
  <unicode hex="00D0"/>
  <anchor x="680.618" y="1515.314" name="Top"/>
  <anchor x="680.618" y="1515.314" name="top"/>
  <anchor x="645.616" y="-70.0" name="bottom"/>
  <outline>
    <contour>
      <point x="1452.938" y="719.98" type="curve" smooth="yes"/>
      <point x="1452.938" y="1145.996"/>
      <point x="1163.63" y="1439.96"/>
      <point x="733.01" y="1439.96" type="curve"/>
      <point x="189.054" y="1439.96" type="line"/>
      <point x="189.054" y="0.0" type="line"/>
      <point x="733.01" y="0.0" type="line"/>
      <point x="1163.63" y="0.0"/>
      <point x="1452.938" y="292.632"/>
    </contour>
    <contour>
      <point x="1213.818" y="719.98" type="curve" smooth="yes"/>
      <point x="1213.818" y="385.88"/>
      <point x="1027.75" y="187.83200000000002"/>
      <point x="733.01" y="187.83200000000002" type="curve"/>
      <point x="423.51" y="187.83200000000002" type="line"/>
      <point x="423.51" y="1252.128" type="line"/>
      <point x="733.01" y="1252.128" type="line"/>
      <point x="1027.75" y="1252.128"/>
      <point x="1213.818" y="1052.748"/>
    </contour>
    <contour>
      <point x="1.0099999999999998" y="658.044" type="line"/>
      <point x="700.91" y="658.044" type="line"/>
      <point x="700.91" y="792.596" type="line"/>
      <point x="1.0099999999999998" y="792.596" type="line"/>
    </contour>
  </outline>
</glyph>
<glyph name="multiply" format="2">
  <advance width="1160.0"/>
  <unicode hex="00D7"/>
  <outline>
    <contour>
      <point x="132.378" y="1006.052" type="line"/>
      <point x="928.374" y="210.724" type="line"/>
      <point x="1042.274" y="324.624" type="line"/>
      <point x="245.614" y="1120.62" type="line"/>
    </contour>
    <contour>
      <point x="914.386" y="1118.62" type="line"/>
      <point x="119.05799999999999" y="322.624" type="line"/>
      <point x="232.958" y="208.724" type="line"/>
      <point x="1028.954" y="1004.052" type="line"/>
    </contour>
  </outline>
</glyph>
<glyph name="Oslash" format="2">
  <advance width="1608.626"/>
  <unicode hex="00D8"/>
  <anchor x="812.646" y="1515.314" name="Top"/>
  <anchor x="812.646" y="1515.314" name="top"/>
  <anchor x="730.252" y="-70.0" name="bottom"/>
  <outline>
    <contour>
      <point x="1484.228" y="1505.292" type="line"/>
      <point x="1364.332" y="1505.292" type="line" smooth="yes"/>
      <point x="1313.04" y="1505.292"/>
      <point x="1297.052" y="1489.304"/>
      <point x="1265.744" y="1446.672" type="curve" smooth="yes"/>
      <point x="129.048" y="-109.992" type="line"/>
      <point x="221.636" y="-109.992" type="line" smooth="yes"/>
      <point x="266.932" y="-109.992"/>
      <point x="317.55600000000004" y="-92.672"/>
      <point x="351.528" y="-46.044" type="curve" smooth="yes"/>
    </contour>
    <contour>
      <point x="1524.24" y="719.98" type="curve" smooth="yes"/>
      <point x="1524.24" y="1145.996"/>
      <point x="1234.932" y="1455.96"/>
      <point x="804.312" y="1455.96" type="curve" smooth="yes"/>
      <point x="375.028" y="1455.96"/>
      <point x="83.72" y="1146.66"/>
      <point x="83.72" y="719.98" type="curve" smooth="yes"/>
      <point x="83.72" y="292.632"/>
      <point x="375.028" y="-15.332"/>
      <point x="804.312" y="-15.332" type="curve" smooth="yes"/>
      <point x="1234.932" y="-15.332"/>
      <point x="1524.24" y="292.632"/>
    </contour>
    <contour>
      <point x="1285.12" y="719.98" type="curve" smooth="yes"/>
      <point x="1285.12" y="385.88"/>
      <point x="1099.052" y="185.82000000000002"/>
      <point x="804.312" y="185.82000000000002" type="curve" smooth="yes"/>
      <point x="510.244" y="185.82000000000002"/>
      <point x="322.172" y="385.88"/>
      <point x="322.172" y="719.98" type="curve" smooth="yes"/>
      <point x="322.172" y="1052.748"/>
      <point x="510.244" y="1254.808"/>
      <point x="804.312" y="1254.808" type="curve" smooth="yes"/>
      <point x="1099.052" y="1254.808"/>
      <point x="1285.12" y="1052.748"/>
    </contour>
  </outline>
</glyph>
<glyph name="germandbls" format="2">
  <advance width="1183.876"/>
  <unicode hex="00DF"/>
  <anchor x="609.62" y="1515.314" name="Top"/>
  <anchor x="609.62" y="1515.314" name="top"/>
  <anchor x="580.592" y="-70.0" name="bottom"/>
  <outline>
    <contour>
      <point x="637.284" y="1463.284" type="curve" smooth="yes"/>
      <point x="327.368" y="1463.284"/>
      <point x="130.72" y="1267.34"/>
      <point x="130.72" y="987.356" type="curve" smooth="yes"/>
      <point x="130.72" y="0.0" type="line"/>
      <point x="345.196" y="0.0" type="line"/>
      <point x="345.196" y="980.696" type="line" smooth="yes"/>
      <point x="345.196" y="1194.756"/>
      <point x="450.608" y="1306.088"/>
      <point x="627.96" y="1306.088" type="curve" smooth="yes"/>
      <point x="785.356" y="1306.088"/>
      <point x="847.3679999999999" y="1222.02"/>
      <point x="847.3679999999999" y="1135.36" type="curve" smooth="yes"/>
      <point x="847.3679999999999" y="955.288"/>
      <point x="554.648" y="937.936"/>
      <point x="554.648" y="715.98" type="curve" smooth="yes"/>
      <point x="554.648" y="446.676"/>
      <point x="925.356" y="494.752"/>
      <point x="925.356" y="289.31600000000003" type="curve" smooth="yes"/>
      <point x="925.356" y="201.256"/>
      <point x="860.648" y="135.868"/>
      <point x="761.888" y="135.868" type="curve" smooth="yes"/>
      <point x="631.16" y="135.868"/>
      <point x="585.14" y="221.892"/>
      <point x="529.84" y="221.892" type="curve" smooth="yes"/>
      <point x="502.528" y="221.892"/>
      <point x="485.876" y="210.568"/>
      <point x="473.884" y="190.584" type="curve" smooth="yes"/>
      <point x="423.928" y="108.66" type="line"/>
      <point x="503.928" y="36.66"/>
      <point x="617.892" y="-16.0"/>
      <point x="743.24" y="-16.0" type="curve" smooth="yes"/>
      <point x="954.564" y="-16.0"/>
      <point x="1125.844" y="106.008"/>
      <point x="1125.844" y="323.284" type="curve" smooth="yes"/>
      <point x="1125.844" y="631.96"/>
      <point x="779.1120000000001" y="613.864"/>
      <point x="779.1120000000001" y="758.604" type="curve"/>
      <point x="779.1120000000001" y="880.648"/>
      <point x="1055.18" y="902.0"/>
      <point x="1055.18" y="1136.024" type="curve" smooth="yes"/>
      <point x="1055.18" y="1270.688"/>
      <point x="931.844" y="1463.284"/>
    </contour>
  </outline>
</glyph>
<glyph name="ae" format="2">
  <advance width="1614.974"/>
  <unicode hex="00E6"/>
  <anchor x="799.972" y="1120.0" name="top"/>
  <anchor x="764.936" y="-70.0" name="bottom"/>
  <outline>
    <contour>
      <point x="1143.328" y="1035.96" type="curve" smooth="yes"/>
      <point x="860.7" y="1035.96"/>
      <point x="707.38" y="812.652"/>
      <point x="707.38" y="531.312" type="curve" smooth="yes"/>
      <point x="707.38" y="156.692"/>
      <point x="903.328" y="-14.664"/>
      <point x="1139.336" y="-14.664" type="curve" smooth="yes"/>
      <point x="1277.336" y="-14.664"/>
      <point x="1433.976" y="29.363999999999997"/>
      <point x="1532.584" y="147.96800000000002" type="curve"/>
      <point x="1475.304" y="221.232" type="line" smooth="yes"/>
      <point x="1466.644" y="233.888"/>
      <point x="1452.656" y="241.216"/>
      <point x="1431.34" y="241.216" type="curve" smooth="yes"/>
      <point x="1382.044" y="241.216"/>
      <point x="1342.66" y="153.18800000000002"/>
      <point x="1159.316" y="153.18800000000002" type="curve" smooth="yes"/>
      <point x="987.932" y="153.18800000000002"/>
      <point x="878.56" y="273.91200000000003"/>
      <point x="878.56" y="531.312" type="curve" smooth="yes"/>
      <point x="878.56" y="747.372"/>
      <point x="964.608" y="880.096"/>
      <point x="1134.672" y="880.096" type="curve" smooth="yes"/>
      <point x="1276.704" y="880.096"/>
      <point x="1352.104" y="756.08"/>
      <point x="1352.104" y="604.624" type="curve"/>
      <point x="835.932" y="604.624" type="line"/>
      <point x="839.26" y="473.404" type="line"/>
      <point x="1493.972" y="473.404" type="line" smooth="yes"/>
      <point x="1533.272" y="473.404"/>
      <point x="1542.6" y="490.724"/>
      <point x="1542.6" y="556.664" type="curve" smooth="yes"/>
      <point x="1542.6" y="855.324"/>
      <point x="1369.288" y="1035.96"/>
    </contour>
    <contour>
      <point x="823.944" y="409.96" type="line"/>
      <point x="837.264" y="648.0" type="line" smooth="yes"/>
      <point x="837.264" y="878.652"/>
      <point x="738.604" y="1038.624"/>
      <point x="497.32" y="1038.624" type="curve" smooth="yes"/>
      <point x="344.004" y="1038.624"/>
      <point x="222.696" y="984.624"/>
      <point x="108.048" y="877.296" type="curve"/>
      <point x="146.68" y="808.028" type="line" smooth="yes"/>
      <point x="160.004" y="786.712"/>
      <point x="180.652" y="768.728"/>
      <point x="209.96" y="768.728" type="curve" smooth="yes"/>
      <point x="281.244" y="768.728"/>
      <point x="326.616" y="873.436"/>
      <point x="493.324" y="873.436" type="curve" smooth="yes"/>
      <point x="613.38" y="873.436"/>
      <point x="678.072" y="794.06"/>
      <point x="678.072" y="648.0" type="curve" smooth="yes"/>
      <point x="678.072" y="409.96" type="line"/>
    </contour>
    <contour>
      <point x="678.072" y="409.96" type="line"/>
      <point x="678.072" y="219.26"/>
      <point x="568.02" y="133.204"/>
      <point x="427.296" y="133.204" type="curve" smooth="yes"/>
      <point x="328.58" y="133.204"/>
      <point x="264.53200000000004" y="179.228"/>
      <point x="264.53200000000004" y="281.968" type="curve" smooth="yes"/>
      <point x="264.53200000000004" y="384.7"/>
      <point x="378.62" y="466.06399999999996"/>
      <point x="709.38" y="474.068" type="curve"/>
      <point x="682.74" y="605.956" type="line"/>
      <point x="215.428" y="595.956"/>
      <point x="59.379999999999995" y="429.332"/>
      <point x="59.379999999999995" y="271.312" type="curve" smooth="yes"/>
      <point x="59.379999999999995" y="81.304"/>
      <point x="184.72" y="-16.0"/>
      <point x="376.68" y="-16.0" type="curve" smooth="yes"/>
      <point x="597.94" y="-16.0"/>
      <point x="823.944" y="101.30799999999999"/>
      <point x="823.944" y="409.96" type="curve"/>
    </contour>
  </outline>
</glyph>
<glyph name="ccedilla" format="2">
  <advance width="961"/>
  <unicode hex="00E7"/>
  <anchor x="519.278" y="-421" name="bottom"/>
  <anchor x="557.326" y="1120" name="top"/>
  <outline>
    <contour>
      <point x="908.586" y="897.996" type="line"/>
      <point x="821.274" y="985.968"/>
      <point x="709.958" y="1035.96"/>
      <point x="562.654" y="1035.96" type="curve" smooth="yes" name="n03"/>
      <point x="247.366" y="1035.96"/>
      <point x="74.714" y="812.648"/>
      <point x="74.714" y="511.312" type="curve" smooth="yes" name="n06"/>
      <point x="74.714" y="177.996"/>
      <point x="276.006" y="-14.664"/>
      <point x="529.338" y="-14.664" type="curve" smooth="yes" name="n09"/>
      <point x="674.678" y="-14.664"/>
      <point x="820.65" y="28.696"/>
      <point x="919.258" y="147.968" type="curve"/>
      <point x="857.982" y="226.56" type="line"/>
      <point x="849.322" y="239.216"/>
      <point x="835.334" y="246.544"/>
      <point x="818.014" y="246.544" type="curve" smooth="yes"/>
      <point x="763.386" y="246.544"/>
      <point x="733.342" y="150.524"/>
      <point x="567.966" y="150.524" type="curve" smooth="yes"/>
      <point x="400.566" y="150.524"/>
      <point x="294.518" y="280.568"/>
      <point x="294.518" y="511.312" type="curve" smooth="yes" name="n22"/>
      <point x="294.518" y="733.388"/>
      <point x="389.906" y="870.772"/>
      <point x="575.974" y="870.772" type="curve" smooth="yes" name="n25"/>
      <point x="718.678" y="870.772"/>
      <point x="761.37" y="793.424"/>
      <point x="806.674" y="793.424" type="curve" smooth="yes"/>
      <point x="829.322" y="793.424"/>
      <point x="839.314" y="803.416"/>
      <point x="851.97" y="820.068" type="curve" smooth="yes"/>
    </contour>
    <contour>
      <point x="420.676" y="-242.72" type="curve" smooth="yes"/>
      <point x="406.02" y="-242.72"/>
      <point x="398.692" y="-250.048"/>
      <point x="394.692" y="-263.372" type="curve" smooth="yes"/>
      <point x="374.708" y="-329.976" type="line"/>
      <point x="418.028" y="-346.656"/>
      <point x="467.372" y="-356.668"/>
      <point x="521.372" y="-356.668" type="curve" smooth="yes" name="n39"/>
      <point x="657.992" y="-356.668"/>
      <point x="751.964" y="-302.012"/>
      <point x="751.964" y="-214.024" type="curve" smooth="yes" name="n42"/>
      <point x="751.964" y="-133.352"/>
      <point x="689.944" y="-80.712"/>
      <point x="521.992" y="-57.384" type="curve"/>
      <point x="570.62" y="-99.348" type="line"/>
      <point x="607.286" y="30.636" type="line"/>
      <point x="486.722" y="30.636" type="line" name="n48"/>
      <point x="430.072" y="-139.32" type="line"/>
      <point x="530.744" y="-152.652"/>
      <point x="583.444" y="-165.992"/>
      <point x="583.444" y="-210.696" type="curve" smooth="yes" name="n52"/>
      <point x="583.444" y="-239.396"/>
      <point x="558.088" y="-261.412"/>
      <point x="508.724" y="-261.412" type="curve" smooth="yes" name="n55"/>
      <point x="459.348" y="-261.412"/>
      <point x="438.004" y="-242.72"/>
    </contour>
  </outline>
</glyph>
<glyph name="eth" format="2">
  <advance width="1137"/>
  <unicode hex="00F0"/>
  <anchor x="694.784" y="1515.31" name="Top"/>
  <anchor x="550.99" y="-70" name="bottom"/>
  <anchor x="694.784" y="1515.31" name="top"/>
  <outline>
    <contour>
      <point x="318.67" y="1423.95" type="curve"/>
      <point x="294.026" y="1349.35" type="line"/>
      <point x="273.378" y="1292.06"/>
      <point x="300.694" y="1258.76"/>
      <point x="337.994" y="1248.1" type="curve"/>
      <point x="707.274" y="1154.81"/>
      <point x="865.418" y="982.116"/>
      <point x="866.086" y="601.332" type="curve"/>
      <point x="849.434" y="596.664" type="line" name="n08"/>
      <point x="849.434" y="283.972"/>
      <point x="732.086" y="151.192"/>
      <point x="554.65" y="151.192" type="curve" smooth="yes" name="n11"/>
      <point x="406.59" y="151.192"/>
      <point x="285.862" y="263.908"/>
      <point x="285.862" y="468.644" type="curve" smooth="yes" name="n14"/>
      <point x="285.862" y="633.4"/>
      <point x="383.234" y="764.132"/>
      <point x="567.314" y="764.132" type="curve" smooth="yes" name="n17"/>
      <point x="734.05" y="764.132"/>
      <point x="823.422" y="650.728"/>
      <point x="860.09" y="531.36" type="curve"/>
      <point x="955.342" y="581.98" type="line"/>
      <point x="883.358" y="809.344"/>
      <point x="723.314" y="929.32"/>
      <point x="524.69" y="929.32" type="curve" smooth="yes" name="n24"/>
      <point x="248.026" y="929.32"/>
      <point x="72.718" y="717.324"/>
      <point x="72.718" y="469.976" type="curve" smooth="yes" name="n27"/>
      <point x="72.718" y="167.332"/>
      <point x="280.698" y="-13.996"/>
      <point x="549.322" y="-13.996" type="curve" smooth="yes" name="n30"/>
      <point x="875.958" y="-13.996"/>
      <point x="1050.59" y="219.352"/>
      <point x="1050.59" y="605.988" type="curve" smooth="yes" name="n33"/>
      <point x="1050.59" y="1124.67"/>
      <point x="708.59" y="1361.3"/>
    </contour>
    <contour>
      <point x="442.738" y="995.408" type="line"/>
      <point x="675.322" y="1155.41" type="line"/>
      <point x="693.974" y="1159.41" type="line"/>
      <point x="880.248" y="1276.43" type="line" smooth="yes"/>
      <point x="905.564" y="1292.76"/>
      <point x="913.222" y="1320.07"/>
      <point x="897.234" y="1346.05" type="curve" smooth="yes"/>
      <point x="854.606" y="1415.32" type="line" name="n43"/>
      <point x="622.698" y="1256.66" type="line"/>
      <point x="605.378" y="1252.66" type="line"/>
      <point x="420.754" y="1135.96" type="line"/>
      <point x="392.11" y="1119.3"/>
      <point x="384.786" y="1091.32"/>
      <point x="402.774" y="1063.34" type="curve"/>
    </contour>
  </outline>
  <guideline angle="0" x="0" y="1406"/>
</glyph>
<glyph name="divide" format="2">
  <advance width="1160"/>
  <unicode hex="00F7"/>
  <outline>
    <contour>
      <point x="96.022" y="590.736" type="line" name="n00"/>
      <point x="1063.31" y="590.736" type="line"/>
      <point x="1063.31" y="751.928" type="line"/>
      <point x="96.022" y="751.928" type="line" name="n03"/>
    </contour>
    <contour>
      <point x="440.074" y="1026.66" type="curve" smooth="yes" name="n04"/>
      <point x="440.074" y="948.04"/>
      <point x="500.042" y="888.072"/>
      <point x="578.666" y="888.072" type="curve" smooth="yes" name="n07"/>
      <point x="655.958" y="888.072"/>
      <point x="717.926" y="948.04"/>
      <point x="717.926" y="1026.66" type="curve" smooth="yes" name="n10"/>
      <point x="717.926" y="1103.96"/>
      <point x="655.958" y="1165.92"/>
      <point x="578.666" y="1165.92" type="curve" smooth="yes" name="n13"/>
      <point x="500.042" y="1165.92"/>
      <point x="440.074" y="1103.96"/>
    </contour>
    <contour>
      <point x="440.074" y="314.664" type="curve" smooth="yes"/>
      <point x="440.074" y="236.04"/>
      <point x="500.042" y="176.072"/>
      <point x="578.666" y="176.072" type="curve" smooth="yes" name="n19"/>
      <point x="655.958" y="176.072"/>
      <point x="717.926" y="236.04"/>
      <point x="717.926" y="314.664" type="curve" smooth="yes"/>
      <point x="717.926" y="391.956"/>
      <point x="655.958" y="453.924"/>
      <point x="578.666" y="453.924" type="curve" smooth="yes" name="n25"/>
      <point x="500.042" y="453.924"/>
      <point x="440.074" y="391.956"/>
    </contour>
  </outline>
</glyph>
<glyph name="oslash" format="2">
  <advance width="1141"/>
  <unicode hex="00F8"/>
  <anchor x="528.272" y="-70" name="bottom"/>
  <anchor x="571.312" y="1120" name="top"/>
  <outline>
    <contour>
      <point x="571.978" y="1035.96" type="curve" smooth="yes" name="n00"/>
      <point x="269.338" y="1035.96"/>
      <point x="74.714" y="832.628"/>
      <point x="74.714" y="511.312" type="curve" smooth="yes" name="n03"/>
      <point x="74.714" y="188.664"/>
      <point x="269.338" y="-14.664"/>
      <point x="571.978" y="-14.664" type="curve" smooth="yes" name="n06"/>
      <point x="873.286" y="-14.664"/>
      <point x="1066.58" y="188.664"/>
      <point x="1066.58" y="511.312" type="curve" smooth="yes" name="n09"/>
      <point x="1066.58" y="832.628"/>
      <point x="873.286" y="1035.96"/>
    </contour>
    <contour>
      <point x="571.978" y="145.196" type="curve" smooth="yes" name="n12"/>
      <point x="385.23" y="145.196"/>
      <point x="282.53" y="267.268"/>
      <point x="282.53" y="509.98" type="curve" smooth="yes" name="n15"/>
      <point x="282.53" y="739.372"/>
      <point x="385.23" y="876.1"/>
      <point x="571.978" y="876.1" type="curve" smooth="yes" name="n18"/>
      <point x="756.062" y="876.1"/>
      <point x="858.762" y="752.692"/>
      <point x="858.762" y="509.98" type="curve" smooth="yes" name="n21"/>
      <point x="858.762" y="280.588"/>
      <point x="756.062" y="145.196"/>
    </contour>
    <contour>
      <point x="1100.55" y="1111.92" type="line" name="n24"/>
      <point x="993.978" y="1111.92" type="line" smooth="yes"/>
      <point x="942.686" y="1111.92"/>
      <point x="924.034" y="1097.26"/>
      <point x="895.39" y="1053.3" type="curve"/>
      <point x="61.406" y="-76.664" type="line" name="n29"/>
      <point x="140.674" y="-76.664" type="line" smooth="yes"/>
      <point x="185.97" y="-76.664"/>
      <point x="239.258" y="-60.676"/>
      <point x="270.566" y="-12.716" type="curve"/>
    </contour>
  </outline>
</glyph>
<glyph name="thorn" format="2">
  <advance width="1129"/>
  <unicode hex="00FE"/>
  <anchor x="290.572" y="1515.31" name="Top"/>
  <anchor x="507.614" y="-421" name="bottom"/>
  <anchor x="290.572" y="1515.31" name="top"/>
  <outline>
    <contour>
      <point x="345.862" y="-338.688" type="line" name="n00"/>
      <point x="345.862" y="1479.96" type="line" name="n01"/>
      <point x="131.386" y="1479.96" type="line"/>
      <point x="131.386" y="-338.688" type="line"/>
    </contour>
    <contour>
      <point x="317.214" y="145.368" type="line" name="n04"/>
      <point x="388.55" y="47.336"/>
      <point x="472.578" y="-14.664"/>
      <point x="611.922" y="-14.664" type="curve" smooth="yes" name="n07"/>
      <point x="882.602" y="-14.664"/>
      <point x="1051.25" y="214.664"/>
      <point x="1051.25" y="517.312" type="curve" smooth="yes" name="n10"/>
      <point x="1051.25" y="853.316"/>
      <point x="898.594" y="1035.96"/>
      <point x="669.902" y="1035.96" type="curve" smooth="yes" name="n13"/>
      <point x="502.582" y="1035.96"/>
      <point x="385.898" y="947.956"/>
      <point x="295.234" y="821.272" type="curve"/>
      <point x="320.546" y="695.372" type="line"/>
      <point x="395.894" y="804.08"/>
      <point x="475.282" y="866.776"/>
      <point x="597.974" y="866.776" type="curve" smooth="yes" name="n20"/>
      <point x="743.402" y="866.776"/>
      <point x="830.11" y="768.052"/>
      <point x="830.11" y="517.312" type="curve" smooth="yes" name="n23"/>
      <point x="830.11" y="275.28"/>
      <point x="730.078" y="150.524"/>
      <point x="562.638" y="150.524" type="curve" smooth="yes" name="n26"/>
      <point x="471.918" y="150.524"/>
      <point x="397.222" y="181.88"/>
      <point x="334.53" y="270.608" type="curve"/>
    </contour>
  </outline>
</glyph>
<glyph name="Dcroat" format="2">
  <advance width="1539"/>
  <unicode hex="0110"/>
  <anchor x="680.618" y="1515.31" name="Top"/>
  <anchor x="645.616" y="-70" name="bottom"/>
  <anchor x="680.618" y="1515.31" name="top"/>
  <outline>
    <contour>
      <point x="1452.94" y="719.98" type="curve" smooth="yes" name="n00"/>
      <point x="1452.94" y="1146"/>
      <point x="1163.63" y="1439.96"/>
      <point x="733.01" y="1439.96" type="curve" smooth="yes" name="n03"/>
      <point x="189.054" y="1439.96" type="line" name="n04"/>
      <point x="189.054" y="0" type="line"/>
      <point x="733.01" y="0" type="line" smooth="yes" name="n06"/>
      <point x="1163.63" y="0"/>
      <point x="1452.94" y="292.632"/>
    </contour>
    <contour>
      <point x="1213.82" y="719.98" type="curve" smooth="yes" name="n09"/>
      <point x="1213.82" y="385.88"/>
      <point x="1027.75" y="187.832"/>
      <point x="733.01" y="187.832" type="curve" smooth="yes" name="n12"/>
      <point x="423.51" y="187.832" type="line"/>
      <point x="423.51" y="1252.13" type="line" name="n14"/>
      <point x="733.01" y="1252.13" type="line" smooth="yes" name="n15"/>
      <point x="1027.75" y="1252.13"/>
      <point x="1213.82" y="1052.75"/>
    </contour>
    <contour>
      <point x="1.01" y="658.044" type="line" name="n18"/>
      <point x="700.91" y="658.044" type="line"/>
      <point x="700.91" y="792.596" type="line"/>
      <point x="1.01" y="792.596" type="line" name="n21"/>
    </contour>
  </outline>
</glyph>
